<mxfile host="65bd71144e">
    <diagram id="bpbkTxAe3MsM5qXTKhsR" name="Page-1">
        <mxGraphModel dx="3297" dy="496" grid="1" gridSize="10" guides="1" tooltips="1" connect="1" arrows="1" fold="1" page="1" pageScale="1" pageWidth="1100" pageHeight="850" math="0" shadow="0">
            <root>
                <mxCell id="0"/>
                <mxCell id="1" parent="0"/>
                <mxCell id="383" value="" style="shape=image;verticalLabelPosition=bottom;labelBackgroundColor=default;verticalAlign=top;aspect=fixed;imageAspect=0;image=data:image/png,iVBORw0KGgoAAAANSUhEUgAABQ4AAAI3CAYAAADa9cbfAAAAAXNSR0IArs4c6QAAAARnQU1BAACxjwv8YQUAAAAJcEhZcwAADsMAAA7DAcdvqGQAAP+lSURBVHhe7N0HgBTl+T/w797RFEFRqhQ5IYhEDaLCaQQFW4yhiMaYqBSDQewaEruIJWokdsVO0Sg2VGw/VEQlf4OISAQRETxFEBAVBVHKlf/7vPPO7uzs7O7s3c3ezO33oy+3U3b2eabs3j73zkysbcuOVciguEExGjZsgO3by1FRXmHGphcriqFx40Z6XnmOX7/oXoJPl5aZocwknvKKClRVZgxdC2v8EtfWrdtCk0PU4xdB5RD1+EXYcoh6/CLIHLgP+c+BnwXpVSeHQtyH/OYQ9fhF2HKIevwiyBy4D/nPgZ8F6VUnh0Lch/zmEPX4RdhyiHr8IsgcuA/5z4GfBelVJwdn/EX6XyIiIiIiIiIiIiIHFg6JiIiIiIiIiIgoBQuHRERERERERERElCLWuWPX7CdQ50GnkvZYWbbaDEUP46973AZ1j9ugbnEfqnuMv+5xG9Q9boO6xX2o7jH+usdtUPe4DeoW96G6V5/iL27erMXVVVVAuiZisZh6XJUyzbtV6fmhHleqx8nT0redWzTD999t9JzmbjH1X2VVpec0dwtr/PJ/ZWV4coh6/NKCyiHq8UsLWw6Ftg9Jyy0H7kNe09xNcuBnQaaWew6FuA/5zSHq8UsLWw6Ftg9Jyy0H7kNe09xNcuBnQaaWew6FuA/5zSHq8UsLWw6Ftg9Jyy0H7kNe09xNcuBnQaaWew7O+HlXZRfeMSe7MMYvgsoh6vGLsOUQ9fhFkDlwH/KfAz8L0qtODoW4D/nNIerxi7DlEPX4RZA5cB/ynwM/C9KrTg6FuA/5zSHq8Yuw5RD1+EWQOXAf8p8DPwvSq04Ozvh5jUMiIiIiIiIiIiJKwcIhERERERERERERpWDhkIiIiIiIiIiIiFKwcEhEREREREREREQpWDgkIiIiIiIiIiKiFCwcEhERERERERERUQoWDomIiIiIiIiIiCgFC4dERERERERERESUgoVDIiIiIiIiIiIiSsHCIREREREREREREaWIDRgwoMo8JiIiIiIiIiIiItJibVt2zFg4LG5QjIYNG2D79nJUlFeYsenFimJo3LiRnlee49cvupfg06VlZigziae8ogJVldlrnjWN/4b2X6NxLPvrNGnSCFu2bDNDmcViMdWAqqoq1czIDGReeU7u81uv4UfU4xdB5ZCIJ5rxi0RM4cgh6vGLIHNIzBvN+EVi/urnMPnbnfHhz030Yy/5/CzwK9fPMolr69ZtgefQu09vnHXOmWZKerntQ/Y2Dnof8je/Lagcco0n1/lthbQNgo4n1/ltYdkGuS7bVojHsYhy/GHbBoW4D/l9jVzjyXV+WyFtg6DjyXV+W1i2Qa7LtoUh/p122gl33n43Zs16o17ViPwK6/cCvzk442fh0MUdvxQOB5RshRpNRER58uXqGK5e05KFQ4ea5CCFw1tvvxl333WvmUpEREREFJyxf79QFxhHjzoL77+/IPDfq/m9IL3q5MDCYQbu+O3CYbu2ZgYiIgrc/AUsHLrVJAe7cNj7gF+bqUREREREwVnw4bt4Y9abOOY3R+Hcsy/A/5vzTqC/V/N7QXrVycEZP2+OQkREREREREREteqZp6bj4Qen4M67b8PBh5SasRQ1LBwSEREREREREVGtu/Vft+vi4d333oFDfn2wGUtRwsIhEREREREREREFwi4e3vfg3SweRhALh0REREREREREFBgWD6OLhUMiIiIiIiIiIgoUi4fRxMIhEREREREREREFjsXD6GHhkIiIiIiIiIiI8oLFw2gpatiwATK14iKrtig/vaa7W3FxsZ6/qNjf/HaLxeA53qvJsuV1vKa5W03jL5LAiIgo77K9z+fzs8Bvy/WzTOQjhwYN1GN+nBERERFRSDiLh/0OOzTld9mw1oj8trB+L/Ca7tWc8RdVVFQiU6usqtIvID+9prtbZWWlnr+q0t/8dqvyuXxpsmx5Ha9p7lbT+CUuIiLKv8osnyP5/Czw23L9LBP5yEE/5scZEREREYWIXTy8+9470Ke0d9LvsmGtEfltYf1e4DXdqznjL5IFZGp24Ux+ek13t1znt5t0hfAa79Vk2UHF457fGiIionyrqvJ+n7abvE9X9709W8t1frvl+lmWy2vUbH7rMRERERFRmNjFw4n334XSg/vEf5cNa43Ibwvv9wLvedzNGb/Vv5Hyau06YOJc4JhngUb3mjZVDb8IXLwUWLrFzEjRsRk4yd6Wmdrj0drOc99PxK522Uhy5pCt9VPb5vz3gFd+ME8mIiIiIiKiQPGah+HGwmE+bQIufgHo9Cxw/kJg9jozXvykhlepA+ZNYL/JwEmLge/NpLTUc259H1hrBuvUVmDaO4BKizL5wbWd1QrLup0pb+aqbTNRHVODpcCr9ufPzfhA+Dhm1q4GbigzA0RERERERPUUi4fhxcJhvmwChj2rDobV1mDnTsClhwLPDwRmSjtGDf9Sjbcm47n/AIPeB9J1Slv6MdBtKnDxd2ZEHfp+JbDfEyq/D9PHW1D2NtvUo01V2/zC7o7tPFetuzcCLlBR3KVHeW8X3X4L3N4zsW1mq/152AfB7NN+jplJLwOdXgA+qDAjiIiIiIiI6jFn8bBnT/XljEKBhcM8eWUhMO0n6/GlvwWWqTZ+H+DY9kB/aSVquK8aP1L9bGPNN/c9YNwq67Hb92pZYSk2bdkGLDW5kbKT2aYe7WS1zW86XG3nYWo/MNt57bLgClQ1VXoAsO1Mq5WacVG2d1vv7aJbJ2CMSnLZKWo77WjNP/dd4PEATlv2c8ysXWkeEBERERERFQi7eHjVuKvY8zAkWDjMh5+Axz+yHvYsBcZ3sh57agxceiQwxAze+iF7o9VLO6r94LfAhQEXqKgamgHX9DaPlVeclxQgIiIiIiKiQFnFw8k8bTkkWDjMh03ANPPw4F3Ng0yaAWPsXrkrgYXszVc/NQbGDwDamsFxy80DqnOdWwL2IficOn6JiIiIiIgof3jNw/Bg4TAf1Fq2i0NLN5sHWezdUv2zI9C/A7DGUTi07xDb7z0zYgXQydwR9iRH4ekGM+4G6S0lN2V5xcz3uJpvjlqO67zYLSquaQvVNLl5i3mutP3U8Gj1mnM9ipdr1evJPJ1eNyOUfvZz1XO8yB2lb1Wv30/FYb9Gv9fUuDKfNwmpVLGo1x3tiFNilBtIyPPtmKTF7wKsXtNrHXmqUOvKzDt4qRkXoCZq+14o21pZ+5EjZg81WndqvS1U852v5t9vqnm+3Mlbnq/WyVq527oHX3dVVvvGNDXfMU86lvsm8Jy5/uY09Rp6vHufcNyJepo5LpaqGJ3btpvcSGgx8PlWa3reNE5c6zAtta/Ivpi0TlXrpNaD5D/No6ein2PGPnbHWYN4Ts1rL9teT0nUunlF7avO9SYxjFYbbHamPzq41v/369VzzJ3e9fNVPJ/L9RXDvJ2IiIiIiKjeYvEwHFg4zIddgT+ah7PfUzu/+oKeTduuwLZhwMzfAWNMYak6tvwA66YsX8C6+7Iafk596f+5oZ6svfKO+uL/iJpvrpq22sxnLFXDk1TM/aYCo1eYkdWxXS3nTeg7Sl8sBTLHablz1XIvnmkVAF/J1LtLTRv9hIrldbUsR5wS4zh5/hvAB16FizaJ4txzyzKf+v293PHYPB7SzjwI2MF7mAc/AR97na5c03Wnnn/DS0BvNd9ENX/82nrq52x5vlqfndR6rU7Pus/V8+UmPcPUPjLbvlGPLHcpcNKTavzHwAYzOiOJUeWwn4rRuW0/X6di/o96DRXftGrEV11y3DxnHvc3p5M7fa6Op2P+be2LSetUWavWg+Qvx103td2CvNSA7K/HqHUzWL2Oc71JDJMWqmlq28gd2rNdP3PDGmDQM+o5ptipny+Pi63huJBtJyIiIiIiqt9YPKx7RYr8k7bFYjE9o/z0mu5uuc5vN6DKc7xXk2UHFY97fmuohtSX7z8eYh7/BFysvqB3e1kdAMuTCw5+lO4HfD0SeH5/M6IE+FANy7j71WO3G95QX+TVT7me3ko1z7ITgdtVLP1NQWDhB8DgD60CQOcuwJPHW/PJ8mTeqQclel5Neg14zlGBaKteT+b78DAzQnnePPdrFafTtDnAaNODT15nqnodPd8p6jVLrddYu1rF8jowd7s1XxI17uJnVQymaDZEPWeeeq5+fZXbyPbq+cvU89XreOnfzTxYCcz2Ks4Zb5aZB92B43c2jwPWuYV5oCz1KLrUdN09p54/Tk2XHqwXHp5Yb87nS0H5JPX8hfLYpy2rrB6PujCm1tVNx1g39/l6mNoPDrUKbtPeAs5foWfP6J7ZVoz991Yxqf1O4lt5stpX1XbQ1HEyTOWRl+t9qnV4q92jV/lNK/PA2LJexfKK2o/k2DV5f6hyttfp83KNUrPvfK62m/SGtfk5Zi40w5dagxii5tXTVRvS1IxUtqwDBr1o4lDreqRa53YcHw5Uy1HHhJA7tP8lS0/b82XfaQPcZ/Ytef59vzL7hkO+t1Ms5v0+bTd5n67ue3u2luv8dsv1syyX16jZ/NZjIiIiIqKocRYPD+17iOfvvdX7Hdl7HmfLdX67hfd7gfc87pYUf6PGDZGpNWhgVZjkp9f0lNbI6spWVFzkPT1Ni6lgvMZ7Nb1s9Tpe09ytpvFLXLWh537A8/uYAeXzlVZPL32Ko2pyauNEKSRm6xqkwtulMdCigRlW4cmwbu7eQcalR6vWCWgrp1+2BMZ0NRPUa01813rYthvw6lHAkDbWfLI8mffkA9T4AdY8YrbpkaSp19Ov6+i92MI81zlOiifDllmPSw8CPlSvc7J6HT1fM/WaPdW4k82dbNXyT3o/tYfU3A/Vm4Upso4fAjypntNTPVeW0V3ldt9xwFS7OOih5x7Asebxc2vMAzf1onLKpxhTopZtPQzcLk3MA6XMlXiN190m4DHz/DGHAzd1T6w3+/nx7aue7/tGIBVqe8w1Pc5UPG8PBS5U66yzLFfFcqza12ceb+LyYa563ZOPVM85TMWk9juJr63aABLzTPtig1mKvjW2XR1/q9Vx+X/AOLMe2v4SGOnq8ft/9inlKrepv7Py7q4e2+v0WHV8PanG2zc4mrTKcSq5j2OmiRmO7xbmmE8ap9b/DTMdcah1fZ9a53Yc3durbT1QrTvzB4Zp6r3GLrqnM1Wt/5Fm35LnSzHeLd/bqWHDBqnv0Y6Wz88Cvy3XzzKRjxwaqHVZO38JIyIiIiLKP7t4OPH+u9Dv8EOTfu/l94IsrRo5OOMvqiivQKZWWWFd/Ex+ek13t3LVRFVVlef0dE09wXO8V5Nly+t4TXO3msYvcdWWYw9V36nVl/mT3TdI+Ul90V5q9frZb7J1fTH7mn01pr7cH29fYNFlixTiOgClOwMX7pfau8jWuX2iCLLGqzdgFo/PMw86AVMPcBQ/HJrsAlxzkPV47ULgOee13LaqZZgeYD3VPBd65aOOs5P7JOJMoXIcol5fvLLcu0fU2lXAJHmwo5pXrZd8aWIdw55qvO7UNrZPue2s8vLSeQ9gjFo/cj1NlFvjspFTZMd9Yz0ef4jahxpbj5M0A/5p97TNRuV3jV3Qdunv2DE//9k8qKZhj1jX5PNsD1mnfN8qvTNFG6tHZlIBWb0lyKnX/dU0+WPAySpHT2r80C7m8ZbUQnhNrVXvDzeYQvqFA9LH0b+Xmm62e8ab7/wS+E26XJzytJ1sFRXe79N2y+dngd8mnxle472aLFvkIwf7uUREREREUWUXD++8+zb07n1Q/Pdefi/I3KqTgzP+ou3by5GpVVRaAclPr+nuJl/0hCTgNT1dk/XkNd6r6ZWjXsdrmrvVNP5KswFrS9v2wNSTgI1ymujhwJg91DgzzSbXF9PX7HsBmF3TikMHyFm3nprsCtz3O+DtPyJ+DUBPTfQZ0dXzDfCsKXAM6Zq+OCk67w70N49fti+epsipoRPN4z+q9eVVPNOaAiN/aR57OH5v82CVd4+oV0zPvLZ7AQdbBfy6VQvrDjsliqkXzwGmqWWm7FKNgdvVPiDX07zUo5eZlw/sXptqvzm2jXnsoW1HtY+bx5n0VPtp2vyaJXL4+EfzIEg7q5ilyD8YKHUXddV+MVJ61x0PzLN72KXRRsUdlPj6V47PVORW8f/G9MSVm++kOxW9v/QeNI8zyfd2yvY+n8/PAr8t188ykY8c9C8LtftxRkRERESUd3bx8O5778BBvQ/Sv/fye0HmVp0cnPHXznm4lLMmzdSX7O7A7ccCK/+i2slWIVFOFbTJdeuOeQXe1/zzq2GGQls6ah/8fiuwUL3+tMXA6Bnq4DSTcrX2h0SxYm8ViCw3bWsM2LWYaY7ulkvtm24o3dV6y2TvDEWsXdqp9WseT/zCPLCpOJ9baT28sEs11lkNfJ+mOFwb606KqWPsCeuAYU8Dzada14KcVIZq3wV34SrzQK3vTAVNKUoe7KPqnK43ZG279ChgppzC69XMNfu2/VEdl/sAbXN8d9yi1uXn31g9Wi9+Ux036ap0tUDukK3JKfXO/cCjtbCPmZ/UseTsjeqwc4Zer0752k5ERERERETp8IYp+cXCYRiorSDXCZNCor45wYnAGLsAtg64wcfNJdIZkqXQpm21ru13/mvmmov3A60nAb1fAIb9B/E7rVaLo4fLDS9by03bJjsKlD8hfqr2FkfhVK4Hl0mTTHt0E+BkU0RbuCxRlBOfr1HrQB60tHpf5ZMUd2x772QeiFpYd6J/b+DJ/Rw9W9X0Vz4CRs8Euqnn6lPjlwNrrT9a+LLFnKYsp3Vn7akWoneZvdVK6N8+TZNed1n2Lye5Tum4OcAxav3Jqc7N1brs9rR1k5pb1fEU6I1cTE9UlKlj1rkfeLTeKkbbmjSnECftd0RERERERCHnLB4efEipGUtBYOEwhHZpCdwud2Y1w698BesmFNWRZQt//gVwzBPAYLk5ywok3eVZbpAw5gDgyWMTseRNANeFEwd3NAW0b4DZdvFLmW2u/9b/l4mee/lS5uhRubfjrrnV5l53ah8YcgiwbATwvKtXq9Cnxr8OdFL7wXMed3UmF7WOLn7BujP6DR+pfcex/druqta12ofuOwa4qdrn9wdni9VDPUUT3jSDiIiIiIgixnnaMnseBoeFw6D9BFz8ItDvcaD3h2acH80cN1dYFkzvJbl24LBXgNlSLNwRGHko8PbJ5nTNM4EPBwK3HwR999TaMPUUa7m+2lGJHnLOm4dscPTO87IlS6+5JlIMNadbPm6fbvsNMNE8Pnl362feVABvmmsrSm/HdKdiV3fdOTVpAhxrerVuO0PtVieqxz2tm+NoPwAnzfG3rzWx9wm172S9iU8OPRlDT22vG6RHobmBSv+9gSfV+lypjpmNat2vPEkN91XHUgnQLh/vrge4tn2WdmmGU/mJiIiIiIiixi4e3nv/XTjkUBYPg8DCYdDkVM7vgLlyvbqVORYA7YJLlyzXkasmuZPzXPN46vHAffsApbt4nK7pKPz8kOP1FtvunChifaDWQXV0tgtbytIsPeKcvffSOXY/6+fC5dbpygu/Mqctq/V8rOO18uF7tU/Yd8ft2S25t2NtrLu0itV6bQmMLAXe/oPa9naRWsWz0NHrNJ3ujlPpM+7TFSp2+3p89YC+m7Q5dX/IAGDmYeqnWhdt1TGTcl1M+7jZ6uoBWgv2Njc8ybr+iYiIiIiI6rn4acsP3M3iYQBYOMyD0r3Mg1XAVeaU2Kx+AB43BZeeUpiwHtaqpfa1C/dQMWa4FuLnq4HnzGPdOzEXuwIjTQ+/W1XuGXunfQP0mwoc8yIwbKkZp+yi8rdvavL4FxmKMGrCNB83pJA7w+oCnTld+QNzU5SRXYNZz2ltB25wXH/uMrsYZKuFdSenoo9W4/Z7PFEkTqHeBY51nFa7xcedVw+27+SrXveVDNfAlMJodW+sE0afOwq4x7YzD7w4jl857qt9qYE0eto9Y9Wyn1XbIJNX1D7W7Vlr35hdkxstERERERER+VRVVYXBxw/COeedlZe2fft2fPi/RXjgoYksHtYyFg7zoP8+wMmmADTtdWD04sw3ovj+O+D8N8zNOtTzLrN7g3lZUf0eR+3s3nVfAHPT9OT7fr2KZZ4Z8OFz911bi4Hj7W50S4HzPk5T+DNFtLk/AbNXqXXmLMo0AUYeZD1c+B5wa5pC1bR3gEnmcUYtgTGm8PV/y9V6Vq8nhuTzNGWV57gXVS6mECu914a4u6zVwrqTG5dMUuOW/gDck6Fo/aZd5JLTpX1cZ3GXTsB4c7ryOLXePe/8rfap8xyF0fqgrTmOxStrzAO3rWq7qnWij18fUo4Zl+c8ept27pw45f5itY5np6mmf662+eiP1E91zHzcCjjY592TiYiIiIiIamL+ewvQvv3u6FN6UN5aZWUlvvtuAw44YH8TBdUGFg7zoSlwzWGAfZ+fSf8BOj0KDFZf+CeqL/azV1tt2mLg/FeA/Z5U401xbOSvgSEehZykAsZK6Dvzfp9jb6LSjuaBMux19ZplwOeyHNWkN+LEt1Qsz6jl/5T8em67OApeL6tY1ppl2HruDYw3p7ZOk2W+pn6qfPV8atlz1eue9HTiFNDSPsAfXacMl+4HXGhiGPesmn8hsHCTiVUtS25WMcy+VqAP/btaP2er5UhvyrbqfaV/DnfUzejHxDZ1t0nq9WQbd5oK3GDnuw/wT3dvQ6Om626XPYCb7OerbXyMFLS+sdabve5uUMscZu7cfbJaD87TpdMqVttD7dC6h6Z67X4qhlvt/UcKmEvVa6ntNE09rk/atgKONY+fe8P6I4C9H679Xo1Tw3KzoYu/qNkxI9ravTrV9FfMa8Sv4amef+EhifUvd3Z2xvK52saT1Lbup7a57u2oYrlD7Wfu2jQREREREVEQRo86C6f9aWTe25KPlpgIqLawcJgnnfcAZpykvuy3NyN+Al75CDhfijkvWG3Yf4CJX5gv+jsDNw1xXHvOpXMrxAuRN7wMtJ6kmo/TdJ06dweeVE1bp2KZCXST5ai237Nq+GMVi4rjPhX3HfaprN+Z+BzkRhl27ycpbnWSZbyJRE/IhsClvwNuN7l8vkLlqvLV800F+qnXtXtVHXuIWk/7exQ41DJuOh4YaYpiz80Fev/bxKqWJTerkALc1AOs6dl07oikO0WP6VyLRRW13uxt6m6jVdzxbawMOVTlq1raa1jWwrq78EiVnykezv4QGPy0td7sdTfOFA3l+fdn6t3q0qQD8LZato5dxXCxvf/IKdNq+8tp7WOOVfHruesJtf/dflRie8kfAez9sNM04CQ1LHmPPFytm75mJsXdqzDrMaPs38k8UMfmYPMaN3xtximdu6rXUOu3vyxHvaYzlm5qG49W21rvZ2rbyw1cvP4AQURERERERJRJUZMdGiNTa9iwgZ5RfnpNd7fGjRvp+YsbFHtOT9diRTHP8V5Nli2v4zXN3Woaf1FR7dVWd9kVuGkgsFLuZnuA+iLfIblg1FZN7y93vf0t8PUfgAszXXCvJTBjCDCyvel1JL5LLjz4MeRwYJl6vTFdHLHs6Ijjj+o1VFw9W5lpK4A33adWNlF5DVLxOpdR5iowNlSvcZTK/Xg17y/V8tUybZ3bqNc4CHj7NOD5/dR6MuNTNFMxqfUy81AVtyPv7nsAt6v1+rYU4OzNpXLIWAhsCvzJLpqqdXmsKawFzd7Gtx+p1sUZwJP7ZMjXVtN1p9bb7YPVPFJAVNsofhdlxf38XIunUrxaNkwt3xmXWvfHquGZMl5tG3uZbevJnyk6q3U4Tx0XkrNzXXZX++SFcjyNVPup2sad1fqweydOd5/W7OOY6am2x9ulydv7443mgSF/kJipjonn1euOdL6fyDGsln27HMNq2w/JcA3TMGvUKPP7fD4/C/y2XD/LRD5yaNRYvZHE9CARERERUb3WoEH635cL/XuB13Sv5ow/1ql9l4y3QoipLxox9Y9c2FL970OVVWxT81b6e4K2x57t8cVnq81QZkUqnsoqOWcv+7egmsZ/bevVOHyPLWiXqYhHoTF7LnCM9LzsAqw8ylFU9fDcm8BJS4GehwDz9jMjqXZVABc/AH2DlCFHAk+aU8SJspm/IIbrvmmHxVt3MGNS5fOzwK9cP8skdLkWS9A59Dm4D27+1w3o3evXZhoRERERUf1z34N34+MlS3HP3feZMckK/XuB3xyc8Rdt27oNmVp5ufrmr8hPr+nutn17uZ6/osLf/HaTBLzGezVZtryO1zR3q2n8lZX+dwwKyGZg2JPAMa8Bk7LcQXahudGJ9OzLWOv9QS3L3H14zB7WT/Jv7XLrNOeT5qh1bh1i3jYAs83D/SPa643qTvn27Snv0c6Wz88Cvy3XzzKRjxzK5TE/zoiIiIioAGT6Hb7Qvxd4TfdqzviL9LOJwqwpsPcWYPYKYNzHwPdmtNvnS4GLTWFxZJYeonOXwbrrbXfgeMfppuRP22ZqO6wGnvsI+q7NnirVtA8AfenNHYFScxdmIiIiIiIiIooGFg4pEo41t/pd+xHQ23lnYdXsO0D3e9Oap203YIx9Expjy3fqOSuh72ws8570vjV+/N4+rjFIqdoAF5rrQk58xVqfs7+3tod9t+fRL6lmbrxy8q+B/tZlG4iIiIiIiIgoImJtW3bMePKSXDxRLrgoXRsrTHfITOQCinLhRZnX7g7pxy+6l+DTpWVmKDOJp7yiAlU+TiOuafw3tP8aA0q28hqHIfDKf4DBi81AGnKn6Ff7qZ/ukvh6oNMzyTefKD1IzXtA7jcEIWOTdVfwievMcBojjwTu47UNKUdyjcOr17TEhz+nP0Lz+VngV66fZRLX1q3bAs+hd5/euPX2m3Fwn0PNVCIiIiKi+qWivEpf43Dxoo9w5+33mLHJCv17gd8cnPGzcOjijp+Fw3BZuw54fBnwf2uA2d9Z4+R6hqXtgJH7Asem6z74E3DxTOBW9XyZ/4+9gEu7srdhjVUCcz9T20QdurPVNlmq1rOQOwz3LwHGqHXcnZVZqgYWDlPVJAe7cNi3X18zlYiIiIio/pCiYflWFg69VCcHZ/w8VZkipa2cIqu+9848Cdh2ptVWqsdPqnFpi4ZiR+Cm4xPz38SiYe1Q7yClal3efhTw4bDENvlwoBq3D4uGRERERERERFHGwiERERERERERERGlYOGQiIiIiIiIiIiIUrBwSERERERERERERClYOCQiIiIiIiIiIqIULBwSERFRjvri8knP4JlnnG0ChpupuRmOCc7lTEheyvAJNVl2GGTOr6bSrR9rvGmTLldbrI4cdjmmOvKfemntRBKK/ExuOec0YoKKO8r7dMS59skJI8z4AtH30ql1+54QNXk9Xq3P1tp6n8yd9XlV98eE+R0javtp1N/bs8af/PtM3e2nVBdiAwYMyH6v5wI2essClLb+Hu3amhFERBS4+R/EMKlJT6wobmHGUE307NkTF15wIQ7te6gZU1PyS/0F2GvZbRh2wxxrjPoyesGBwII7huH6t/QoH6zl9Pp2Bk4YO8WMSyYFokElZZhxwlh4zxFm2fOrqWzrR2+Xbp/gtpHXw9pS+SRfMgah9fzEflLb6jQ/KUCd10u9YXnlZ+WOF07A2MlmlE2+nA1ERPfp+iTDNspGb/u98ElO73fhULfvCRGU1+M19bM1CPpzA16fSzU4JmqV+ezEgmrtp+nzC1jU39t9x5+f/bQ6KsqrUL61Cvc/dA/WrluDadOmmSlUU7G2LTtmLBwWNyhGw4YNsH17udoQFWZserGiGBo3bqTnlef49YvuJfh0aZkZykziKa+oQFVl9ppnTeO/of3XGFCyFWoRRESUJ5+vjOHqNS3x4c9NzJhU+fws8CvXzzKJa+vWbYHn0LtPb9x6+83o26+2/jrs/Uuj/mV9t1x+0Q/Ll5Sg1H1+dV9YC7a4Et4iCAuH4cfCYbiOmZBi4TByWDispnpUOLzvwbuxeNFHuPP2e8yUZIX+vcBvDs74WTh0cccvhcPdGmR/XgOJKYd8Y7EYqqqyx28Lev6oxy+CzCHq8Yuw5RD1+EWQMUU9flHTHO76ugULhw41ySFfhUP3L536l/cSaxLg1Ssu/ZcU/eX2wKZmyP1c6/VbvHUbNhx2AXo1t8aWuZaT/fUzS35+6vKzy/wlLO3yZT0etgELvu2FXmr65vkz8Em3QTpPe57M6yfBq0hgPfdr13Ny/cJozZ8I3yOGGhVXrG1sb1u1Fjx7s6Yvgrjjs2yO9w7MHL9smyO+vQ0P4Iz4ek733MR44f26Wpn5ImsfJy8AgwaaOTfaBXezby9bgNYH9kJTicueLz6PYno72ntApn2gWlzLT8rR7J+3vdUCF6TEn+Dev5OW4Y7f+Xyv5bvz0+vQsXDH81P3iXRfcq1t5bnPu5dvb7uU9Z6Qso4cz8/5vSPb89PFF+c+fhLLsNfPjGV7YZD9HpLy/EwyHZtm/w34vTmb9O/d1YlP+IxRtkuW926RLb7Evmqv69R1HF//HsdeOql52ez87GNiBjDQfh9zv/emf329b+32CRbspvLXOdvL8X7/9pIUY0puEt8R2HDHLLQ4LzW+7Pkpmd7b4st/QG1LO8fU2N2vE1+GPi7Tvbcbub73uZ/vPvY1R4wZ81Oyvb47fs99372fOmR7/YCxcJhedXJg4TAD7hTZhTF+EVQOUY9fhC2HqMcvgsyB+5D/HPhZkJ4zh/wWDlvrX2BXDVS/WDt6HyYVqzx/8RUeXy7sX2STfnFNfHGxv3AlLV/NoX+xT/f6ehlZqNedgLHxL3o5Pd9PfpmWb54vv3DbhSvJc9E+Kid3LwrP9ZOgl5tSWEstmHjPl471fOcpyM74P9OP419LHPwXCPpeOgH93hkb3xfc29PmHbfZP+KniLv318zxyzPiXwztL1X6y5C7CJrhy5PHOo6z94/4FzZnPDD7tqyrRdhXjS+R+dQyzoi/foZl1wbzxe/r+PJd6ytj/NZ6SLe9LGq9TeiHt8fa07It37U9PbdFQuo+kW47pVuPavwEYKx9nKWsD3tcmhh0/Nb7oJ7m9fxMsj4/W3yu9eVi7evq+HQVQ/3F57HspHjN9CDfm7NR8aR/7849Piu/9O+xSfS8Wd67fcRn7avmvSBpO6au/8zHmjf9nAw9Dp2FvuTlZ3596FwcOZfIcqwinPf7ZHp6vaT57Eofn5krXX5ex1LSe5e9/ETByx2H1+vFme2f/r1Rrb+c3vtc093x62HH+1DW/HJ9/dTtbbHGp2zTrK8fPBYO06tODs74eXMUIiIiqmXDsa98YZhs/3IKzLlhFsrUr+P7ykXXJ4/FCSecoNoMNc76AmcNm19+fZJf7O0vX3Pe+UR9lWiNDofJUJbX90PFaC9bJC8/Cz/5ZV1+GWbZv2irX+KfV/N+9u1ma7jGpmCRCqxkH/sS6H3Rr1tTbF72dnx9ZTRiX7UmHfEpzvU754ZhVr53LFA5yRc8O3//hYE5NySKhmLKYhVw8xbY0wxntidaSA+dF+xXm4O3l21G093Ms7PEHxf/8qS8tQpfoylayDfKWlGGGfEvntb2iMenbJ7/fHxdlb2l5tOvnyyx/WpX30P2QtOyGY79cwqen6/WX7d+ak+xZYhffXk8wnX8JZuD6+NfXEVq/snLV/O/pWbYrYPj9Ztir0Nq6w8hblMSRTnx1tv4ZCPQup2/1xu+jxSOHkjsv2r7zVLh+91e2Z+fJb4Rg63Cs7to4iT7tj09l/wO64e9ko4tZfLzWLAxeXsE+t6cjY/37lziy12W925fny39MOEZj4KNXv/J23bKC+p9tvle6Jf0/JopeyHxWZX03uvn9U3OWtkstZw5WPWtGa4laePLwt97W6JoKOasUe+88fyzvbeJDO+N8l6W03ufa3pJCzR1rl997CY+l7LnVxvvven5Xb8UTSwcEhERUa3o2661+vdrrEIH9TWoKXqdl7j73jPP2KcV5cFhtfH68pdyx/PPc5zaUyuCXn5m+steyb4qCsV8GXQW0jLR23njBnxmhi2fYUMOxZWspOeCc/1ILwjfJBa1/QfahZbhGHxgU2z+1orYd/zfrkr6gjX2BLsXRV2TWGagrGRQfP3U5t0t99xN7YmOZUvz7kGahny5lfcBR+HXTXrxOJfvfXqhi/3l/a3rMeyOBcCBF8SfX9t3gZVeRYn4LtA91Pzpiw67qS/ijtik+cpP8/f8TPF579+1xHPbWoWh5OJDGrXy3pxNDd5bdXxByx5f0wN7qXXiKtAKvf5LMCjL8wNT169fQ37f275e4/gs1H8INH/08vHelk213vtsZRuwuXkvDLbf7/QfCTZjQ5k16Ce/Gr33ZlHjzw4KNRYOiYiIqBZYvdZQtghTdO8o9aUn3tMs0fJSeKnx68tpOOrLrJzKZz9X956rLUEv3wfdU8Hq5SO9BODo4ZZNUg+MOOnl5/rCVW3qi7X6Mip3K46vnxfMN6NcxL/AWOvaswdJXG3Gnw9WIdPed6SIVlvFM907yrlv2i3eCyUL+XKb0oPKYcQE9WVS7sCeWPaMLJs3pRgmxUM7LrVvlAycistrqceVfLG27lRux3cbFmw0E7OyimjSY8nOLd4y9QCMy/78bPF579+1xHPbWsVOuzCfUeCfDSF4b83IX3x6+7/wNXqd59qv9fp3bnu75dZbv9rq+vVrKPD3tmyq8d7npWSgKcwNLEnqfZk1v9p4782gxuuXQo2FQyIiIqqx4ROk14v6QqG/3MrpL03Ra8Tl6mtSXajp61tFpMQXYfVlb0Rt9qoIevl+WKcglRw2FWcc+LXv3oba5EXqq2MJjnD0chs+QX0Zdp5CVROm10+iiDccE3LpcWifTuf84uIs2gQdv2b1YAzqdOIkHqcxC7tnSa69EfWpkyWDql+INKfPpTv+9BdRZ68d9WU2c68X02M03an0+st8grtwZr03mQEfdK8Zxxflvpeekfp8vc69T5eWUyebHnhGtQuZ2Z6fNT6zfw+aEMC+Z2/beG9e+/X99lj2+95s98qboB7loobvrSa/+Ha1r/lWa3KIb/JY3DYfycVD8wefmm5bXeCxe5znopZeP2jp8gv6vS2b3N/7ktmnAjuLcs6Ce7b8av2918Xv+rV7TNdmT3kKHguHREREVC3O0+n0xcId17CbMvYEzPi2Fy4w063m90ug9Mowz9Ff2uxTo/z3KqrZ60/B2Bfky7udn9yF07peYe2o6fKzrZ/EqXD6NKHm9npw5S8FhuZN1ReRRfHt5o+K3/Rys+I327+2ehW8dT0emL850atC7nIpp1abyVnz09eEs9eJo02yv+zVMH4pJujnWQWp+HZM+jI9B9dPVjHHez26p9eA+zRuc/F5d48t69ppEt9gn/u9YU4Fbh1f/1bz/yVP5T7yNixA8vFnP3/ODQ9ggRQf7GmHbcAMtb2TObefdQOT+MX14+vftPPkYvyOHk/6mnuJ58vdsZ29ahKn6g1Sr6JeyeRpxzdlrDoW4/uU2sd2m+XRK8d9DDvWj5zaqHuLWePt5rtYkeX52eNTsblOZXc+v2Zk2yYvO9cbm/h7b7auvSb7gbPAn11N31ut4zb+3iA3RanVHou5xSfXi50hhVa1L1j7lzm2dkveton3Nn9SjkHfn4218/rp+fzsyiJtfgG/t2Xj770vPX09UNdxnfT6WfLL+vr6jzDO9ZbuvTfNZ1+N1y+FGe+q7MI75mQXxvhFUDlEPX4RthyiHr8IMgfuQ/5z4GdBes4cav+uylQ/yJe0AO/OW1fky03KXVCtXPN5d8e6JwVm9QVPfc2ttaJuPnhuPyo4ej+QUzHr2fsTUTV53i1aHyeOu7AXON5VOb3q5OCMnz0OiYiIiAqQPj23zHkHxPrBOh3LJeX05wKgL5wP/3fLJgqNvrj8MOkPWoZFLBoSKda1RN1STj8mCkisY7uSjOXMWCyGouIiVFZUoqoqe+VT5mjQoFjPK8/xq6RrR5Qt/9IMZSbxVKhlx8xwJmGNX+IqL68ITQ5Rj18ElUPU4xdhyyHq8Ysgc4h6/CJfOfCzID1nDqWlfXDzLTeib1/2OCTTC625ergxYj3RcqB7Zriu3VQ4PZcS2ziSObPHYWEzPQ3r8/sTUfVYPeeTP9rker58r7Q5exwu+ehj3HPXvWZKskL/XuA3B2f8sc4du2Z/lTzoVNIeK8tWm6HoYfx1j9ug7nEb1C3uQ3UvrPEffEgpbrr5HywcEhEREVG95CwcLv34E0y85z4zpW7Up+81sd1b75GxcChVTKlMSuXTV2UyBjRq1FDPK8/xq0u3TlixbKUZykzHU6GW7aPkGdb4Ja5t27aHJoeoxy+CyiHq8Yuw5RD1+EWgOXAfMkOZ6Xj4WZCeI4c+pb3xr1v/yWscEhEREVG95CwcfrR4Ce66Y6KZkqzQvxf4zcEZf1FlZSUyNbvbo+7S6DHd3XKd326Sidd4rybLDiqeXOe3W67x5/IaQc8vLerxSwsqh1zjyXV+uxXSNgg6nlznt1tYtkGuy7ZbIR7HQcWT6/x2C+82sB4TEREREdV3mX5frtnv1N7zeLWofzdzxs+boxAREREREREREVEKFg6JiIiIiIiIiIgoBQuHRERERERERERElIKFQyIiIiIiIiIiIkrBwiERERERERERERGlYOGQiIiIiIiIiIiIUrBwSERERERERERERClYOCQiIqKCNHzCM3jmGUebMNxMoaR1M+ly9DXjo2E4Jqi4J4wwg3lnvb69/qZeWkdr77DLMbU6rz9igop7gsqiwOn1UBv7UV3vj9nkN76+l06NHxvB7mfJx2FU3t/9vff2xeWTMk0Pq7AfC3lS3fdmojpUpMg/aVssFtMzyk+v6e6W6/x2A6o8x3s1WXZQ8eQ6v91yjT+X1wh6fmlRj19aUDnkGk+u89utkLZB0PHkOr/dwrINcl223QrxOA4qnlznt1t4t4H1mGzWl65Buy3AbSecgBPsNnaKmW7RX3AD/GIW9PJrYspYa53cNn+zGZM7/QU4wC/rQS+/+qZgrN6nbsOCjWZU6PALPAUn03vbnBuGWe+3L5SZMUGQ9/hBKCmbkfb9Paxq4723pmr63lq47/21ge/NtSXT78s1+53aex6vFvXvZknxN2rcEJlagwbF+gXkp9f0lNaooZ6/qLjIe3qaFlPBeI33anrZ6nW8prlbWOMXYcoh6vFLCyqHqMcvLWw5RD1+aYHmEPX4peUph6jHL/KRQ4OGDdRvCnqQtD3RojlQ9tb1mGPGENU7av8edsIJGHYD9/JqmTxWF3DGTjbDFCHmPX5xNIqFuZuD60eegBNG8jMskvjenBfFxel/Xy707wWe0z2aM/5Yx3YlVXoJaeiKpFp4ZUUlqqoyzqrJHBK8zCvP8auka0eULf/SDGUm8VSoZfv5DhTW+CWu8vKK0OQQ9fhFUDlEPX4RthyiHr8IMoeoxy/ylQM/C9Jz5lBa2gc333Ij+vblaTEW+Yv+IJRsXIDbPL54SW+ZCw5saoacNmPBHcNw/Vtmnt1m4YTF++KZgSXWZOnd4ujVIr0iBplJouwFqwjhZ/ki+fllmHHCWCSWLj1qLkAv9eU4iYrhtm+PUMv/2jW/lTNMDH7pWLt94rGeXK/vWJfuvBOcOaTGb6+fbLIv3851BjBQbWc9LXndZorfFznV7LxeiG9Fz+dbr7HXsttSvyDKabD2fhPniNE9PWnfkvyOwIY7HlDz2Tk48zP7tzxUNs93vn7ytCT2a+jXBma8AAyyY4jnZ+XUYtkCtD5Q8lfr3J7P1zo06/3b5GPFes3WiRwyrV89rQVmnbAI+8ZzSd72rZNyVq+adj/24Hpt935pH/vWcWbmch37Xts3aTmu6c5pnst3r9tcn59jfOnfe8z2f+s2bDgscfzYz9Wv7eO9TdMxqP3M+T6lxzn2Ay3DcZSW/R7gWOeGvX7Sv3ebfTT+3uQ6Lg/bgAXf9kIv9dTN82fgk26D9LxJ2zcb9/6dtI4tOk6PfTZp22R43/F+b7PfO2ahxXmp743+3rvTC+S9uRbj89rn9DLh2P7Zto1revL7azbJ7785vzdTVhXlVSjfWoX7HrwbSz76GPfcda+ZkqzQvxf4zcEZf9H27eXI1CoqrYXKT6/p7lZRUaHnl2C8pqdrkqvXeK8my5bX8ZrmbmGNX4Qph6jHLy2oHKIev7Sw5RD1+KUFmUPU45eWrxyiHr/IRw7yS4j+jYGMKRh7xwJsbt4LF3hcR8o+lU6fKiZfutRj63Q355cbpWSQ+RIi02agTA3HTy9SX1D2XWw/z1pWyUDrel5+lq+/zDhOpb5tfmsMclwPbPgE9cUKiekz5Kw/8+Vizg2z1FedEuzrONWp76VH6ELp836/2GZkvthJ8cd+ffVF+gKzHu1T7eIxmXlOSPqylvx8aX6/dPtZvigZKF+Q7XmbotcIeztnjj879Xy13R+Iv67a9mpfOsPv9arki+fAEl1o0M+XfdFdnNDFE3v5t2HBbmpfSzo1T+VznlVMkXlumw9HfplOlbanqZjVUDwGaUlfTEsw6LANZv9Kza/kQCncyTLMfPp42gv9DjMzpDVH5aheuWTf+L4shu+jvi6XzTL7v5/1q17XFIZknhllalivnyl4Xh1XTbv1c2zL4Rh8YFP/PYxNbyB7HXlSx7ouPsl8krvr2E/efq7luKer57ce6Do10bl8d/65Pj/H+LK994iSgVI8tKfn9t6W0eTn1T7bFHsd4tjWIwajV/MyzPJTnJHc5D3dFGBK1Hqxhqficue+qdaH93t36nvDCS98rY41x/PVttjr29t0jk0PHKTXg7wXlezjXEMZmMLT185jz0/Ry8h8KrOf9zZ57/B+b/T73ppOzd+bVQaXDlb7gf282o0vu+GYkGnbpGy7Gfj6wAtyuFZhbbw3k1+VGX5fLvTvBV7TvZozfqs/JBEREVEhsYsDuuBhFRBzv1C5syfCZ9igvgi0bmeWMXlsUiFszjufYDNao0PWwooYjn1LNmPB5EShI7kY2BcddlOv7iiETFmsvmrs1sF8+ZqCRWow8UW2L/p1a4rNy972VzjJ5rB+2Et9kZ/h+DIz5QW/hSMHV/GotpW9kChW6PXTvAX2lIEaxz8H1491FqGs9d10N7307EpaoKmziPvW2/hkY1O0MF1NkotowrvY5uytMmfN14n8aoVaP/FeSqn5bZ7/vNnvzX741iqoCPyZvMixLwuzv79gL9Hf+nX28Prs283x/V8fa85tOWJf9WplWFQrRXNDimL2/qO3X+LYl+23ef4DaQtlKdPV+pslm9dZeHIuX+Wvi6Em/5yfn1N82d57LLLv2es+t/e2bObg7WXJhV/reFgU398yMqeXpxZf3IXLNO/d+r3BuS8qKcVMRxHTHMd6//Np+MBeaFo2w3/vxFz4fG9L+96YJ5lef84NY5O2VV3El64I3PeQvVzbzusPFUT1EwuHREREVLjsAuILZWh64BnJvVKy2bhBfeW0WdecSj7tyO7tolrSqU9ZHNZBfQ2XXiGO5yedwjQHq75VX24Os3tp9FVxq6nfrop/2ddfFu1Ck/ky6avHjh9S+FLRDKpufor0HNG9xOzn++7tVwtqIX45jTD+XNW8T59Lo2yDLlYPjvcAkx5Vm7FBKh1qLUhRePO3iT1Lk+e4ijNfr3FsT10wqa1eN0GzvmzHv5xLYW/jJ3jbUSzIvn7t9WXRPd3sQqcupCUKPVahLFHoDJa1/dKzpjc98IIs+XnQhdEaPF/LEl/W957g6UJlvNDlLirXknTv3fq94WusSioyWu+3vv8wkFGa47u21MJ7W52TXn3O+F2n1AdLev1ZPVDt13f+QXHP3dSadEyT5n1qPlH9w8IhERERke4Flej1VTNyupj6su08lUp6NpqpWeneW+rLcvxUwkRL6qVieko+88wF1mnLjl4mVi8jq5eQ9JJAbRZOdBFLeuy44/N5OqJhn3amT9tSGVyQr7tk1jT+ERPUl0UkbR996lyO4qdR6tOW7ddOU6TwLGhEl+6lZgrbUthLOo24Ftav9FKyegFJ4akWi+Y1Zm1f6bFn5xZvzuPXRRcs9B8Gqvd83/y+9wRKepiawq8UlZN63wbMo0Bfu8W+2ixCeqil9+a6Y50qDOf+Hejdt73Ypwyrpj63ceAFsE/z1z1Lk06RNi3lOpNE9Q8Lh0RERFTw9DUA1Rcu5+mM1umfOZ5+q1l39Ex80eyLy0ek9vpIv3zri7Pzuk/JTC8c55f7lC8u1umtJYdNxRkHfl27hRNTlLSuKZee/pLl63Rk68t0rvwv38Vn/On0bdda/eso4o2YkFOPQ/t0N+cXT2dRRp+aV3KEo/er+jI9sLZ7zVmnZ6Y7JS9wulegFLatwp7zuKvp+tXk9FL0whmTjkDrvPU2FO5TbVNveKCLmrn0bj7schyhFmDfITjn5yfJFl+29x5/qv/eaZEe01A5Tj2sde33NsxEvzeo/Acmjou+l57h/xqLPljHt+Oak7Wphu9ttmq/txrVfr7u8ersTW2997lVe/muwrD0bM743uK6BIP1B4+Atl1c9vfmeI/sfP2xjUhh4ZCIiIgKi/tUKNVS70KsTB5rXZg9ftqe6wL7aU3BWH3qs306odxIIPkGBFqG5etTeeWi9iY+q9k3KJBTPeE6ndA53ZBelM2boqnf64PFSTHBWqY+DSves9FevpzaZ27YEX9t1VJuMvMAFsiX2Pg89vOlR6bjearpmzHk2GMq/fKz8Rd/Oimve9gGzHDeqCB+g4YL9J1B4/uB+ZKnT8V0ne4mLX5KnNov9M1O4ts39S7BGWV5fYtaB5PldHZHHHn+EioFlJKBkltyYS/r+vXFFMhU/p+8k1vBJ3GatFVQs3uG+r0Gqo5fetCaZeAF140Q5LRyfcMNk59pScWI+DGn2nl74ZM7HMVlP8/PIFt8md97fEr73uY49nVByN7OrvdWU8BriuRT2IMn7w3Jp6p6fjbUhN5+su+b9aCbvX6zvffWzntzNtV/b7VU+/lvXY8H5DIG8XVzBDbIZTfMZFtNli+XMbD3S333ced7S8rvBtZ7b/zYU88fZm5GlJgnh+sjR+S9mchLrG3Ljhnvs1jcoBgNGzbQd1KpkLsyZhEriqFx40Z6XnmOX7/oXoJPl/rriizxlFdUoKoy+y0iwxq/xLV167bQ5BD1+EVQOUQ9fhG2HKIevwgyB+5D/nPgZ0F6zhx69+mNW2+/GX375fLVgUJLvtzoYoLz9DP5Qm7uphkvwFm9ieTOs/k7zZCy0XethXM7KfKFUt/pNiqnFIafFAAv6PYJbovYaYRRjbt2We9nctdw3wVzIip4FeVVKN9ahfsevBuLF32EO2+/x0xJVujfC/zm4IyfPQ6JiIiIokRf787NfXq0FKis6yyyaBgm3jenSDk9l2rmsMtxhlwn0XF3YIoOfXowFuABFg2JiEKBhUMiIiKiKEk5lVWafTor4qcCVuf0Xwpa6qmQ0mr9dMhCZZ8KeF4vfB2/4QxFhfTGjR8PvOEEEVFo8FRlF3ZDzS6M8Yugcoh6/CJsOUQ9fhFkDtyH/OfAz4L0nDnwVGUiIiIiqs94qnJ61cnBGX+sc8eu2aPKg04l7bGybLUZih7GX/e4Deoet0Hd4j5U98Ia/8GHlOKmm/+Bvn1ZOCQiIiKi+sdZOFz68SeYeM99ZkrdqE/fa4oqK6uQqVVVWXVF+ek1PbVV6vmhnuY93bv5X75asF52Zcp4rxbW+EWYcoh6/NKCyiHq8UsLWw5Rj19asDlwH/LTrGVzH0rfknMgIiIiIioEmX5frunv1H6b/+WrBZtf1cP03ca5bJ6q7MJuqNmFMX4RVA5Rj1+ELYeoxy+CzIH7kP8c+FmQnjMH+1TlQw9lj0MiIiIiqn+kwMVTlb1VJwdn/CwcunCnyC6M8Yugcoh6/CJsOUQ9fhFkDtyH/OfAz4L0nDnYhcPeB/zaTCUiIiIiqn9YOExVnRyc8fOuykRERERERERERJSChUMiIiIiIiIiIiJKwcIhERERERERERERpWDhkIiIiIiIiIiIiFKwcEhEREREREREREQpWDgkIiIiIiIiIiKiFCwcEhERERERERERUQoWDomIiIiIiIiIiChFbMCAAVXmMREREdVDPXv2xIUXXIiDeh1ixhARERER1T/3P3QP1q5bg2nTppkxVFOxti07ZiwcFjcoRsOGDbB9ezkqyivM2PRiRTE0btxIzyvP8esX3Uvw6dIyM5SZxFNeUYGqyuw1z7DGL3Ft3botNDlEPX4RVA5Rj1+ELYeoxy+CzIH7kP8c+FmQnjOH3n1649bbb0bvA35tphIRERER1T/3PXg3Fi/6CHfefo8Zk6zQvxf4zcEZP09VJiIiIiIiIiIiohQsHBIREREREREREVEKFg6JiIiIiIiIiIgoBQuHRERERERERERElIKFQyIiIiIiIiIiIkrBwiERERERERERERGlYOGQiIiIiIiIiIiIUrBwSERERERERERERClYOCQiIiIiIiIiIqIUsY7tSqrMY0+xWAxFxUWorKhEVVXGWTWZo0GDYj2vPMevkq4dUbb8SzOUmcRToZYdM8OZhDV+iau8vCI0OUQ9fhFUDlGPX4Qth6jHL4LMIerxi3zlwM+C9Jw5lJb2wc233IjevX5tTSQiIiIiqofue/BuLPnoY9xz171mTLJC/17gNwdn/LHOHbtmf5U86FTSHivLVpuh6GH8dY/boO5xG9Qt7kN1L6zxH3xIKW66+R8sHBIRERFRvSaFw6Uff4KJ99xnxtSN+vS9JrZ76z0yFg6liimVSal8+qpMxoBGjRrqeeU5fnXp1gkrlq00Q5npeCrUsn2UPMMav8S1bdv20OQQ9fhFUDlEPX4RthyiHr8INAfuQ2YoMx0PPwvSc+TQp7Q3/nXrP9H7ABYOiYiIiKj+ksLhR4uX4K47JpoxyQr9e4HfHJzxx9q27JgxrGIVTMOGDbB9ezkqfLxArCiGxo0b6XnlOX79onsJPl1aZoYyk3jky2JVZfY1Gtb4Ja6tW7eFJoeoxy+CyiHq8Yuw5RD1+EWQOXAf8p8DPwvSc+bQu09v3Hr7zdi6bauZ6k1Oe/BzukOC+i3Ez283cUHPH3QOUY9fhC2HqMcvgowp6vGLfOSQizDGH65tUJj7UC6vEfX4RdhyiHr8IsiYoh6/yEcOCU9Oexp33n6PGUpW6N8L/ObgjJ+FQxfuFNmFMX4RVA5Rj1+ELYeoxy+CzIH7kP8c+FmQnjMHKRw2adLYTEmvXYc2WLNqnRnKrLjY+suoXj8+fqmTeeU5FWqb+fvLaEznK/PKc/wKKoeoxy/ClkPU4xeB5sB9yAxlpuOpVLFwH/JWjRwKcR/ym0PU4xdhyyHq8YtAc+A+ZIYy0/G4PgtmvT7bPEpW6N8L/ObgjJ+FQxfuFNmFMX4RVA5Rj1+ELYeoxy+CzIH7kP8c+FmQXnVyKMR9yG8OUY9fhC2HqMcvgsyB+5D/HPhZkF51cijEfchvDlGPX4Qth6jHL4LMgfuQ/xz4WZBedXJwxl+k/yUiIiIiIiIiIiJyYOGQiIiIiIiIiIiIUrBwSERERERERERERClYOCQiIiIiIiIiIqIULBwSERERERERERFRChYOiYiIiIiIiIiIKEWRIv+kbbFYTM8oP72mu1uu89sNqPIc79Vk2UHFk+v8dss1/lxeI+j5pUU9fmlB5ZBrPLnOb7dC2gZBx5Pr/HYLyzbIddl2K8TjOKh4cp3fblHfBoW4D/l9jVzjyXV+uxXSNgg6nlznt1tYtkGuy7ZbIR7HQcWT6/x2i/o2KMR9yO9r5BpPrvPbrZC2QdDx5Dq/3cKyDXJdtt0K8TgOKp5c57db1LeBM/5Y545dq/QS6linkvZYWbbaDEUP46973AZ1j9ugbnEfqnuMv+5xG9Q9boO6xX2o7jH+usdtUPe4DeoW96G6V5/ij3VsV5KxcKgrksVFqKyoRFVV9hqjzNGgQbGeV57jV0nXjihb/qUZykziqVDLtmqmmYU1fomrvLwiNDlEPX4RVA5Rj1+ELYeoxy+CzCHq8Yt85cDPgvSqk0Mh7kN+c4h6/CJsOUQ9fhFkDlGPX+QrB34WpFedHApxH/KbQ9TjF2HLIerxiyBziHr8Il858LMgverk4Iw/1rZlx4yvUqwW3rBhA2zfXo4KlUQ2saIYGjdupOeV5/j1i+4l+HRpmRnKTOIpr6hAVWX2FRTW+CWurVu3hSaHqMcvgsoh6vGLsOUQ9fhFkDlwH/KfAz8L0qtODoW4D/nNIerxi7DlEPX4RZA5cB/ynwM/C9KrTg6FuA/5zSHq8Yuw5RD1+EWQOXAf8p8DPwvSq04OzvjlxGUiIiIiIiIiIiKiJCwcEhERERERERERUQoWDomIiIiIiIiIiCgFC4dERERERERERESUgoVDIiIiIiIiIiIiSsHCIREREREREREREaVg4ZCIiIiIiIiIiIhSsHBIREREREREREREKVg4JCIiIiIiIiIiohSxzh27VpnHdapTSXusLFtthqKH8dc9boO6x21Qt7gP1T3GX/e4Deoet0Hd4j5U9xh/3eM2qHvcBnWL+1Ddq0/xFzdv1uLqqiogXROxWEw9rkqZ5t2q9PxQjyvV4+Rp6dvOLZrh++82ek5zt5j6r7Kq0nOau4U1fvm/sjI8OUQ9fmlB5RD1+KWFLYdC24ek5ZYD9yGvae4mOfCzIFPLPYdC3If85hD1+KWFLYdC24ek5ZYD9yGvae4mOfCzIFPLPYdC3If85hD1+KWFLYdC24ek5ZYD9yGvae4mOfCzIFPLPQdn/LG2LTuqH+kVNyhGw4YNsH17OSrKK8zY9GJFMTRu3EjPK8/x6xfdS/Dp0jIzlJnEU15RgarKjKFrYY1f4tq6dVtocoh6/CKoHKIevwhbDlGPXwSZA/ch/znwsyC96uRQiPuQ3xyiHr8IWw5Rj18EmQP3If858LMgverkUIj7kN8coh6/CFsOUY9fBJkD9yH/OfCzIL3q5OCMn9c4JCIiIiIiIiIiohQsHBIREREREREREVEKFg6JiIiIiIiIiIgoBQuHRERERERERERElIKFQyIiIiIiIiIiIkrBwiERERERERERERGlYOGQiIiIiIiIiIiIUrBwSERERERERERERClYOCQiIiIiIiIiIqIULBwSERERERERERFRitiAAQOqzGMiIiIiIiIiIiIiLda2ZceMhcPiBsVo2LABtm8vR0V5hRmbXqwohsaNG+l55Tl+/aJ7CT5dWmaGMpN4yisqUFWZveYZ1vglrq1bt4Umh6jHL4LKIerxi7DlEPX4RZA5cB/ynwM/C9KrTg6FuA/5zSHq8Yuw5RD1+EWQOXAf8p8DPwvSq04OhbgP+c0h6vGLsOUQ9fhFkDlwH/KfAz8L0qtODs74eaoyERERERERERERpWDhkIiIiIiIiIiIiFKwcEhEREREREREREQpWDgkIiIiIiIiIiKiFCwcEhERERERERERUQoWDomIiIiIiIiIiCgFC4dERERERERERESUgoVDIiIiIiIiIiIiSsHCIREREREREREREaWIdWxXUmUee4rFYigqLkJlRSWqqjLOqskcDRoU63nlOX6VdO2IsuVfmqHMJJ4KteyYGc4krPFLXOXlFaHJIerxi6ByiHr8Imw5RD1+EWQOUY9f5CsHfhakV50cCnEf8ptD1OMXYcsh6vGLIHOIevwiXznwsyC96uRQiPuQ3xyiHr8IWw5Rj18EmUPU4xf5yoGfBelVJwdn/LHOHbtmf5U86FTSHivLVpuh6GH8dY/boO5xG9Qt7kN1j/HXPW6DusdtULe4D9U9xl/3uA3qHrdB3eI+VPfqU/yx3VvvkbFwKFVMqUxK5dNXZTIGNGrUUM8rz/GrS7dOWLFspRnKTMdToZbto+QZ1vglrm3btocmh6jHL4LKIerxi7DlEPX4RaA5cB8yQ5npePhZkF41cijEfchvDlGPX4Qth6jHLwLNgfuQGcpMx8PPgvSqkUMh7kN+c4h6/CJsOUQ9fhFoDtyHzFBmOh5+FqRXjRyc8RdVVlYiU7O7PeoujR7T3S3X+e0mmXiN92qy7KDiyXV+u+Uafy6vEfT80qIev7Sgcsg1nlznt1shbYOg48l1fruFZRvkumy7FeJxHFQ8uc5vt6hvg0Lch/y+Rq7x5Dq/3QppGwQdT67z2y0s2yDXZdutEI/joOLJdX67RX0bFOI+5Pc1co0n1/ntVkjbIOh4cp3fbmHZBrku226FeBwHFU+u89st6tvAGT9vjkJEREREREREREQpWDgkIiIiIiIiIiKiFCwcEhERERERERERUQoWDomIiIiIiIiIiCgFC4dERERERERERESUgoVDIiIiIiIiIiIiSsHCIREREREREREREaUoUuSftC0Wi+kZ5afXdHfLdX67AVWe472aLDuoeHKd3265xp/LawQ9v7Soxy8tqBxyjSfX+e1WSNsg6Hhynd9uYdkGuS7bboV4HAcVT67z2y3q26AQ9yG/r5FrPLnOb7dC2gZBx5Pr/HYLyzbIddl2K8TjOKh4cp3fblHfBoW4D/l9jVzjyXV+uxXSNgg6nlznt1tYtkGuy7ZbIR7HQcWT6/x2i/o2cMYf69yxa5VeQh3rVNIeK8tWm6HoYfx1j9ug7nEb1C3uQ3WP8dc9boO6x21Qt7gP1T3GX/e4Deoet0Hd4j5U9+pT/LGO7UoyFg51RbK4CJUVlaiqyl5jlDkaNCjW88pz/Crp2hFly780Q5lJPBVq2VbNNLOwxi9xlZdXhCaHqMcvgsoh6vGLsOUQ9fhFkDlEPX6Rrxz4WZBedXIoxH3Ibw5Rj1+ELYeoxy+CzCHq8Yt85cDPgvSqk0Mh7kN+c4h6/CJsOUQ9fhFkDlGPX+QrB34WpFedHJzxx9q27JjxVYrVwhs2bIDt28tRoZLIJlYUQ+PGjfS88hy/ftG9BJ8uLTNDmUk85RUVqKrMvoLCGr/EtXXrttDkEPX4RVA5RD1+EbYcoh6/CDIH7kP+c+BnQXrVyaEQ9yG/OUQ9fhG2HKIevwgyB+5D/nPgZ0F61cmhEPchvzlEPX4RthyiHr8IMgfuQ/5z4GdBetXJwRm/nLhMRERERERERERElISFQyIiIiIiIiIiIkrBwiERERERERERERGlYOGQiIiIiIiIiIiIUrBwSERERERERERERClYOCQiIiIiIiIiIqIULBwSERERERERERFRChYOiYiIiIiIiIiIKAULh0RERERERERERJQi1rlj1yrzuE51KmmPlWWrzVD0MP66x21Q97gN6hb3obrH+Oset0Hd4zaoW9yH6h7jr3vcBnWP26BucR+qe/Up/uLmzVpcXVUFpGsiFoupx1Up07xblZ4f6nGlepw8LX3buUUzfP/dRs9p7hZT/1VWVXpOc7ewxi//V1aGJ4eoxy8tqByiHr+0sOVQaPuQtNxy4D7kNc3dJAd+FmRquedQiPuQ3xyiHr+0sOVQaPuQtNxy4D7kNc3dJAd+FmRquedQiPuQ3xyiHr+0sOVQaPuQtNxy4D7kNc3dJAd+FmRquefgjD/WtmVH9SO94gbFaNiwAbZvL0dFeYUZm16sKIbGjRvpeeU5fv2iewk+XVpmhjKTeMorKlBVmTF0LazxS1xbt24LTQ5Rj18ElUPU4xdhyyHq8Ysgc+A+5D8HfhakV50cCnEf8ptD1OMXYcsh6vGLIHPgPuQ/B34WpFedHApxH/KbQ9TjF2HLIerxiyBz4D7kPwd+FqRXnRyc8fMah0RERERERERERJSChUMiIiIiIiIiIiJKwcIhERERERERERERpWDhkIiIiIiIiIiIiFKwcEhEREREREREREQpWDgkIiIiIiIiIiKiFCwcEhERERERERERUQoWDomIiIiIiIiIiCgFC4dERERERERERESUgoVDIiIiIiIiIiIiShEbMGBAlXlMREREREREREREpMXatuyYsXBY3KAYDRs2wPbt5agorzBj04sVxdC4cSM9rzzHr190L0HZ8i+x36/2NWPSa6BiqqioQJWPkmdRcZGev1zFU1lRacamF4sBDRs11PPKc/zq0KkdVq1cY4Yyk3gkru3btocmhyjEv+D9D8wjb7IPfbq0zAxlJvu07Ntbt25DVWXmJPJ5DAQRvwhbDlGPXzhzOOigA83Y9HI5Dqr/PtRWHcdrzVBmYXwfErnmEL7Pgmhvg9qIf96775lHycJ+HPOzIBU/C7ILMocoxL9Pk61mShpFQKOGDdV7daWvbWZrr96LVvt8L5KYKirVsrO/Leb8Ppqv+ItVXNu2bw9NDlGPXwSVQ7r4F29pbB4l42cBPwu85JID9yH/OZTL9wLuQ56qk4Mz/tAVDhcv/UC9Eft/HhWGkcPOwHvz5pshb0EdmHxjqf0coh6/cOZw7nln4axzzjRTiArXsFNOZ+HQ4GdB4X0W1HYOUYj/2ZIvzRSiwrV0a2Nc+lVrM5SMnwX8LPCSSw7ch/znwMJhetXJwRl/KAuHxw/6PT5estRMoUK3cPF8nHH6mSwcOoTxjUX4zSHq8QtnDlI4vPCv56NJkyZmKlHh+eGHH1g4dOBnQeF9FtR2DlGIXwqH3boBzZqZGYgKzFdrgNllLBx64WdBernkwH3Ifw4sHKZXnRyc8fPmKERERERERERERJSChUMiIiIiIiIiIiJKwcIhERERERERERERpWDhkIiIiIiIiIiIiFKwcEhEREREREREREQpWDgkIiIiIiIiIiKiFCwcEhERERERERERUYpYx3YlVeaxp1gshqLiIlRWVKKqKuOsmszRoEGxnlee41dJ14748vM1+GDRezh+0O/x8ZKlZgoVuoWL52PMX87G/PfeN2O8yT5UtvxLM5SZ7NOyb5eXVyBmxqWTz2MgiPhF2HKIevzCmcM5547B+ReeiyZNmpipRIXnhx9+wOnDz8B78+abMcnCfhzzsyBV0DlEPX4RZA5RiP/JDmXo1g1o1szMQFRgvloDvPl5E1z5dTszJlnU34dE0DlEPX4RZA5Rj1/kK4cKtWzuQ96qk4Mz/ljnjl2zv0oedCppj6++XIf5H8xl4ZCS/G/xfJw15ly8P3+BGeNN9qGVZavNUPREPX5RqNtgzNmjcd7557BwmMF/r43hkKvMgHYd3qm6HAebIYo+KRyOOn101j/yBI2fBXWP26Bu5TP+x9suZ+HQmKve+vq9B4w/Hri0jRmZR2uXq23/uhnoAqw8CmhrBik4Ujh864smGPdtBzOmdvCzoO4x/rrHbVC3nPHHdm+9R8bCoVQxpTIplU9flckY0KhRQz2vPMevLt064YvPvsKHS95n4ZCSSI/D0aPG4L15mb+Myj60YtlKM5SZ7NOyb2/btt0qv2eQz2MgiPhF2HKIevzCmcO5552FCy46j4VDT//F9bFDcIUZcrvuv1W4vNQM1BIpUr5xVO0uN4hl1jdSOBx+6p/T9jgM+3HMzwIP/CzIKtAcIhD/M3t8wcKhUd3CoTxvdocaFhs3Ayc9AjxnBlk4zB+rx2FjXLYmzdrmZ4EZSi/q8YtAc+A+ZIYy0/FUqGVzH/JWjRyc8RdVVlYiU7O7PeoujR7T3S3X+e0mmVg/iVJVVmbfn+x9yE/LZT/NdZ/OdX67BRW/tKDnt5vfHIKOJ9f57VbdbWA/plT/vdYUDX//b6wx66qq6h1cp6cCV9zyGNaaxzW3Fo+d5O7ZWFNBLLP+ynTMOY8Zr+nuluv8duNnQfoW9Px2K9TPAq/p7pbL/Lku2275jL++m/YacMM6M+BFTWuk5pHPsdIDgG1n5lYAlOVLsbHWSMFQxbAtD0VD6eHYKEsH8xvuVTluNgP1mBwW7mPFbrkeY3bjZ0H6FvT8duNnQfoW9Px2yzWHoOLJdX67RX0bOOPnzVGIiCgg/8UbuuB2Hd558k+OLzEH4/Iv/42h7vGrHsMJsZi+ZofVrldLSJBefzL++rlWMS8+37Uyl4xrh1Oesua94mA1/iS7KOma37ncudenjLNfJ3btixmWSURE9ZL03rsXaKTasBVmnIv0EpTpjZ41IxR7nF1odA5LgVDPL80U22Scvfxxajl2AVIkza/aXDNeSDFOxk2Twp09j93bUC2vkxp2x+BszmU5c9XNEYMmhVHH9JPUayZ5LzEtabkOw1Rsns8lIqLIYOGQiIiCsaoM+sqkvy9BiR7h0OFPeMZ5jUMp4HU8BdPNoOUKHBI7AY+tMoPGFQcninnaVYfg+nTfWHTR0DW/Xq4pFJZejneuMeOkAKnisHoXXod3rjxQHhARUQHQPeikCOY45fdtVw9Cu2hn9xIccmT23n1SFEwqQKrnZurF6Cwo2vp5FOaG2dczbG9+ukg+Xr0Z+5nCZcrpzUIKj3bxUIqGjsKoeE69pl0AbNtV5X6aWgfWoI5R1o0zt0vV+nv7IOuxPFevX3dxkoiIQo+FQyIiCsaqMlchMJ21eOwWcxXEa97RXeilWQW96ThlUrx/oCV+2vMa/Pv31qgFZcCfnkwMy7UTq6Q349yHrKKh41TpNY8NVSOuwITHra8uB19pTp2+6hDEDrbiuO6/UtRs671Ma5CIiOoJKQjaNxaRaxTKKcfS7Mva2kXFcTJgnw6s2pNd9eTMHPNPVY/FB5uAk49KDOvXlALkOlM0dDxn5ZHWPLe4euzpoqXMM1A1u4BnnifFTl3YM8vQTb2G9p1VuJu71BQND0rMo+NRr//mZmDahzIxeX2MV8NSAIwXMZuqdWCm2QVCd+9J+xTueIxSnHQVGImIKNxYOCQiojpWhjLdI1B6+SXus3zwSDmdWbnqjaRTloceP8AU79piwPF6jrTWlpm7sT91CtqZU5Xb/ckqZ05fXqZ/6lOn/2tfdVEt/7E1vAkKEVGBkqJeRiuAz81DP4aUJHokHp7S/T7ZWvu1TXFNipV2QfO5H6yftqHtzINspOegLMvVe/Dz76yfU7tbP4UUM6XId3JT9cksBUxFFwJNLLpwqnxeANctJCKiBBYOiYgoGKUDrJ58Tz2DN1ynG1vXM0y+hqFfvUpqv89fvMCoTH/2DZ5GRURUQOSUWrtnX/yUWtXsnnV27z3pcSfs03L9XLdv/2bmQS3r3NQ8SMPuJXnSJtPjz+5xWJsc10i0T4uO9560BhPXWbRPi3b0iiQiomhg4ZCIiAJyMAbYpxtf5LypyFo8dpFcz/AKHKJvNlKCEn06sLnOoPHfSeaah9cMSFwLMaO2KNnXPDTalvSyHiTd1dk0u3fjqsdwtumFqD11Cs42pzF7LZOIiOqf+Km9ruv2ua/ZJ/MkXbevBtfs67yreWC0tYuMjlOV4+0AM82nSaanot0zMd6b0bBfe9hS66ewb8oiOZfIacuK81Rlu0mPRF2YdF0PUqa5rwmZdD1ImSfLNSGJiCh8WDgkIqLAxK8f6DhVOBZL3KzkuovkmoFt8aeLzKnCcp1BM591k5Kh+PdIf2VDp/gdkEv/bF2jMOn1rWbdUMUuYlqnKFfpuz0D0/90tsdNWcwyzTAREdVDjuv22dcgdItft6+WevHFrwvYJnGdQftUZbvlek1Au/Bn39XYPuXZVtrdFEjfS7yGfVOW/iqOk/ezHjtPVdbNWSh1XB8x3RU+pp5mTfd1PUgiIgolFg6JiChAB+PyKvtGJ07X4R01Pn4twdLL40W7BJnnGfypgxn04eCjEtcqxFNlKJOipOMGJza50Ym89trHz47fPOXuP7a17vasr3eY6CWZukwiIioEcs2/jKfUqmk16UFX6vx8M9dOdN40xSa9/nI9tffkQxI9J4UU8Jw3P9EFUkfvSpv0HNQfzZKbuzCqnr/S5Kt7aGbpBSk9NKV3IhERRVts99Z7VJnHnoqKi9CgQTHKyytQWVFpxmYQAxo1aqjnlef41aVbJ3zx2Vf4cMn7OH7Q7/HxEke/eSpoCxfPx+hRY/DevPfNGG+yD61YttIMZSb7tOzb27ZtBzIeAfk9BoKIX4Qth6jHL5w5nHveWbjgovPQpEkTM5Wo8Pzwww8Yfuqf1Xv1fDMmWdiPY34WeOBnQVaB5hCB+J/Z4wt06wY0a2ZmICowX60B3vy8MS5bk6Z8zM8CM5Re1OMXgebAfcgMZabjqVDL5j7krRo5OOOPde7Y1UdYwetU0h5ffbkO8z+Yy8IhJfnf4vk4a8y5eH9+4uYFXmQfWlm22gxFT9TjF4W6DcacPRrnnX8OC4dU0KRwOOr00Zj/XuY/8gSNnwV1j9ugbuUz/sfbLmfhkAqaFA7f+qIJxn2bw+kRPvCzoO4x/rrHbVC3nPEXVZRXIFOzq5fy02u6u9nVS7nwvNf0dE09wfpJ5CKVbT/7n70P+WmyfwrZX72mO1u+jwE/LZf4pYUth6jHL82ZQ1Wl9Zio0GU6RsN+HHtNd7aoxy8tbDlEPX5pQeYQhfiJSB9yKceK3aL+PiQt6ByiHr+0IHOIevzS8pVD1OMXYcrBGX/R9u3lyNQqKq2A5KfXdHerkO6hiiTgNT1dk/UkPwvFdTMXYenM8frxyEffwdIFD2KkHqoN43HdjeZhPSE7unufcTd7H/LT7ANN9lev6c6W72PAT8slfmlhyyHq8Utz5lBp4iMqdJneq8N+HHtNd7aoxy8tbDlEPX5pQeYQhfiJyPoi7j5W7Bb19yFpQecQ9filBZlD1OOXlq8coh6/CFMOzvh5c5QQmHTqIejeaxQmmeGaGY+Xlg/F/maIiIiIiIiIiIioOlg4JCIiIiIiIiIiohQsHAZqOCYvWISly+32DiZ7nI+ccqryyAcxL/4c1cwpzZqeppZzY/I8L+lTk63ehl3Uoy4nup5HBU2uwSfXJvB9LT41m8zPU3CJiIiIcrQZOOleoJGjzTWTiIiIooaFw8BI0XAsSvEubuq6L7qrdpP6jaH08udxnZnD043PY+nlPbDkeus53btOwNxWQ11FwGYoPRqYGF/uJnQ5UZY7Dsd1nY4Vao4VT6tpx4yzZqeCJwVAuTaB30Kgfa2WCnOthfpshx12wCWX/w1t2rQ2Y4iIiIiqSYqGjwDPmUFbP1fxcO77wA3rzEANTXtNNfW6REREQWDhMCgj+6JH802Ye2fi2oX6WoZdB+MKM+zluv33xMa592FE/IKHUzDiznexsctRSb0VV7zqWO6sJdiIVuhQe3dXISoYzZo1w+7t2mHWWzMx+szRaNW6lZlCRERElJu1a0zR8CBg25lWs//8P9sUCqXQ1+8963FN3XAvMEx6DRAREQWEhcOg7NUKzbEeq3K648lwdGgFNC8dmzhNWdrlfdSynDZh/SfmIZGS8c7c0ot1eZaergXs66+/xnnnXISThv4Jbdq0weuzX8FlV1yM3Xbb1cxBRERElKP3Ej0MLzUFxEvbWEVDu9A37lmgkRpeqx5LAVBOaZ62PPn0ZumZaA87xwt5jn1+0bBH1DQ1r7Yuef6T1DKTOKfLc+xheWyfZm3iskncMg97NhIRFR4WDkNlT7RqDmycO8Gcpuxshzh6IRJRbVuy5GNcM/4anHLycHTpuidmvfUqLr7sb2jRooWZI732Hdrj559/xvr136Rt30j7xvrpNd3Z4vOq5jU9Xfv22289x3s1e/l+4pGWS/zS8paDx3ivFtr4Q5ZDTeL/+ect6L73XuaoICIqTG3bAUPMYzk92V2Ay2bY6+ZBF6Dpcu+eif3sAqEXKQI+ax4bz6llxouH7ulq+Sd9aB6LpsBQuWD6CuBNu0iofk6XYqcaf7iaTkREhSXWtmXHjHdLKG5QjIYNG1jXOyuvMGPTixXF0LhxIz2vPMevX3QvQdnyL7F46Qc4ftDv8fGSpWZKRMlNTPS1Cr0LftfNXIQTMV1fh1B6i13cYwlu6jUHh8l1Eddb4z15LTdpnHWDFDy9L467xEyPuIWL5+OM08/Ee/PmmzHeZB/6dGmZGcpM9mnZt7du3Zb1hiH5PAaqG39iH0qcwh4nPQ5PVLtEltPka4PfHHJZ/6IutsGveu6HC/96Hnr2/BX+/ejjePD+SdiwYYOeJpw5nHveWdhn330w5+3/mKmpilRMRcXFqKyQm85kyTkGNGjQAFUVlajI4QY1rVrvivVff2eGMisuKkKsuAjl5Wr9ZN8EucUv8pRDRZVadoTjD9s2qEn8l195CYadcjrmvet9/l0U3ksziXr8Imw5RD1+EWQOUYj/2ZIv0a2bXPbDzEAWj+KdPnX5AOuh3etw/PFWL0Rh9x4cciTwZFdrXAp7uV2AlUcBbdVD+3lTTwNObpp52W+fqf553xQjPeKxx61dDnR6PRGLe5gSvloDzC5rjEu/8r5WNj8L+FngJZccuA/5z6Fc/Y7MfchbdXJwxs/CYWDMzVGcRUBHgW/VyV6Fw1GYpIs8e+qbm9iFPz29dL1V+MlaOLRet8eSCeh96hQzQ7SxcJjKHb//wqHZL+Pnvm/CXOe+pOiitvylWUudnonfHHJZ/6Iut8EBB/bCRWPPx949uuPRqY/hoQcn44fvf0jK4exz5Ddx4K47JuqfXnLJoVA/nESuOfAXhPSqk0NN4pdLa7BwmMDjOHsOUY9fBJlDFOJn4TAzOc3Y2WPQLrxlKu7ZBcAk7kJkhsKhPexF5sE71msnvY69fLuYKKcryw1ezOu8aeL1jK3AsXCYHj8L0sslB+5D/nPg94L0qpODM/5Y545ds0eVB51K2uOrL9dh/gdz60nhUKQv0nj3ODRFH1M8TPgs0Vssa+HQLjSq3+A2vutdSIqY/y2ej7PGnIv35y8wY7zJPrSybLUZip7qxC93P966ZZvvwiEc+51Ifp5HsVs/txXeveHXGP1YI2tcBvV5G/Qp7Y2zzjkTXbt2xWOPPo6pUx7Fpk2b9LQzx/xF/7x34v36Z12J+voXhXgch0lN4l+4aD5GnT4a89/LdA5d8LgP1T1ug7qVz/gfb7uchUMf4gVEU5jL1iuw1BqV2tPPR4/DWikcKnaMU1WM09U0u4gor0kJUjh864smGPdtBzOmdvCzoO4x/rrHbVC3nPEXyelOmZoUJoT89Jqe2szpUOpp3tO9m738+mUKRvTyvk7hFceoYVOc0XdbdhZ8LhnseI40xymmk0aht/t6h65x1t2b1fPqQdFQyF4hVXf3PuNu/vdRtUSzq8n+6jXd2fJ9DPhpzvj9s26+45S07+k7gX+Gp+2ioVD74tMrmqHPH65OicGr+c0hl/UvLQzb4L/vvIvT/jQSf/vrJTj416V45dUXcOZZf8GOO+6gn5ctttxyyO8+5DXd3XKLX1p+coh6/CJMOdQkfuux97zS8hG/tJrkkKlFPX5pYcsh6vFLCzaH8MdPqaTgJjcRuWGdGaF03tk8MDr7vP/aJHO9w6HtrJ9rrb9XJimJnyVisYelKGnf1dluUii0X3uYo4/GNOc1Do3DS6yfw6RoqH4OUcMsGqbnPlYSjZ8F2VrU45cWbA7ch/w0a9nch9K33HNwLpunKlPoLfp4Acpl/6uw9r+zx5yPd+fO049btWqpCziiqLgIDz0wGXffmThd9Olnp6Fz5z3048WLP8KI00bpx7JP//3SsTj++MF6WPQ9pL++uL844sj+uOnmf+jHcp2wi/92Gd6c/bber5vv3BxvvDnTmqY89u9puGXC7WZIDT8xFd32+oV+vOyTT/GnPwzTj8WFfz0fp5x6shlSr3P4b/DDDz/ox3845QT8bexY/Vhc/PfLMeu1N/TjJk2a4D//na0fi+nPPIdb/nVbvCuz71OVk3qzuk5DTunp6rDqDTz25te45urrzQjgvgfvwQEH7K8ff7VmDQb9dmi8O/MZo0/H6DPP0NPE4IEnYvUq668VPff/FR6cpH6jFurd57prbsBzz86whpX/vjcHDRs00I//7/9exRWXjou/D0245SaUlvbR0+QmDscc+Tv9WAwbcSrOO/9sMwScesoIrPh0hX4f6vHLvTH10YfNFOCfN/0LT0572gwBb/2/WWi64456H3pdrfO///VSMwX416034bDD++nH0sOwf7+j9eOT//h7XHrFJdi2dSsWLPgAiz5czFOVHXhKQnZh3AY1iZ+nKifjcZw9h6jHL4LMIQrx81TlVHYvQS92D8OkU5hNTz751cjd4zB+7UE3R++/pHmkx2AH12nNNvs57tOelSFq2nOyDEePw/jpymaQpyl746nK6fGzIL1ccuA+5D8Hfi9Irzo5OONn4ZBC738fvY9b/3U7PvlkmR5e8tHH+hpzolGjRjjgoF76cYeObfHufxdg5Rcr9bCQItUOO+6gH/+46Udd3BGyT3f5RRfsuuuu8Wr9u/+dB7sSv9tuu6Jbd/WbsCI3AFixYgW+/vobvV/LzQYO6nOgnibWqN8YPi/7wgzJa+6HnXfZGZUVldi4cRP+tzDxZ9zOJXug3e7mz8bKe+/Ot24soBzQ+1do1NCKVSxb+qkujokiFUOfg3vrx+Lbb77BypVfJt5YpOh39Pr0hcOUac7T6K0C4ltHyCnu5lqaep6Epjs1Rbu2bbF8eeK311/u00MXUcXWLVux4P0P4m8uHTp2QMdOiVM2Pnh/IbZssYqyzZs30zcekSKdvEdIcW/duq/1NFF6cB/9PiLkbq2fLlsefx+S04SbqeeL7du2J50S2b797ujUuZN+HIvF1HvIx3qby2vstNNO2PdX++hpouyzz7F2TeIeh31KD9I3nZB96MOFS/DJUmtfE92774UWu1l3VpbtL/FIYfSU0/6olr0d99/3EHZquiO2qXhYOEzIVw78BSG96uRQk/hZOHRRb2PF6n1Flhv/K68PO+/STH3GeXQr8iCfDbKe9B/Wsu9CodsGuax/EfV9SOSSQxTiZ+EwDY/inPO0ZPd0KRbO9igcehXv3KcaJxUq0xUHHYVGzTndWWx0Fg6VeIHT/XyKY+EwPX4WpJdLDtyH/OfA7wXpVScHZ/wsHFLo8eYoqVLi19e5bIVXPYp+zutppnLcTGfVUH09w1xuhuLmN4dc1r8IwzaQYvCfR43AqcP+pHumTp30CJ588ml8//0PvDmKh3zlwF8Q0qtODjWJn4XD8AvbNshl/Yuo70MilxyiED8Lh9HjVQx0X4PRZo/n3ZTTY+EwPX4WpJdLDtyH/OfA7wXpVScHZ/xF+l8iirZJc7Bk4544ccGDGGlGaTc+jxO7bMLcaVI0lCLhIiydOd6aJvR1DTdhyawpwCXTMXdjM5Se61zGeLy0fBHmPTrcDBce6SF53gXnYNab/4fjhw7GHbfejQH9jsbDD03Gzz//bOYiopoa+efhGDxkoBkiIqIglNonhKwAOt0LfT1G+7Tp8c77e2wGbjHj7WssEhFRYWLhkKhesG7E8/T6Prh4+SLd80e3pB6EMs90rOgyNDH98j5Y/7Rz+gTMhXMZQ9Fq7gT0PnWKzFBQdtxxR5x1zmi8/uZMDD1xCG791x36mpSTJ03F1q1bzVxEVFNHHn0EnnvhaYw4fRhuuOk63PvA3di7R3czNQqsP7C8dKMZJCIKszbAyiPNYwfnqdTS07CROUVaxvPahkREhY2FQ6J6RN+tO+mO3O7TjsfhuKTp++K4S8wkzX0n8H0LrmjYZIcm+MuZozD77Vdx4u+H4pYJt+HIw3+Dfz/yOLZt22bmIqKa6r73Xrjrntt0e/utOTiq/7E4+sjf4sdNm/DsjKfw17EX6GvKEhFR7WrbFSl3XI5ff1EpPcB7PBERFSYWDomIlCZNGmPoCUOtguFJQ3HzTbfgqAG/xbTHnozfwKZO3Tge15mH1VYbywiIXIsz6TR6ITf2ifd+tVpqr66rcV1Ne3qFeL3UR02bNsXFl/1N9zLctn07jjtmsL4zvRTmV325GmMvugRnjT4XfQ87FDNenI7fDfyteSYREREREeUbC4dEVNDkztzDR56GWW/OxNFHH4Wb/jEBxx71Ozz91HTrTqVhIAW0E3uagWqqjWXk0chH31HxAk87er92v/5dtDrRec3NcXhx2VDsb4aqJWLrJepO/uNJmPn6izjwwF4YPepsXHT+37BixWdmasIbs97EkIEn4plnnsU/broOE++/S/dQDLUOD2JeuiK33MDKMU03Z6HcXSR3F9FTmGvWOp+z/HkWwImIiIio1rFwSEQFbdddW+ibnvzj+n9izJln4blnZ6CiotJMpboxHIf1aIaNc6cn3yV80ihMnLsJzXv0Tb4JEIVev8P6YtqTj+LMs/6Ce+6+D78f+ke89ebbZmp6Dz0wCb89ZhB+2rxZ91C8aOz5KC4uNlPDpUup3NneFLmf/gxdTnwHk/WOOh4v6evJOorgajq6DLWKi1JU1Nejtadb16LNdM3E62aORen66YnlyXOwJ07MWnAkIiIiIsoNC4dEBUBu1964SSP90w99u3Y1fyFcX2zt2nW6Z9NLL7yMqqrst74PjnWDBek59PGyD7Fw0VNqjKJ7xO2pHuyJE9U0KSbo3ngzH4z3OLJ64A3H9U/McPQ+cvRA8liGNmwi5qnXis/vKjro1zHTPlr6LO5/aDY+mnc/RpreU8mFjcw3iPA8FTmL5q0k5mSTTj0E3XuNwiT1es9/PARd1LguJ5pl67iex2Q7bnOXcXntj5YuVOt0vv65dLkp6KRbL7IcvQ3mY9HHH6TG7eo99tKjMizLNNvANX91cq8v9tyzBLfcfrPad+7BggUL8btjh+CxR6eZqf6s+nIV/nrhxTj7zPNweP/DMPP1lzBw0HFmangkFbovWYgVaIZWupOkdW3ZpOvJ6unGXq3Q3Dy0eMzvoq9ne4zcLd82Dh/EF0hEREREVHtYOCQqELFYzDzyR+bP8SlUbXLaoXUHa+k9tHe3/fBsWQmGvjQOuGSw1TsJn+nTduPFhC590OpVq7eR3MBGeiDtt+E17x5IXsu4fjoW/q07PrphPzP/BMxtNTRR4LrxeVxcingvqF9OB3r3bmZNmzQHSzaqEPZ3FMNu7IkuavkfpCl2pBY6MpmCEa9aPbKs4pzdc8tpHAbv/ZwuvqyQnlzxZe+J0lZmPfQaBTz6Dk5s9S5u7t4TPfc9EL/sfgvmbmyG0nMfxEiv9SLFxMt76PUi8++7t5rfuV5M7zGYbSXrGaV9TOFnCuav2Kzi7uk4ZXQ89u+iYvzAb+71Q8OGDXHhX8/Hy6/OQONGjXD8oN/jnzdOwI8//mjmyN2s12dj0HFD9WUEbr7lRky8707s1b2bmVr31q/KdiMp5+nFQ3XRW7tkurVPXm6m5VBkdhb3T4wvkIiIiIio9sQGDBhQl11sksjpR0899ZT+gvHxkqVmLBW6/300H9dddx0++ugjM4YoXP7whz/on0888YT+mbuzcMf0I9Fi8WScdtUMM87hnDswfQDw+tDzcI8aHHTNIxixz4b4cDpn3TkdR+J1DD1XzeVahkw7eIPr9QaOxyMj98Rnk54CThqBPcuSp+vl7bIIk08bB7hiSHqtavB+/iCMf2QE9m1qBrVVjryt9YY3huK8u9Sgjn9fbLCH09Drr+QznceMnNbLaXj/IMdzzWRr3bbAIjV9HFwxuJZfn02fPh1XXnkl2rVrp48JKRLKMTF37lwzR+1p27Yt/vSnP+HQQw/FM888g8cee6xOegxv2rgZX34+Gi8tHwo87ewlKD1w7XHWY13XWzHdFLmd02WCEe8Fq8i809pj3uV2YVrZ+C5u6jUKXWbahUIpeg/WPR2lZ+uJmI5BF0xGg4a8GzXlx/Wb3kC3bkAz83clokLz1Rrg3a93xn07HGDGEBHVP7G2LTtm/E1bTm1sqH4B3b69HBXl2W8UoE9xbNxIzyvP8esX3UtQtvxLLF76AQuHlGTh4vk44/Qz8d68+WaMN9mHPl1aZoYyk31a9u2tW7ehqjLzl818HgNBxC/ClkPU4xfOHM4+50w97q47JuqfXrLlID2HLi61v3l9hmf3PQlX2fHrYoLcKMQqEOh5eyzRBYRJ1hM0if/QK/7tWI5iFyqSljEcUz4Yiz6eX/Q2Ye71r6HV5clFDYn/z1Pn4KLuH6vX/TMmyem65rptdmHEOX+u28Auegw8f3L6bWAXVUzx5NGG1+K5j4ckXlfH1ANLrj8EI5wrRin+5wx8NLTEDClmGZNc62XygrEoTT5v1JD1cghWnWzFmdR70vG61//3Qlz+2OnW9efUPHZeSfMbYTwOavI+JL3ePlm6DB07dsBdd96Dhx9M7oEXRPxHHjUA5190LnZosgOWL1+B5Z+uwC4tmuGb9d+hsrIyfauwftrdquWOznIzpHTzSYOaVXpib9++HeUqHhn3zTffqt9X/pi5cIjk41dLOn7MOCfXMZ/Msez4c82+a/a7dPKxD4lC/Syo7RyiEP+zJV+ycEgFTQqHs8sa49KvWpsxyaL+PiT4WZBdkDlwH/KfQ7n6XY77kLfq5OCMn4VDCj0WDlOF8Y1F+M0h6vELZw6ZC4fWl/zEWYRleLrrII9igM05v5nXR+FQF6jS9EBKLRyOx8vqNVrNuw29T33YYxukFiYk16TCoRoXX/4HPVOKHLluA1+FQ6HzkBtJHIIzHs1eOEwUZDdh3s39MfKhcgybPCex/lzrRfKWU8b7DJvqGb9nITCpcKj2oRG3mWUuxP6u9egUxuOgJu9DUjh84L6HMHDw7/Ddt9/htlvvxNtvzjFzBxP/Ib8+GOecN0afsrzyi1VYuXIlmjffCT/9tAVFRUXpW3ERitVPOdNBHsfUf+nmsx/L/EUyv1zGwQz/v//8Fxdd8JNHIc9xDOnCobXPWvtl4hiX0+xTp6fZz+IS+6lcpkDo+fUCp2NZxX76pk9W4dNVDK2q0tuqolKNV9MqnNMcRdJ4k16cqklRNamw6jGvc1nNmjfFhu9+sIa9lmuabdv27ahU2zkpHo8mpNYr+4NdvLWbVy5VqNTbWObdtk29hsc81vOS11Onzu3x2fIvrOEM8ctzZT+QffXnn7fofVXGZ5LLcZDvz7LqvA+xcEiFjoXD9Ar1e0Ft58B9yH8OLBymV50cnPGzcEihx8JhqjC+sQi/OUQ9fuHMoTZ6HDpZ8V+L6YsGoypeWLCLW16Fw/G6kNDo9UE46kw7flcPpKQCmelx+M3z2PuYKz22gfXcHksShQmJ/7pXFuL43ebFC4d6mUevx9z1fVDqKnLkug2SCoe68JZcSIlzFOmyFw4TeRw84tH4+h//0kJ93cO0PQ7VOtv72Ks94/fs7ekoZurC4dIRanschfVz16O0NLHd3MJ4HNTkfUgKh8NOOR3/W/ghzr/wXJw+ajief3YGbrvlTqxZs7ZW4+/YqaMuGA4eMhD/fuRx3HnHPfh+w/d6Wv4/C6zjL23hUI1LFLAtK56egPVHJ45P9/R4j1gzmML0WIx3jl0xHTetP0otYz3eHnYDHm/SJKnoaRc+5RRmyUGf1a2anuaaz9mK1bRGjRpZr6F4zePVWuy6MzZt2pwyXhdfncNqnVp3yZbCbZrirTQTY3GRNb/sG1LA9Z6vOGmc5FAUk+KeGZafZnlBcRcYU1uV9dNV2PUqnFqFWzXNNW9SSyqCVmLHpk2w8Ycfk+eR5lEElR1BdgfpSSuvkzxP6mvKvNJPd3u5Og7UsXB6i+/Qcsl9LBxSwWLhML1C/V5Q2zlwH/KfAwuH6VUnB2f8LBxS6LFwmCqMbyzCbw5Rj184c6h54XB8Ug8iHf8/n8dCqYlJj0NXQSxd4bDthw/jgKG36jHOHki6oOdaRsN/zsCioSVY8cx+OO5iaxtYxYv1VqHLUQyT+eOn+m50FA7N68Z7Tjl61eW6DZIKh0v7WQW85onekzZnT6yGDUfigXcvShQ40xQOpTjzy+Ou0ev/lAdn429yjrZdmHE/R+e9p14vJ1xtxX/qpLcT68W1rRLrwDqV2SoclqWufw9hPA5q8j5kFw7nvfuenr7Pvr/EBRediz59euveh5MnTa1x/HKqsBQMzz53DN56c4465u7Bog8X62m2sHwWhFE+9iERlc8CZ4FRN1NQ/MVeJfh8xZep0+1m5pMmhVWJSb6sOHuuOguUztagYUM0UvPrdKuqrPF6vuSCpzRduFXxx9S8UuxNzJu5tWzVAt9/v0k/dhdr3a2BWqeyXuPL92hJuRQXo4EUb6XnrWrt3nkMrT6+n4VDKlgsHKYXlc+CdMKyDbgP+c+BhcP0qpODM34WDin0WDhMFcY3FuE3h6jHL5w51EqPQ3cPImzCuzf2w/AHJX5TAFMTN86dgIkYndrrTT3/ffX8+H1EHD2QknrTmWX8euS/UXzDdCwc4rjun+M0Z5HcC6oM8+a1RG/HqcrCKpClFvjc28BZ8POSXDi0tkFKLyxFYrd7Qcr6PG3S2/i7zCOFwDuBMUmFQ5EobmpS+Hy1JS6OF0WT14tetikeJrjyc22rFXPfRatS63XtwmG8AOkqqDqF8TioyfuQu3BoG3rCEH0dwm+/+RZ33zURb85+u1rxDxk6COecexa2bduqj7WXX/o/M2eysHwWhFE+9iFRqJ8FtZ1DFOLnqcpU6Fg4TI+fBenlkgP3If85sHCYXnVycMbPwiGFHguHqcL4xiL85hD1+IUzh2BOVQ7fPqSvcdjydXQ/+iozNrkHoFO+cgjFLwi6kNgKr3YdjCl2/LpwmP40ZVGdbRBYDkZN9qF0hUPRpEkTXPDX8zBi5Gn69OVb/3UH1q5dZ6Z6s+Pv2fNXOHPMX9DrwP31MXb/vQ+aObwFdRzkuv7DKB/7kPC7DXJZ/yJs8Ysgc4hC/CwcUqFj4TA9fhakl0sO3If858DCYXrVycEZf3AXeCEiooiSXniLsHTmeDOsjLgfZ/Ruhs8WOsZhPPbvsglzp3n3IqyPpBfk0uXP4zozrNfVuX3QfMXCpALhdfvviY1zp6ctGhaaLVu24Oab/oVT/zgcLVu3wsxZL+P0USPMVG9t2rbBVVdfgcmPPIQvv1yFo/ofm7VoGDbW6ZxmwCc5ddQvWba8BhERERFRUFg4JCIilykY0Ws6VnQZqnuRSfvokt745rkDMfAyaw6rgCbX+rvPcVpw/Tfp1EPw9Io9caJZL0uXW9dQjPe4HHId5qnxcvOVieaUakpYvPgj/OXPY3DNuOsw4vTT8PSz03Bov1+bqQmjzxyFV19/Ce3b747hp56OKy+/GuvWfW2mRoP+y26TRmjQoIEZ409J107mUXaybHkNeS0iIiIioiCwcEhERB7G4biu+6K7ab/s3hPHX2kmKVJAk/H29QYLyRXHJNaLbs7TtJ+7Ar1lXKY74hKeefpZHHPE7zD/vffx4MP34h83XYs2bVrjt8f9Bi/PnIHf/+EEXHXlNRh9xllY8P4H5llERERERJRvsY7tSjKeQC2nwMid1CorKlElt1zLQuaQ02xkXnmOXyVdO+LLz9fgg0Xv8RqHlESucTjmL2frL5iZyD4k18n0Q/Zp2bfLy+UuiJnl8xgIIn4RthyiHr9w5nDW2aP1uIl336d/esklh3zHH+VtUKGWXR/2obDkUJP4F338AU4ffkba69Gmi3/f/fbFueefhV699kfjJo31cXTPXfeGbhvkY/2LQjqOox6/CDKHKMT/ZIcyXuOQCppc4/DNz5vgyq/bmTHJov4+JILOIerxiyBziHr8Il858HtBetXJwRl/rHPHrtlfJQ86lbTHV1+uw/wP5rJwSEn+t3g+zhpzLt6fv8CM8Sb70Mqy1WYoeqIevyjUbSA3bhD3Trxf/6wr3IfqXiHHv3DRfIw6fXTWP/Kkc/zQwbrouGpVzdYf96G6x21Qt/IZ/+Ntl7NwSAVNCodvfdEE477tYMbUDn4W1D3GX/e4DeqWM/7Y7q33yFg4lCqmVCal8umrMhkDGjVqqOeV5/jVpVsnfPHZV/hwyfssHFIS6XE4etQY9YUy85dR2YdWLFtphjKTfVr27W3btlvl9wzyeQwEEb8IWw5Rj184c7Dvqnz3nffqn15yyoH7kBnKTMdToZZdD/ahsORQk/iXLPsfhp/657Q9DqO+DaIev6hJDnIHPj9/0Rb2a2Qjfy0XzuXKOHu8W8Ftg4DjP2P06dij8x64/74HsfKLL6sV/zN7fMHCIRU0q8dhY1y2pq0Z4xL19yERcA5Rj18EmgP3ITOUmY6H3wvSq0YOzvhjbVt2zBhWPm9VLd0gFy/9APPefc+MjQ75JdfvL9RhFOb49/vVfjjj9DPTfhm1BXW7c96uvfZziHr8wpmDXTi8646J+qeXXHLgPuQ/B/kFoT7sQ2HJoSbxy81ihp1yetrP8Khvg6jHL/KVQ1AKbRsEHb9cU/SSy/6G3Vrupq87erf6DMt2EyJ3/I/vuRpNG1Qi1lB9I0nDnpJ97SQUqd9LK33+XirL97tsZ5S5PifI+EWYcoh6/CKoHNzxV26rwsqfG+LcVd6Fw0L+LPCbQ03jn/rvh82U9IqKivR33Vy+7zZp0hhbtmw1Q5nZf/SqrPRRwFHs+f3GFPX4RT5y8LvsoOJv1KgR1q39Guefe5Eejvpx7Iw/dIXDESNPM2PSk+pqpaxMHxs5puYtVhu5Qh0EVb4qsTFduZWDxlfl1mjZeld88/V3ZigziV92PF3pDUkOYY//f/9bxMKhQxjfWITfHKIev3DmwMJhqnzlwMJhetXJoSbxs3CYrF7uQzc+j6UnAk93HYwrzDxxIx/EvMt7YMn1hwR2p/VC2wb5iF++lB1/wmCcPmok2rZtg6efnI5777k/bQHRHf+zJV9i5qadsG57mruHx6xeFPJ7e26/V7dQv5duMEOZWd8L1LKzr369TovV/HIdLD/bK1/xF6m4rN+rzcgM8pFD1OMXQeXgjv9XO2xBo6JKXPZVGzNHsnwcx0G+D4mgc6hp/P+eNgWzZ71pphLVnT6lvVF6SB9Mf/o5jLvymsgfx874Q1U4zGWl8stiejXdKbIJY/wiqByiHr8IWw5Rj184c2DhMFW+cuBnQXrVyaEm8bNwmKxe7kMsHKYIchvkM/7y8nL8buDvMOasM9Bu93Z46olncO/EB7D+6/VmTos7fikcXrmmNRZvaWzmSJavHPhZkF51coh6/CKoHNzx/2GXH7DPDlv1ceClUPch4TeHmsYvhcPXXp2FyQ9PNXMQ1Y2/nPlnHH3MUfoPcbNen41H//1IvfksKNL/EhERERFRQZLeU89Nfx7HHj0IV1w6DgcfUorXZ7+Cy664GLvttquZi4iIiDLZvHkzRp9xNo44sj/OPvssMzb6WDgkIiIiotolvROXL0q0mePNBMM1fd6jw80Eqktyyu+M51/E744dgssuvhKHHHowZr31Ki6+7G9o0aKFmYuIiIjS+WjxEl08POiggzD+2qvM2GjjqcouhdqdvJC6w4tccoh6/CJsOUQ9fuHMgacqp8pXDvwsSK86OdQkfin+8FTlhHq5D/k9VRnu05bH46XlQ9UT98Vxl6hZH30HF5eudyzHmt5q7gT0PnWKHuOl0LZBGOKXi8cf85ujcJb6nOvUqSMee+wJTJ3yCNZ//Y2OS05V/rGyCOVVzltGJFOL0NeNy752EuSadvp6cz6Yxfuio8wxnnzEL//4uGy4lo8coh6/CCoHd/xNYpUo296Q1zj04DeHmsbPU5UpLORU5V8fegiGn/pnPfzLfXrgvgfu1qctyzUPMwnjcew8hlk4dCnUN/dC+nASueQQ9fhF2HKIevzCmQMLh6nylQM/C9KrTg41iT/XwmGTJk3QrFkzMxX4/vvv1bTt+nFxcTF2a7krGqn4K9W8P/ywEZs3/6SniV132xXFRcX6sTxHnmvrecA+WL1ynRkC1q9PXKOtcZPGaN6suRkCfvppMyoqK3QOMfXfbrvtZqbItJ/06Sa2lq1b6htJlKv4t27Zig0bEq+50047YYcddjBDwDfffKM2gHo9FX+D4gZq2o5mCvDDxh+wTb2ekKJMy5Yt9WPx888/o12HVvFtID28GjSwbjpRXlGODd8lLvS/005N0bx5MxSp9SrL+2b9t9YNIhS5q9/OO++sH4uNGzeqHLfqbdCoUUM9raLcmnfLlp+xadOP+rHYpcUuaNigoX5cWVWh10F8H/JbONxL5muFuZ7XOxyOyQvGotWrVhExziz7uV/9CZc41vuOO+6Ipk2b6sfFDYpUrJv0HRYlpoYNG2KXXXbR08SmH9W0n7eYIaBVm1Z6G8g+9OOPm9V62GSmQK8DWU+isqoS337zrX4s9u25N9auVtvQ2LBhg74GoJDt4ex5t3XrFmzbvi1+HLRsuZvartYJPVu3bcVGte/amu/cXOWzAxrIcbBtu77zok32H9mPbPKasm9K/FKj2GmnxH67efOPav/82QxB3xW5yLzmtm3b0LrdrvF9SPaRxo2b6MdS5li/PpFXkx2aYFe1ve19aMN3ycfgrrsmTlGW/eDXhx6sC4h7dO6Exx6dhgfufxiTWyzGo9/tjC+2W/uMm+zjctzLqdAV6v3ar907tMVXq9aaocwkVtn3/dwZs0jN26C4SB1PcgM+H++jeYpfbrYhx1hYcoh6/CKoHNzx9236E1o1LGfh0IPfHGoaPwuHFBbuwqHwWzwM43HsPIZZOHQp1Df3QvpwErnkEPX4RdhyiHr8wpkDC4ep8pUDPwvSq04ONYk/18LhCScej+tvTPwCddqfRsbvnt++w+6Y9eZM/VjcfedE3Hn7PWYIeG32K+jYsYN+PP+9BTj1j4nTXO+45xYcffRRZgjYp/v+8aLP7wb9FhNuuUk/FqNHnYV3352nc2i5226Y89/ZZgrwwH0P418332qGgJdmPo8uXfbUjxd9uBi/H/pH/VhcefVlOOXUxPABv+qDn37+Wa///v0Px613TDBTgLNGn4c3Zlmv07x5c8xb8P/0YzF18qN46ukn49tg+own0aPH3vrxJ58sw+DjTtCPxcWXjsXIPyfyPvigfrrYJA47vB/ue/Bu/VhceN5YvPLyTL0NpOD47vzEa057/ElcfeW1ZkgNP/Uoeu7/K/3488+/wJCBJyT2Ib+Fw0lWcbDUrnWtmI7ux4wzA1bvwi5mKNln+OS+2Rh8821mWK2vc0bjvAvOMUPAwOOOx2crynRMvQ7YH489kfiieNXl4/HkE0+bIeDDJe/Hi4MvvfgK/nrB3/Vj8cDDE9G336H68bfffodf9zlMPxYXX/5XjBw5wgyp1zz2eHz66XL9WL4APPPcE/qxuOH6f+KJaU/Gj4P5C/8bLwC+/tobOGfM+fqxuGvi7TjyqAH68Y8//ogDex6sH4tTh/0JV1x1qRkCThjyByxZ8rHeh0pKOuPZGYm8br7pFjz0QKIi+//efSt+HcI5b/0H/7z5n/F96Jbb/onf/u5Y/ViKivv1OEA/FiedfCKuuc7eLsCf/jAMC97/QD/utEcnvDrrJf1Y3HHrXbjn7vv0PnTR2PNx2rBTsGnjJnz/16Nw8fs/8uYoLoX8WZBN1LeBO37eHCU9vznUNH4WDiksvAqHwk/xMIzHsfMYZuHQpVDf3Avpw0nkkkPU4xdhyyHq8QtnDiwcpspXDvwsSK86OdQk/lwLhzvsuENSr7jvvv1OFzaE9P5o3bY1GjdqqOfd8P0P+NHRK65V61Z6HrFdPUcKP7b9D9wXa1YnehmuXZPocbLDDk2ws6OH2o+bNup9SHKQHoet2yS++G3+cbPu3WZr07aNen5jFX8FtmzZktRDTQqAOzZN9Cpct3ad2gBWj0PpvdfU1ZNMeiyKoqKipNf8afNmtNm9ZXwbSO+1Bg2tnlzS01H3ZDSaNW+GXXZubm0D6b22Zl28x2Hjxo3RYtdEr7jvN3yvY5Z5pcfhrrvuFu+58/NPP+kenTbpddlQzSMqKyt0b8X4PqSLg63watrCocc0XWy0Cq66gDitvZqvD9ab05bdpBeqc71LEW6nZtb6k23+/fcb4j0OpSgovU9tG3/4IaknXrvd28aPgU2bNif1TN1VrZ9Gaj0JWW9fr0v0/ttv/x74em1in/pm/Tfx4rP0cpQefjZZf9Kz0D4O2rRpo489sVWtc2fP1BYtdlH7SVO1jGK1r2/HV6vXmCnQ+4/sRzbZv6SXqcQv+6Zzv5WCnbM3rOxDsi+JbVu3YrfWu8T3IemRKT0LtaoqrJV905DenLvt1iK+D327/tukY1COM5scfwcf0kf3OOxcsgf+/cjj8R6HvKtyqkL+LMgm6tvAHT8Lh+n5zaGm8bNwSGGRrnAoshUPw3gcO4/h2O6t98gYVVFxUfwaEZUV1i+kGanfleSXUpnX73UlRJdunbBi2UozlJmOR37hzb4+Qxu/xCW/NIYlh6jHL4LKIerxi7DlEPX4hTOHc887S71eIzz0wGQzNVVRcUy/wcubdWVFlqRV/A0bNUCVjt9HvkbnLu3x+YrVZiizBg2KEFPxb9+mPjh8bYMc4hd5ykFOFYpy/GHbBjWJ/515b+lflOxeg25hP46zbYOoxy9qkoP8kllVdTVeWn4U1nucgqyvW9hjCW7qNQopZyeLeG/Fhdg/w/UM5bREaV4KbhuEIH7ZFkcdcyTGnP0X7NGpEx5/7AlMmfKIdWq8iuuZPb7AVeva4KMt9unQLnnKgd8LMqhGDlGPXwSVgzv+k3b+Hvs02aqPA08Fug8JvznUNP5HHpvEwiGFQqbCobCLh2/MehNXX5U420OE8Th2HsOxzh27+ggreJ1K2mNlmb8vK2HE+Oset0HdK9RtcNbZZ6oPilFmiKhwjTp9NOa/974Zqhv8LAhG+fYK9YtmOa6buQgndvks+XRl3dvQ0YtQFwmTr3GonwfrlGXr5ihInd7qXUzocyYeVb8I1yXuQ+oLSVERjj7mSJzxl1Ho0LG9PgV80kNT8N13iZ6Y4vG2y3Htd+2xZFviGp+1gdugbkU9fpGvHE7Y6Tv0aPSzPg5qE7eBfw9PfgCvznydhUOqc9kKh8IuHr755tu47pp/mLHh5DyGYx3blWQsHMpfGqWaKZVJPxe8lTmk8inz+qp8GiVdO6Js+ZdmKDOJRy6QGzPDmYQ1folLKr1hySHq8Yugcoh6/CJsOUQ9fuHM4Zxzx+hT6R575HEzNZXMK72zpPdXthxkqvQsUzPmFH+HPdph1ReJU98ykfhVULr3mt9t4Dd+ka8ccvksCGP8YdsGNYn/5VdfwOnDz0jb41Dil+dILH7j52dBZrnEL2qSg/QstU+Ftgp/zfRj2wrXqccp82x8N6k3YrrpU1V89mm3boW2Deoifln3ck3Ev4wehd3bt8NTTzyDB+5/SF9KQLjjf7JDGa5e3w5Ltnr3OMxXDvxekF51coh6/CKoHNzx/775BvRovAXj1XHgpVD3IeE3h5rGP/nRh/DaTPY4pLrnp3Ao7OLh7DfewjVXX6fHhfE4dh7DvMahS6Feh6KQrqMhcskh6vGLsOUQ9fiFMwde4zBVvnLgZ0F61cmhJvHneo3DbMK2DaIev8hXDkEptG2Qz/ilN+nAQb/DmWPOQLvdrYLhvRMfwPqvE9cLFe74ny35ktc49BD147g+vA8FlYM7fl7jMD2/OdQ0fl7jkMLCb+FQSPHwXn3a8myMu+KaUB7HzmPY+0+6RERERERUr8lNUIaeMASvvPqivsPyO/9vLo7qfyyuHf+PlKIhERER1Y6PFi/BmWecjQFH9Mf4664yY8OLhUMiIiIiogLz2+N+g1deexGXX3kp3p07D0cP+C3Gj7sO6xx3mCYiIqJg6OLhKKt4eNX4+JWjQ4mFQyIiIiKiAtOxU0e88//+i+OOHYwrL78aa9asNVOIiIgoHz76yCoe9u9/GK646jIzNnxYOCQiIiKiWrPzLs3Mo8zkRhxyjR5fVwGnWnffxAdw9ZXXYC0LhkRERHVGioejR52Nww/vh/HXhPO0ZRYOiYiIiKjWtG7b0jzKrLi4SF/YW+4MSERERFSo7OJh/yMOD+U1D1k4JCIiIiIiIiIiqiP2acthvGEKC4dERERERERERER1KKzFQxYOiYiIiIgo/258HkuXL0ppL7w4Q/+c9+hwM2NduhLjrzcPfTsXLy1/B5NHqocjH8S85c/jOmtC7dPLN6/l6Wo8u2g+ns85ByIiqgthLB6ycEhERERERHXkMzzddV90d7SBvxukf/Y+dYqZp65I0W0wepohv8679yi0mnsfRkxSA5NGYeLcVjhx5nhrYm1Ty+/d9RDrtYiIqF4IW/Ew1rlj1yrzuE51KmmPlWWrzVD0MP66x21Q9wp1G5w55i/6570T79c/6wr3obpXyPEvXDQfo04fjfnvvW/G1A3uQ3WP26Bu5TP+x9sux7XftceSbTuYMWlc+xQWDgGe3ff3SCqfpRkfnm1wpS4c4rkDcfyVZlQ2wybi//2tHV7dd4gjJ1nOAKy/uT/+MtWMypvcc+D7kH8n7PQdejT6WR8HtYnbwL+HJz+AV2e+jskP5/3gIkrylzP/jF8fegiGn/pnM6bmfvnLHrj3wbvx9ptv49pr/mHG5ofzGC6qrKxCplZVZdUV5afX9NRWqeeHepr3dO/mf/lqwXrZlSnjvVpY4xdhyiHq8UsLKoeoxy8tbDlEPX5pzhzkedmem1sO3If8NGvZhfE+JC0fOdQkfuux97zS8hG/tJrkkKlFPX5pYcsh6vFLCzaH8Mcv3PMkt0QO+od7eprxzhxOe2i2/sPE9GsS466aMV+NewpXqcd6/VzzlJ7HbnMeOiU+r26u6QtnXGGNP3Ui5iyajftPdcwbH3cFpi8ajBIVX8kQx3MqT8H97ziWZeKwn3/ViQeh6aqPMc4xrrLyGkyfB/Q+MfV1cZr9OHkb6BwzvOY4ex2l5CBxJ+ad89DuZiX734/yuQ9lb+E6Dtzx6+GMsUX9fUhasDnUNH6i+szuedjv8H644qrL0h4H2Vvux7Fz2bG2LTtmPNqKGxSjYcMG2L69HBXlFWZserGiGBo3bqTnlef49YvuJfh0aZkZykziKa+o0L9kZBPW+CWurVu3hSaHqMcvgsoh6vGLsOUQ9fiFM4ezzzlTj7vrjon6p5dccuA+5D8HfhakV50cahK/XI9s2CmnY96775k5kkV9G0Q9fhG2HKIevwgyhyjE/2zJl7hyTWss3tLYzJEsnsP4p7BoaBWe7joYV5hpmlzj8ESkjHfncN3MRTixi5zSrObTz2mFuddbp+eO+vc7GNtnvWMZ4/HS8qFoNXeCdaqznn9PrHh6Xwy6QuIfrwuCLWX6rL6Yd3kPLDHL0uSagWbcyCnj8fKyoaiavj9++3fZBq5ly+yPvoOLS+3Xt6Y3en0QjjrTtQ3S5Nqw4Ug8NO8i9F4/Hd2PHmfGWsuBivm4S6zHXVao6ceM09vgulcW4viSMrWsQbjCEe+IScMxecFYlMqy1LyAGW4OfBbPIbtCeh8SueTgjv8Pu/yAfXbYqo8DL1F/HxJB51DT+P89bQpee3UWexxSnQuix6HN7nn4xqzZGHfFNXk5jp3HMK9xSERU5+RLQeKi8B8v+1D3Elj08QfWuAUPIu01z/No2LVXYoR57M+VeN7OwW4p13gajuturOnF72tjGbmRL4p2LvKFNhwX8CciChEpaNmfZ0Ol396eODH+eeC8WYhzvNWsm6Mk5rnimOlYoeY7eubzmHfinthoXz9Qvf/37dEMK54Z4ijGjcNxT3+G5qVD9fOv239PYMV0HHeJNRW4FgO796ze9RNv7IkuG9/FRMdzJ516H+ZuVLHJ58DI9miFTdjwuZno9Ml6bFRTO6R8oD+Cv8xSX8z27JlYJ/I6+AwfSMzm8dO6EGgZP+h5NaYE+99oRthuHIrS5s55p2Dk3fNUREREFGXS83D0qLPq7JqHLBwSEYWE9IaQi8Hv3W0/9Nz3QOy79/7WheJ7jUJdX/N8xJQ5uOgIc7qTH+oL4xy5ptJ0k4NuEzC31VBHIdTqCXF0Bz1QTbWxjByp3MZI7xLzxUy+0K4vHZ3hjpZERAVIbtphf55Nlx4LzpugOHvdpbs5inMeUwzssieaJxXu9kSrZkCXEz5MKjxKD0PLcHRoBWxc/5kZrpmRsrDmfXCx87WWWz36spq0GuvRDK32MsNOV36oC6N2IdAqdi7U+evX3LheTXe6Fh+olFp1SP6jlee8k1bhG/OQiIiia8lHH8eLh1eP93vh3drBwiERUd6ciofnLSyI3mkj+++NZpvew/TLzQhtCkbc+S42Nu+BwyJcZLvu5D7A3OlJX2ifnguUnuzuTUlERLVFF8VE81boYj1SI6WHH7Dimf2SCo9WSz4luDZ0kSrlxndxU8pr1fQO0Ndi4Wdq+fvL58h47N9lE+ZOS/QwTHUqOrQ0D4mIqGDYxcPDBxyGK6+6zIwNHguHRESRYE5ndp62LKeBqXGJQuQQTF7g7AXhPBVMJE6JltOg5eLq1nRr/EtJpzwlxslpuX/ro74sNTsIf1s6J9GzTq7XZJYnLaUg2qwl7D4fcdIDpavjOkzN1XfA0rEmr/G458XHMflRe7kmftfrJF7rNEya/1fXMixy+nBi/nfwcNI51smnhs979MF4rvp5rlPD9WnJ9ji1zo9WX+iWzEr+gjjp1NewostRuH6IGUFERLVH9/Ruho1zp+vTgk+0L3uhe/EBrdun+4PcFKxSMzRvlfJplN5erZCuA+GK9ZuSC5e5MKcxr//EDLtcIV0Iu/RUn4FHocvGJXjLnGowyUrA9ZolaKWCXL/K9VnkNe/IDmCNkYio/rCLh3LDlHz1PGThkIgoEsbhuOult14fjNFFs+GYfG4fNF8x3fRykKLb6eixZEK898NNc1vhxHjxUIpl5uLqapqcBv1sWQlOmJ9cJPMy6dRDcPO76svSpvdwc/e++rpSupimL/Ju97aQ03XHxouHk4a9hjL1xWaoucZhai/LKRjRa4L6Agj1RVDFHD8duylKe6w3vTkGWxd91xfBt19H8tqE5qWj8eDwRzDywH+5liEFyUU4EVaeuj29Hn0umYP7h8nyh6npifUgp08v6dEn/iVLf3Fr3gP94ivlNBzWQ31ZXTJHxzfyiB5o7vhCl/AZ1m9shi69WTkkIkpx+VD1flvdHoDOz7txVs/1LkPNH7vGYbr6fGpW+peky0U4/whkFeSOSpp+zcsLrevUmtOHEz3G1Wsd7SwylkFqha3an6aH9B+J5JqMzuv1mj/i6XgmzcES9VnQorM1KYkuSK7HqpTPD+PSZ3VRtFQKpOYzR7tkYcprjpsxWI0ps66B6HSJq7Cq8pl0dm+VIRER1SfOnof5uOYhC4dERAGTLzAfLV2IhYsuQB+7d1y8t1uioNblRGuc++Yo8Z6Ak0Zhoi6aqS9MM6W3nuMC6Df2RMfNH6a/YLvnxdUPxN4HVuf6icN1MW3F0x7XnzIXoweuxvH7HogJUnBUnDnH80kj6QtTvIeiGVYmzVqCjeZxipF90SPpwvDKJYPxzGfN0PvEK4F/HJ9y4Xj9JdQMWV/QmuGX/c12GX6oWl6ih6E+TW39ao91ZvVqabprRzNMRET+pLs5ino8c7z6DHV93pnPwi4nvqOLgVNG9MM/5XIRlyeef2Krd3GT/Qcp9Rkgf0CS6dZn8XycgGfNXYfNH+W6DDXPHQ286vhMUO/t//l4E5r1ucgUItX8XadjRXx+1S7vg/X67sfW/G8t2YSO3c/Vz3ZyXrfQKjZa8SdYzwXcvdrlNc01gtXrSQ5yR+Vnuh/vUYg1f5Qz88r1F3+5ZB783ZuXiIhqqkOHDjjnvLPy0uRah3KX5YGDjsPtd99iIggGC4dERAG74ph98cvuPdFz39vwrt07zvSGc14TKd3NURJ3gkwUA7t0kfkThTt97aem+6W9YLv3xdWra099ipRd6Iy3+MXoE+QLnZ2r9EqU17e/7KXjPvXK4ji9WH1JS3camdWjI/VL6AkmtBHtW6auB3Oqm2UcPlATm/XoC+mgOLz/3ml6GKbSp7C1aJO1BycRERlS1It/RiSadXMU9fiYcfoz1N1bUXrCd3f8UWnSsF/Hn6ub+6Zi5nWsz+ID8cvfOnoM6j9Q2c9Vy7wk+Q9WU//c3/o8ji9TCnmO11It6XN61hJs7tA95VIhSdct9PijmHDnlSAFQeu1rBx+j3j/kpRlJeaV1nvYKP2HvMFJ1xwmIqLa9tVXa1T7Cn1KD8pb23PPEnzx+UocddQRJopgsHBIRBQpVtFOOO+mqHvCbf4wgAu2e7AvRm8Knckt06lopqcGmqHHEe5Tl9Mwp4AtXT4UreyCq/QOMZPdrIvnf5Zyh079RWvQtdZMWVwx7V1sar43Dh12Kvo6TlMmIiLKatIovLOqo9Xb3xgp1y1c8ZpHQZCIiOqLF2e8jNP+NDLv7Zqrr0dVVZWJIhgsHBIRRch1M4dapxzr04JHx3vu6d5uTVu4Lp6e4H1x9QxMcdCT6aHnLFwmG48Xl32IOQ+daoad5FqA5qEP1jUFrTtYxgugGS5cr/NUkXdI0+1v8upvPC4c78p10hx8tLEZWh32a/RolnojlHR08XbDOhYZiYgK3B1nvob19me0vrHL+uRLaBAREUUIC4dERHnzKE7v3bP6PQBvfB4nyqlO1w/GFZcMxtMrmqH0XOvi73LB9i/RMf0F283F1Z09IHDtU/h42XO4zhTzuhyduFHKdScnnw6sC27xuySPw9PmBiXOU44TF6Mfh2fU9Ga9L8Dz15uJthuH6mtVvarXgc+7XToLfZJT0inRrmXoC8Mn1otlPF5YutAqZF5mXXzeeeF4fdF9M2SZgreXbEJJ74PQbNPHSacp64vst2rvcTrycEhnx83ffWmGiYiocN2J4+zTh/WpxJl64xMREYVbbMCAAcH2aSQiquf+8Ic/6J9PPPGE/pm7s3DH9CPRwQylWoXXJ23AwSP3BRZPxmlXzTDjzfNWv46h596TGLYmaqveGIrz7jIDKdPVcoeeB3mme9qqN14HBhwJxJ+fmG4vc9A1j2DEPk1lomXzIkw+bRzs6DBwPB5RMTvmSJ3nnDswfYBeqoplKbqr10i8puWsO6fjyPZmAJuxaNJ/0WLkkWhhr4ukZUg+gzD+kRHY1xma13ozQ5sXL8KGfdS6db6uiT15fQt57sHYMOk0jHvBjBJ6/j3xmXt8AZk+fTquvPJKfPTRR2YMEdV31296Aw/uuD/KiluYMUSFZcDWMuxZsUEdB73MGMq3a6+9Fi88/zImPzzVjCEqLPv36olHH5+M3//+92ZM7Yu1bdkxY+GwuEExGjZsgO3by1FRXmHGphcriqFx40Z6XnmOX7/oXoJPl/q755fEU15RgarK7DXPsMYvcW3dui00OUQ9fhFUDlGPX4Qth6jHL5w5nH3OmXrcXXdM1D+95JID9yH/OdTOZ4HceOUorL8+cXH52J8fwrxL98aSG/th+IPJ8UvPyqPXT0jqOTry0XdwcavXMPD8yZHeBjXZh+QmNMNOOR3z3n3PzJEsrPuQ320Q9fhF2HKIevwiyByiEP+zJV/iyjWtsXhLYzNHsnzlwO8F6VUnh6jHL4LKwR3/H3b5AfvssFUfB14KdR8SfnOoafz/njYFr706i4VDKlh24fCXe/U0Y1LV9LOApyoTEVHh+MezWLo8+a7O+rqRrjsnj+y/N5qVvYFRHmeVy81TUDrUccfM8TixFIm7ZRIREREREdUTLBwSEVHhuOx43DQXKL1c7tRstRNbvYubeo0yNzWR3oeL8PfS9Xg23V2YJ43CxLmt4tdJlMJjq7n38W6ZRERERERU77BwSEREBWXSqYege9d9Ey1eNBTjcJwat3e3IXDcZiaFXoa5Q+YVxzju+ExERERERFSPsHBIREREREREREREKXhzFJdCvYBtIV2AV+SSQ9TjF2HLIerxC2cOvDlKqnzlwM+C9KqTQ03i581RkvE4zp5D1OMXQeYQhfjl5ijTNjQ3U1PFYjH9nKrKSlRUVJqx2e3WqgW+Xb/BDGVWXFyEShV7VVX2+IvUvEVFMn8lKn3Ek6/4YyomWZ+55tCsZRv8sG6NmeKtOjnkK/4obgOv+HlzFG/5+izgzVGo0PHmKEREREREFEqZioYUvINPOQNFDRqYIaori3/2vqs4RdTuvTBoaC+0M4O+7N4mt/lz0Kx7Xww6qguameHoaYODhh6Lg3Y3gymyTc+sVtdPsy7oP7QvukV3ZQeGPQ5dCvWvQoX0Vy2RSw5Rj1+ELYeoxy+cObDHYap85cDPgvSqk0NN4mePw2Q8jrPnEPX4RZA5cB/yn0Mhfha0aLErZr/9Kv5182144L6HzNRU1cmhEPchvzlEPX4RthxqGn+t9ziUwmEp8N70Bcjcn9fIdf4cSWGsf8evMPu1FdhkxkWLFAZ7AXNfwXtfmVFJsk3PLPrrp+bY45CIiIiIiIiSDB9xKha8/wFG/nk4GjVqZMYSERHVPhYOiYiIiIiIIqJly90wbMSpuofVhu826OIhEQWjXZ9jMahPG+vnUNPsU2N1b8M26oHrdFt9yqtjfvV8mz61tk8XdDvKmta/+06J8Y7n2ONtnq9v06dXO6arFn++ffrt7skxJZ0a7Ir3oO7uU3Z3isdrNdep3O58pTly1ppneH03Vz7udZFRhnWvZcrVXldp885yGnOGuGX79VevJfuJTKvuqdl1JdaxXUnG/sByQVq5CKxc/NXPBW9ljgYNivW8fi54ayvp2hFly780Q5lJPHJx3JgZziSs8Utc5eUVockh6vGLoHKIevwibDlEPX7hzOGss0frcRPvvk//9JJLDvmOP8rbgJ8F6VUnh5rEv+jjD3D68DPw3rz51gwuUd8GUY9fhC2HqMcvgswh6vGLfOVQaJ8FF/3tAuy/f0+c+sfhGHrCED185OG/wZYtW8xcCdXJoRD3Ib85RD1+EbYcahr/5EcfwmszgztVWQo+B7UH1sRPpbVOrd1pyRzMXvpjyvzWcFMsfW0OlulzZ6X41BfdNy7AjHfXWafW9tjJsTyYcUg8RwpYR3XDj2qepc2t+TfZr+danjXv7lgdfz3X8mAtq9mmZfHTea3pm03MrnzMcDv8aOJxT/d+ftKpxnodtDE52stbl2YdJT8/edki9fWd9Pz2qcpJrytTzWuvNusqW656Xdnr0qxnNdZ7vSWzpqVuQ5jXsvYje51az6kt9qnKPfc50IxJVZ3j2HkMF8k1AjI1OSitGYs8p7ubBCPkgPaanq6pJ3iO92qybHkdr2nuFtb4RZhyiHr80oLKIerxSwtbDlGPX5ozB7m7njSv+eyWSw75jt9ruruFdRtEPX4RphxqEr/IFFvUt0HU45cWthyiHr+0IHOIevzS8pVD1OMXfnPYrdVuOPW0P+HRRx7Tw88//wLWr/8GI/48LGVeadXJIcj4a3sb/PZ3x3qODyqH+rAPhS2HmsYf81VurKFNy7DULophHVatBprt3NQMJ2vXsQ02LfnAURz6EcvmLsOm9t0cvdXUMuLL20k9RwqDjudsWoHZ0x2FODX/0njR7Ees+VI9br6T1etQz5tcjNq0+quU6/2t+ShxDUBrelM0Uwto1r0b2qn85seXvw7vzZUim7F7e9d09fylH2DppjbornvUSUHQGavy1eqUwtqauY5i21cL8N7qndC9h6s3oFkXSfOaeJr1UHGaMenIusdqtWzHetO5tFc5qKGsuTo1a4P2zX7E0rmO9bZ0DmZ4FA3TbcP5S35EMxVTfLNv+gpr3BumFrmPFWerznHsPIZjY/5yTsY/M8hFFO1bzvu5WKkct8XFuf9FonXb3fD12m/NUGbyJiHx6LJpFmGNXzZYRUVFaHKIevwiqBy4D9V+DkHG//prs7D5p5/QqFFDHbv89dKvLt06YcWylWYoM3nzlTy2bdsevznKvHe9e1oJmbdYNekVkXWdqvUvF32W+WR+v9qrD6bVX6b58HORWCQmfXFcH9sgp/hFnnKoUPtElOMP2zaoSfxTHn0Iw0/9c9oehzKvHDdyTPqNP5/HcbZtEPX4RdhyiHr8ItAcuA+Zocx0PD5/n6gP+9BFfzsfpaW9cfJJp8VzOH7oYFxy+d/Qv+/R+En9DpSkGjlEaR+a8fJ0DPrtUDOUEFQO9WEfClsONY3/kccmBXpzFN1TDHaPNUvSuKT5TS+1ZmbGJFZvszXtHT3k9PjkHnduST3qMoxL9J6zefWiM5McvRQ39UjNzzldx9vD+1ThRC9IkZp7osdhN/zgfH0lkcOP6B7P352DkxQoU4t2ieWsQzv1+u2/dPdMTLx+tlyT1lWz5P0gszTbUC97ZyxVy4DHflRb7B6H++6tYkinhp8FsU8//bRq0ybnik2lXsPPMRyX6/yiKBZDZVWuz/InjPEHHVOu80c9fhFkDlGPX4QthyDiad26FVav/gqnnDxMvSFad1rze9coUd072EnhsHefg8wUb1IolSbFWGnZSKHU77y2HXZsgp9/Sj1NyYsdjxRj/cg1fpGPHOxl77zzzti4cWPa1wpr/NLCtA1qGr/cWZx3VbaELX4RthyiHr8IMgfuQ/5zqO5dlQ886ACs/GIlvv56vZkjWdi2wS677IK335mFKy+/Gi++8HLSNnj+xWfw6szXcfedE80YS3VyiMo+dPqoETj73DG48rJxePml/zNjLUHlUJvxZ1JIx3FN4w/6rsq5FQ6tAlK602pFatEvTdHJyFo4NKfESr0uXshLVwyrRuFQT2+eOF03laPY5zolOFEM9Fk43GTlIqdoe60LL1kLhznkWuuFQ8e+kY/CYZB3VdaFw74HD9ADRERR9trsV9QvHVvx/Ybvcd45F2LTxk2R/CWNv2T6z0G+LMbUf6/OegkP3P8wnnj8KTM1WVjjD9s2KMR9yG8OUY9fhC2HqMcvgsyB+5D/HKpbOLz73tux8osvcdMNE8wcycK2DS646Fz07XcoTvnjsJRtMPj4Qbjq6stw2K+PxI8/Jr40VyeHKOxDu+yyM15/cyaeeuJp9OixN4af9mczxRJUDrUVfzaFdBzXNP5wFQ5d1x/0kFoItJ6T2lPOkq1wCI/pVkzmGoJZCoepPSAVx/OtHofe1/XTXOtL08u3C4DeRbXEOoSryJi58OrmXBc7eRXnHPH9mMu68lpvaXlvw6yx1ZJ8FA6tCwQQEdUD0qvqoQcmQU6BvvPu27Bj0x3NFKrPfjfwt+jQsQPOu+AcNGjQwIwlIiJKT3obHnHkAIw4fZg+YyHsmjdvrmOdMvkRMybZ88/O0EXQ00cVxh2WzzrnTHy67FM8Me0p9Dm4N3odkP4LM1GgNv0A+3qBkOsZfrQOaN8r6a65UkBKuRNxnHXNwuRr+EkhKoe7CTfbWT3DkKKdvtOzP5uWLsOaZt1wYPy12uAgx/P1dBnnvDuxvEbSnYHt/IWa1/SAdGpX6sh/d7V+5EYhS9xFtHVqnKyL/ZPuXixFxpQ7SXtYI5fbSVr3JpfV1jUXs+WaZNM6rN7kug6jztvrzsr2NnTEreY9UG5qo2LKWneMABYOiahekeujjD7jbH3thrsn3oGmLB7Wa3IqrtxNUjRv3kxf54mIiCibkX8ehmenP48FCxaqx+Evto04/TR8tqIML734ihmT6uGHJutcmu/c3Iypn7rvvReGjTgV99x1Hz4v+wKvvDwTJ538ezOVKM/sApNd6PtqAWbMXYd2pcdi0FCrZeyxp8hNN2YvaYqDzPyDhqbvgegmz31vdZvEc3UvOav3Y/v2fgqP6/Dea8uAHlLclGX0ApYscxS7zLUF2/cy0+U1HKcTq3xnL1HHpco//vy5c7BULUDfrMRYs+QHdLefn3TX6WTWunAu79gsp0o7yLpXuewUX/e9HHdUFtlydfoRy1SMS5s7807fA1HfOGXu5kTcah3Zd1SuD3iqMhHVG6++8TJuv/UuvPTCy2iyQxPc98A9+gLKZ446C5s3uy4W7iEsp4XwtBb/OcjdFK/7x3j1uKEe98033+KwXx+he506hTX+sG2DQtyH/OYQ9fhF2HKIevwiyBy4D/nPIddTlff71X6Y+ujDGPy7E9CpU0fccfet+rPDfa3DsGyDnXbaSV/b8OqrrsNLL76sn5NuGzzz3BOY8/Z/cNstd+rh6uQQ9n1Itpd8zl943lg9XHpwH0x+5EH073c01nxllWaCyqE24vejkI7jmsZf66cqk9WzztzUI12xs96oB7nyVGUiomra8vMWjD7jLFSqXyzvffAe9jysh6S34YV/PV/98mgVDcXOOzfHoCG/M0NERESpRow8Tfc2/GTpMl1wCHuvQ+ltuHLll5jx3AtmTHp2r8NdWuxixtQvh/c/DEcfcyTuufNeMwaY+9938YHahn9gr0OinKWeRr0TupV2QzNzem99Uki51jYWDomo3rKKh2ezeFhPHXvcb7DbbruaIYsUEc+/8FxdVCQiInLrdcD+GHBE/6TeSZMfmmKuddjajAmPHXfcASNGDsOUh72vbej20guvYNknn+L0CJx+XR1nn3smJqnt9emny80YyxPTnsYf/niivts/EfmXcqrz0Mw3d4myQsq1tvGbFRHVa4niYSWLh/WIFAbPv+CcpN6Gtl13bYHjBh5rhoiIiBJOG3aqvpGI9Da0Sa9D6bEm1z0MGykafrVmje4h6dfDD0qvwxEpf1yLupP/dJI+tfzuuxK9DW3PqfWzZctW/OGP7HVIlKs1776CGdMdrR4X0gop19rEwiER1XuJ05ZZPKwvjv3tMWjbri0qKyv13bS3b9+O8vJy/bNRo0a4gL0OiYjI5YADe6H/gMMw2ePOxNKLLWy9Dps0aYzhcidln70NbXKzkI8+WhLq069zJZ/tZ59zJu656178uMn7ZgNPPv4UT1cmIgoAv1URUUGQ4uGZpnh434P3oFmznXRhydmAqpRx6Zp9Koz89JrubrnMn+uy7RaW+KXlOr/d/OTQoEEDfSdlWbacqjR61FlYvforXH/NjXhkyr918bB9h/b4zW+Pjj8nTPHbLeiYcp1fWqHsQ3bL5TVyjSfX+e1WSNsg6Hhynd9uYdkGuS7bboV4HPtdvvTem/H8i/h02fKUabNen617HZ4+anh8XL7iT/caI04fjm/Wf4M9OnfCX9Xn3ti/X4i/jr0AF1x0Hv7294twyWV/w6WX/x2XXXExLr/yElxx1aW4YtxluPLqy7Hko49VLiPQunWrtMtP18K4D5151l/w3Xcb8MjUxzznk/bUk89g7x7d0X/A4eoZweRQ3fj9zm+3QjqOaxoPEVncx4qz5XqcSXMewzH1pauq78H99UKIiKLMeVfldHaQuy0/eA+Ki4tx7tkX4KefEndb7lTSHivLVpuh6Il6/MJPDr859miMPH0E7rn7Xrz15tt63PMvTsf99z6Al158Bbvuuiv+fMZIfYexU04epnsk5gv3obrHbVD3uA3qFvchb3Jtw4cnP4Dfn/BHfLrsUzM2mVz78F+3/hNHH/lbrHfdYTkXtRG/XIpjwi03obKyynyOWT+TmxprHsuA/s8M29O/3/A9bvnXbdZCfQrbPtSxU0e88NKzGHvR3/H6a2+Ysd6uuOoytGrVEv+65V88jutYvnKQ4/rVma/zrspUsOy7Kh/Qs48ZUzucx3Ds008/rep78AA9QEQUZX4Kh8IuHspfT84ecx5+2mwVD0u6dkTZ8i/142yKiq2/3JSXV8D6+01m+q876jnS41H/gp+BTG3QoFjPJ/P7FZb4RZA57NW9m77we6wohgq1bIn/xVeew7333I8XHdu+dZvW2LZ1K77//odQxW8L4zYolH3IlksOUY9fhC2HqMcvgswh6vGLfOVgfxZkcvtdt+LHTZtw1ZXjM8Y/9d+T8OH/FmHCP28p2G0Qtvhv/Od1aL7zzjh79LnWyAykx+GTzzyO8887H2+8Zv1xMZtccsjH+heFdBzXNP7Jjz6E12bOYuEwjXZ9jsVBCO4GIHKn4v4dv8Ls11Zgkx7TBu12X4c1X8nELuh/1O5Y/docLLMmUgDswmHPfQ40Y1JV5zh2HsPs20tEBednuebhqLP0F427Jt6hr5uzfXu5eiOF/umn2W+4FRUVntPdraLSzK9+ek13NlmmkNfwmp6uhSV+aUHmsHjREmzbtl0v245fnifb0znf6lVfYf36b/XjMMVvtzBug0LZh+yWSw5Rj19a2HKIevzSgswh6vFLy1cO2eL/Vc9fYcARh2PSJKuwkCl+ubHIsBGnosWuuxbsNghT/HJdyt8NPA733n2f53R3+/B/i/XZCMccc4zndK+WSw75WP/SCuk4rmn8uiJCdUbuVDzDUTQ8aGgvdNCPKd/cx4qzVec4dh7DLBwSUUGS4qF9zUPeMIWIiKj+krsly113pbd6NvE7LJ8evjssu8ldhnv02NsM1U9nnT1aX7tw0YeLzZjsnnj8afzm2N9gl112NmOIiKgmWDgkooLlLh7usMMOZgoRERHVBwcedACOOHIAJuVwGmMY77Ds5eQ/noRf7tPDDNU/g4cM1KfgySmoLVrsos8Q8eONWbOxcuVKnMQ7LFNB2AndjjoWg4Y6Wy+0M1Pd5NRi53zdZPioLmhmpqcuz7EsOfXYfo5MU89rE3++1dtQ5m1Xqqb1aWM9R7Tv5VheX3SzX0wvTw13d043y+hjD6vmXNbuznld0ygwLBwSUUFzFg+vvOpK9jwkIiKqR+zehp8sXWbGZGf3Ohxx+mlmTDjJzVDkem/11dnnnqmLhS/93/N4+53Z+HDJ+1j08QLMnT8Hs96aiRkvT8fjTz6CByfdhzvuugU33HSdvrP0hX89D2+/9Tb+8EcWDqn+a9enL7pvXIAZ018xbQHWSBHPq6C2ey/07wEsfc3MOxfo3mMnM1FI8S95ee+tThQELW3Qfedl1vTXViBxm8l1eE+/NrBmrpoWv6biTuje8QfMNsubvUS95lHO5Tmnz8HSTfJ6x6LDl9b8M15bhk3/v71zAYyiuvf/LwkPlWyolRhCAA0BjLEoIJCoRSsW39WKtL4oiLXFJ7e31//VVqtS0OqtfSk+UBSx2McVURS0Si1VWhseBavXGIGAFcLDYJUsWCGv//mdObM7Mzu7O7PJ7M5kvh/9kT2POfP7zTlnZue351E2msYOEFnZ0VjTJ64/n09PA54CxyEAIPTozsPPxV9MWwYAAAC6B/pow5dfepVO+8qpdOpp42n8qV+WfzmcShY8/hRdOX0qFR9ZrErzH3Jji+7rN6QzzziPRo4YS6efOpHOOfNr9PXzJ9OV3/o2/fd//YDuu/fndPTRR1Hdu+/R39etpw8/3E6fH/icivoW0dBhQ2nkyJH0r4//RRd8/XxVGgDdk52rX7ZsfLKbtttuZl1Iw48roWjdhvhGJTvW01pj3gFlVMoOQEN5O1drjsiBBufczm3uNlrZ+a6+BiJRtHGH+NyHIvEhjob0faLsfSLTRqrnzVWY6D4Rq4j0NYyMZNhZ+TKt1fMCz4DjEAAABOw8/O63r5UjD+E8BAAAAIIPjzb8+ON/0d33zpZy192zaNbs2+VfPS6Z3Dn7R/TJvz6hb029QpXmP370wztp5Z9eV6HuyYEDB+iTTz6h7du2U339+/T3dRvojdf/Qi+/9Iocjbjk2efp4QfnyV2wZ90+RzoVr79mJt166230jUmX0QvPL1MlAdC9MU5BHlumIk30ob4Ron3NMTecZN/eeDhS1IcoujfuqJNojsjCIn1k4j7a62qH5HT5XZS3YyPVRwupUp9KjWnKWQOOQwAAUGDDFAAAAKD7cP01/0GnVJ8Wk/GnTKAJp50p/3J42pRv0yUXX27KY5KTvkI/v++XqjT/8e7/1VHTR00qFC4KCzUnxv79++VfAMKKvhbg6VX75eg7bXqxSuwSCilSpD7mnH20MTbNend87UQ4ED0HjkMAADCgOQ+vh/MQAAAA6OZ87/s30jcvnaxCIEgU9CigtWvW0d5Pm1UMAGGkhAaWkbamoFpfMLmjb78c2RcfOahR2Dcejjbvl9OBzTnsRyrmnB1qHUbpQOQp1sBL4DgEAAAL//73v+E8BAAAAICvqTruWN/v/OwVez/dS9+6fLqcxgxA2DE6A+VmKREVMLGPNr67myJVo+K7Gg8YbZ7WvKMxYWOV0mreyGQ3bXe0jqC9c7LLkDsqG3ZlFpQOEro2st7AS/I2bdrcMf6k01UQAACCy6t/eol+9Yu5tPzFl1RM5zj00ENp3vwHqaCggG68/nv02WfxfcP8yODyMvpwa5fOTcg6mdqwdNkSevSRx2j5spdVTG4Ieh2EuQ35BdRB7oH+uSdbNvziV/fRli1b6YFfPahiuoZs6b/oNwvpxReX0+9/+78qpmtAG8o9qAPnPPHkY/TqK3+kJ594SsWEDN5peOLw+KYhjetp5d7hauryeqLqc2gsrY9toMJrIZ4e20l5N9XX9aHKQTto5Qp9g5JCGj7R6HyM75asnWsANa5YFdtgRZZnOD5WfnQjrawlGmPJbyqD0pen7fQ8mqhW2wTFrL+AzxPLG05GjR5Ji377JJ04slrFdA3GPgzHIQCg29DVjkPG6Dy8/rr/oM/2a87D/Lw8uZNhe3u7CKXf0lBmF//wDoi8CWJqOig/P5//UHv6zDGOGlJG/9zi7Auat/oz2bGhvUPT/8Xlz9Ej7DhMUvd+1d9vdRDGNuTUhqDrz/jNhrC1IcadDWhDTmAb9GdBOqz6VwytoM8//5wa7bcgFfi7DthxuEw89377m9+rVDvc2xDGNuTUhqDrz/jNhs7q/+RT88PtOOwk0hHXd6NlZ2YQJHTH4ajjx6kYOzr3LMjbtGlTx/iTJsgAAAAEGS8ch4zuPMwTN9trrr6O9u//jHr27CHX1zlw4CB1tKe/+XJePqalpZXaWttUrD15+XnUu3cvmY/zO2VYZTltqt+qQqnxUn8mWza0trVJ/f+wYhk9NPcRemGp/e6JftXfb3UQxjbk1Iag68/4zYag6894aQPakHMb9GdBOrpbG/rN756iF19YToue+o1KTSQTG4LQhk4cM5q+Ne0K+t6N/6VizHhlQ1fpn44w9ePO6v/07xbSildfg+MwLWokYXN89KE+WnGfGs0HgonuODzumJEqJpHOPgvy5b8AAACSwmsezrj6evFlBmseAgAAAMAfPPP7Z+mdf/yfCoWLgQPL6JhjhqsQACA9vCPxetqp70TMAqchcAgchwAA4ACr8/AwOA8BAAAAkEMWP7OE/vGPt1UoXPD3ML+vPQ2A/+D1CnkH5rjAaQicAMchAAA4xOg8fPDh++mww+A8BAAAAILK3Id/Rd+/6T9UCASJPn360P79+1UIAACAl8BxCAAALtCdh7yA8wMP/hLTlgEAAAAAssz8R5+gqVdcpUIAAAC8BI5DAABwie48bGtro0cefRDOQwAAAABknV//9km66uorVQgAAADwBjgOAQDdioqKITSueqznMuL4L9Fj856gwsI+9PTvfw3nIQAAABAwXlr2Mv3tzVoVCiAdHZSXl6cCAAAAgDfAcQgA6FZcd8MMeurpJ7Iijz3xMFUeW0nHHDOMbrr5+0oDAAAAAASBl5b/gf725moVCh4dIXYcnnve2XTSydUqBAAAwEvgOAQAdBvOnHAuVQ4dkXV5bslSpQEAAAAAQHaoq3uPdu7YqULh4qKLL6TRJ45SIQAAAF4CxyEAAAAAAAAABIx77vopLV/2sgqFC7mr8r7PVAgAAICXwHEIAAAAAAAACB0zv3cDfeObF6sQCBLScbh/vwoBAADwkrzNmzd3fLnmdBUEAADglp/cO5sOKzyU5s2bp2JAtpk7dy4988wz9Prrr6sYAAAAIDU333wzbd++nZ5++mkVA4LCsGHDqKmpiT799FMVA8LK7Nmz6cWlL9GTTzylYgAIF6NGj6RFv32SvvGNb6iYridv06ZNHeNPmqCCAAAA3HL3vbPpwIEDNOv2OSomkYIeBdSzZw9qaWmlttY2FWtPXn4e9e7dS+bj/E4ZVllOm+q3qlBqWBfW6cCBg9TR3qFik+NGfyZbNrS2tUn9/7BiGT009xF6YekylWrGr/r7rQ7C2Iac2hB0/Rm/2RB0/RkvbUAbcm6D/ixIh1X/uQ//irY0bKGf3/crlcOM3+vg+//1H7Tx/U209PkXVWoimdgQxjbk1Iag68/4zYbO6v/07xbSildfo6XPvaByABAuji4/WjoOjztmpIpJpLPPAjgOAQCgk8BxmEi2bIDjMDmd/YKQDj/qz3hlQ9D1Z/xmQ9D1Z7y0AW3IuQ2ZOg55qjJvLvLM/z6rcpjxex3Me+xBWv/3DeL5l3zGQyY2hLENObUh6PozfrOhs/qz4/DEMaNVKgDhpE08B+E4BAAAHwPHYSLZsgGOw+R09gtCOvyoP+OVDUHXn/GbDUHXn/HSBrQh5zZk6jhMh9/r4JFH59JbG/5BDz7wiEpNJBMbgtCGxlWPpbfffoc+//fnKsaMVzZ0lf7pCFM/7qz+gwYNVCn2sP69evWUjpXWlvT26hxdMYg+aNimQqnp0bOACgoK6ODBFkc25LMNQlqE/u1p6sBv+j/w0C/pT6/9mV5a/pIj/Zls2dDW1t7l158JShvatm27/GtHJv3Y2IfhOAQAgE4Cx2Ei2bIBjsPkdPYLQjr8qD/jlQ1B15/xmw1B15/x0ga0Iec2hNVx+PC8ufT2P96mufc/rFITycQGv7ehvl/oS6vX/YUmnn5O0hdlr2zoCv2dEKZ+HHT9GS9t8Jv+b/z1Nbprzj30+p/f8F0dhPVZ4JUNRv2xqzIAAAAAAAAABIzvfvvalE7D7grvqMxgV2UAsguPiDuy5EjatWu3igFhAY5DAAAAAAAAQOg497yz6aSTq1UIBIU+fQ6Tf/fv/0z+BQBkh/79S+Tf3XAchg7PHYeRyvF0waRzEmViBUVUHo1CGj7xHDq9slCFvSNRp/E03KxMlyLPl2BvV5C9a5aUASVUqj6C3FBaLdpwtXYTN362o/NtUdT3APUxAKS7HgAAAAAIL+eefw6ddHKNCoGgsPfTZjnSkpeJAQBkj5L+JdTa2kpNTXtUDAgL2RlxGN1IK5e8TC8YZG3zcDp90uisO53YkXD6oB1mfWr3U+XEc2isRw6RaP0qemFFA0VVuNswYDRdUFOmAiBX7Fwt2vDqbPzqU0JjRZ9NvfwwAAAAAADIBuedfw7VnBS+EZMfffQRzb3/IRUCAGQLHnGI0YbhJGdTlXeuXkX10RIam9XRQCU0sEyc+12LE2/HelrbSFQ6CCOTAAAAAAAAAP5HGzGJqdYAgOzQv7QE6xuGlIKZM2feueDxhSrY9fTudxSV943SB1s+oYMqTuMgffx5ER1TVUTN7+2kfdSLjqg4ioqaP6QP9phzxuGpuWfQKSOH0THHsujHCiIVdPr55dSrYyidcupxdMzADtqRcM5CKju2lAqbdyWcY1/jZnq/0bDALo+mmzhSnWcYDeiIH8PTPc+u6EkdVTVSlwGFh9PxNf3jukg0XY/vtYs+7ldNZ4/qadCHR26dSmNU2SY7BDwqckK1nlZKHds/pI9tL4mTayZIYQsj7eFrZpNu1sWgTz8ebciOVr6mw6ho72bawd5YWQ81dLyevygav66O6ijFOUXGhGuv65rqvBaSlpHyOlnbnqFe5Lm/JOzqJ+zSj7fWW7q2K47f25OOnxi3IXZNGYtuRvvk9RqohSMDh1EZRWO2WfMm9scUepnQRhvyCGE+R7xMp8crUtghSVEHup3NA0+Ntw9LGzK1HZEWPXAE9aOd5nN4wBkTJ8jt+V9f+YaKSSQ/P58KCvKpvb097U5ZeXl51KNHgczH+Z1yRL/D6V97PlWh1LAurBPrTek37nKlP5MtG9o7hC7i/ylTL6e1a9bR++9vVKlm/Kq/3+ogjG3IqQ1B15/xmw1B15/x0ga0Iec26M+CdFj1f2n5H+hvb65WqYn4vQ7OPucs+vSTT7vchjC2Iac2BF1/xm82BF1/xksb/KT/2eeeLXVY8eprvqyDTJ8F6QhrPzbqn7dp06aO8SdNkAEvYCeNnBpsN1WXHSYTB1DjilW0McoOiPFUtm0Vray3czsox0Xj+ti0THYSjC3bTWuXrKedsqzhFDGk2yH1qdLXBFTHqpCOlme/IU07d2Gdpptexs7al2ntjsR0icG2nWXGa5DEjqKNIn03lYprUNlssIEdKTV9qF5eIy0qTrprpttC8ePVdSKTLYnp+4Rt9UVGvRntfJXEuoo4qRvFr5MMlyRcl5itDupI6pPinJRw7QUJ10gdY7yOBhLrT49LXueyjihenklP3S5DezKXl6TOrW2Xp/Qru03Hy3S9n/DRWnmk9DfqppVLSdumSW9LGpN4HYyYz5tQvwKTXTLGQBo7Es9t1s+RbYbjtbDo6ynaW1dx972zqaWlhebMulvFJMI363y+ubeJmzs/1FLAqfLGLvJxfqeUDx1EWzdvU6HUsC6sU2trG+WpuFS40Z/Jlg1tomzWf9nLz9MjDz1Ky158SUu04Ff9/VYHYWxDTm0Iuv6M32wIuv6MlzYEXX8mWzboz4J0dLc29Iv776MPtv6Tfvnz+1VqIpnY4Pc2dPmUS+m888+lKy6dKsN2eGVDV+jvhDD146Drz3hpg5/0//kvf0rbGxvpF/f9ypd1ENZngVc2GPXPF6eUH3zPgDIqZceMwQGwczU7CEpooGFtwp3bUjsI5HqDJseE2iAltmFEIZUOYqeS0fEhzlu7myJVww1rMu6m7dJ5weym+rp9FBlUEtt0IlI2gCLRHbRT837FsbXjZW0NxEgJlUXMado06kKqrMpkGrVmS7Rug3LUCKINtC6mq306r//IjpnEtRn3ieubdCyZNtW7UehruC583aiMbY6Tqo6cndN47bXzmmwQx2ys3UjRsuEpNr0xlpGuzgspUqSiFXbrVhqPj9ZvkFPxK3njGqdt1zCFPtq4Q3zuQxHWP9LXspmJKEvVkS02dWBuuwrWK7qR1imnIWPSOx0O7YqR0g6H/U7oW2+wbXsjF9tHfBY6S2ewtQ5UIAvki5t3gbgZJxO+sct84q9dulH4ps7wA8EuPZmIA2zj7YTLZvhcdulWcaM/S7Zs0PXn41Lp5lf9GT/VQdD1Z/HKhqDrz+I3G4KuP4uXNgRdf5Zs2RB0/ZlMbHjowUdoybPP2ebTJRMbsqW/XbpV7PSPiC/In332mSmfVbyyoSv0dyJe6c/iNxuCrj+Llzb4SX+eqtz0UZNv68CL68/ipzrQJRs2mPSfOfPGHE1VFvT+IpVXRCi6had0pp52GykbSuWH7KGNpnL2U0fRMBpAu+iDaKEoqzc1vWecHpqM/bTjvc30vpIdHaVUPlCInDbZi4aMLKVSno6ppktq0x7ZkcLH7aSDbJNFl4MHetKAYweo6amFdPSoYdR7Wx29L2wxXoPetnYo+pXT8QNL5NRf47nL2GkVtZtumW6q8uHSloMNdfEprwJN177U/N7ndKRNegKG6aPlxb1EAR9r9RkpFdeF5DXZR4U0oOoo6v3RZrMu0XYq0qftEte3wzpKck5KuPbaecsGHmW6ZsdUHEG9RY49sm3JjDFkfZjK0K5T8jr/J/1TTqvX0yzTkGU7ttp1kHoVC90P+Zh2kGhbbtuusW98HKUOoVulrpdleq82PVlrH/yZpzib28NhNEBcjwNC531FlrbI7V4vV8pR1K+30L7Jrk1pU/1puzaFOm2ftB4fTWVHujrYScR2HvgnvWNne3OhqHP7OtCvjZfwVGXeYexPf/yz/KXLTvhXHh5Szr8itba02eaJSXs7FRQUEP8a1NLSap/HRg7/YhHt+egT2zSr8EMjLz+PDh5sobZW+zxGcaU/S5ZsaBHXnfW/4luX0ZratfReXb1tXr/q77c6CGMbcmoD2lDX2xC2NsTiyga0Ids0q7AN+rPALt0oVv3Lh5RT71696ZNPPrXN7/c6aNq9hz79ZK9tvphkYIPf29CXx3+ZDjvsMFr+4suJ+ZV4ZYNf+0CQ+3HQ9Wfx1AYf6X/9DdfQS8v+QA0NW3xZB5k+C+zymCSk/diov+amzBU8AsluVJ5jEkeCZQKPHltZt08bGRcpFKXy6DHDrssxMY6GshDdTY3RQlGEOFqNHKw3jORyQqSIR05po7ASzm0chdhZEkZ+2cNTPeVoTDkNWNNDXic3qOvpFPfn7EN9hTHROh5JarheUvQpsWlwUuc71qswb+pTKHfhvmDS+BQjGtPhpu3uo43qWrwgR3CO1q5RJzcWKuwrrLbZ8ZxFn7rsnlR2pbAj037nI+Swb3FDTib6EPJ0+Vjc5DUKUZ5tvJ24PYfX+XVxa4NePj89U53LrT5u8+sS9DoIYxtyeg63+rjNr0uY6sBrfdzm18UvdeC2bF3C2I8z1Wfm926gyd+clJBPF2t+pxL0OvC7/rt27aJ33v4/Uz6reGWDm7wsbvPrEqZ+7LU+bvPr4pc6cFu2Ll2tP1PSv4R27tzlWie3+XVxa4NX+rjNr0vQ+7FR/xw6Dgtp+HElFN222zTdMxnR5v3EDi+zE0pzGu1rdubk0JxSoxOnbApk+fLDPuLSCovcuLsYbUotTwEeXsXr+DXaOjvs7dDQdFDTU7uE/bRXXFyrLdJBGd0rNLZP19CnMbNDLu6Ak84mW/YJ/dk0dn4akE7K/TzYzAFuz8loNiSc1w2u6lx3fmkOROkolhTKthhHc6BF9wrbu6DtxtAdmNLxZp4CruO0DvbtFedO0had0Cm7rHZk3O8U8nj7OgAAAAAA6I4MHVpBgwcPUqHw8PSvf0uPPjJfhQAA2aB/f23QCnZVDic5cxyWVo+nSjej8nawI66ExhpGWZVWsxPQvN5dKqL1G7UyYusZ6ignZh2nq/UKq0aZRpPxxgzxdRDtkeVHhlMlb+CQbB0/ZYdpDTmelssOzR0btdFsNcbzaOswnu5kzbkElDPTaEukgsZUFSqHrZ5uXP+ONxbh8x0mQ0YnFDteeXOKGNG98XX4BNLmstE0Nra+ndCdd15O4kRNRspzJrCPNr5rPa92XDIncSLp6ly7JqYRfnJU6T5hWrz9ltbEzxepHBVv351tu7J9mEc3autJJrmuNnWgtW0zsf5gsquCThftzXgt41gczW7tSmlH5v1OQzs+sQ5UAAAAAACgm3H9zGvpsisuUSEAAPAOHm3IO/5+tPsjFQPCRMHMmTO9X+MwYR21YVSWt5FWLq+jj1W+9Ov18Tpnu6ijqoZOGanKKOJpvWoao2m9RHmADdrahs3Fooxqoz5HUcuGl+mvW7UDD+75kHZ0HEVja46L5ZH6qs0wkq/bqK3vxnrVr+F1/zTM+VmHKBWfWkNj9PMP1HeCPUgfbxE2VoymscpGXk9P3wE5Ee2aJazvJ8vsoB3ifFFhy/t7+9Epp2nrBfLafwcN5Wm2DqVTTtVtPYp6N3D6J0KXKBVVj47pWX7IB7RyQ6u4ztp6eR9HW6iXWrNuQMcuuavb+9s76JjTauh4eUypeQfltHXE9qc+p3GNvlgRvP7j3iIaU6Ns5OOKP4m3DQt29Ze6zhP14uv4r9rX6B1uwGqNw611LXTCqfq6jMbzZ9B2TWsc7rTX7Y1tUn/rGodl0Y3UOEg/l7n92LXFRLuSbbxykA72KtXWepTtaxttTWWXFVFPqexI1++MduoY46xtmdtO/Z4jqJ/lGC/gNQ75Qfr6yjdUTCK8BoXTLfN5jQtewDZsW/4zbm1o52H34v8pUy+ntWvW0fvvb1SpZvyqv9/qIIxtyKkNQdef8ZsNQdef8dIGtCHnNujPgnRY9d+4cTP94623qbnZMi1D4fc6mHjmV2n//s/or6veVKmJZGJDGNuQUxuCrj/jNxuCrj/jpQ1+0X/UqBPohJHH08InF/m2DjJ9FqQjrP3YqH/epk2bOsafNEEGAAAZwKP0Jg6gxhUO11QE3Y67751NBw4coFm3z1ExifBuVD179tAWo20VD4QU8MK4vXv3kvk4v1OGVZbTpvqtKpQa1oV1OnDgoKOHjRv9mWzZ0Coerqz/H1Yso4fmPkIvLF2mUs34VX+/1UEY25BTG4KuP+M3G4KuP+OlDWhDzm3QnwXp6G5t6H/u+wk1NTXRPXf9VKUmkokNfm9Dd8y6jf6y6q/02h9XyrAdXtnQFfo7IUz9OOj6M17a4Bf9p181lSae9VW6/JKpvq2DsD4LvLLBqH9uN0cBAAAAAAAAAOCaV/6wgv7yRvLRht2VsdVjKFKEhawByCYlpf2xvmGIgeMQAAAAAAAAAALGq+w4XPVXFQoPfQ47jD777DMVAgBkA94cZddOOA7DChyHAHSWaAOtNOwCDQAAAAAA/M/ch39F37/pP1QIBIU+ffrQ/n3erl8NADDDjsPdu3apEAgbcBwCAAAAAAAAAAgE4048hf76l/BN0QYgl/CuypiqHF7gOAQAgC6Ad6ri3a2SCac7ycfiJq9ReAsuu3g7cXsOr/Pr4tYGvXwSp0t1Lrf6uM2vS9DrIIxtyOk53OrjNr8uYaoDr/Vxm18Xv9SB27J1CWM/zlQfGUxxrDW/U8lWHdx73910+6xbbfPp4rZ8ljC2IafncKuP2/y6hKkOvNbHbX5d/FIHbsvWpSv1LygokCMOP9r9kQy71cltfl3c2uCVPm7z6xL0fmzUP2/Tps0d4086XRYCAADAPbyrcltrK9015x4VkxsGl5fRh1sbVSiYZGrD0mVL6NFHHqPly15WMbkh6HUQ5jbkF1AHuQf6555s2XDW2WfSp598SqtXr1ExXUO29J89507697//TXffda+K6RrQhnIP6iD3QP847DT8w4rldOZXz5XOw2yBOsgtRv3zNm3a1DH+pAkykJoSGjtpNJWqEBOtW0Ur6/epkD+JDCgh2rGbnC8/l2gnNa6nF1Ybh+UWUukAop07OmN7V5TRCcR1KRXXZacKusZwfKRyPJ0+aAetXNHg4jrnki6+9p29lp0hUkGnTxxAjSt4jUWt7VLty7R2h0rvJO77j4eYbFVxJoz12hXXwnk7YcdhS0sLzZl1t4pJRP66U5BP7W3t1NGReot9Tu3Ro0Dm4/xOKR86iLZu3qZCqWFdWKfW1jYerJcWN/oz2bKhTZTN+i97+Xl65KFHadmLL2mJFvyqv9/qIIxtyKkNQdef8ZsNQdef8dKGoOvPZMsG/VmQju7WhmbfdSd9/vkBmvPj5N8/MrHBz23oC1/oS5dPuYwemvuIliEJXtnQWf2dEqZ+HHT9GS9t8IP+J4w8nn79myfp+CrxfiXwax2E9VnglQ1G/Xn8YVrYMXSBegl/YYku62lflYivLlG5/Id0aB1XqEIOYMdEgp2rqL5oNF0wsYIiMlMhDZ84niqLZCBDuqKMTjBA2FNTpgIZ0Nnjc0oXX3tfXYvdtFa02S5zGrrtPzmlq/uU+/La29uppaU1qbSJdIb/2qUbpa2tTeblm7pdejLhZ4ZdvJ3oDww+l126Vdzoz5ItG3T9+Tj+smDNo4tf9Wf8VAdhbEOMExuCrj+L32wIuv4sXtoQdP1ZsmVD0PVnMrFh06YG2rJlq20+XTKxwc9t6PAvfpGuvX5GQj6reGVDZ/V3KmHqx0HXn8VLG/ygf79+/WjXzl2xsF/rwIvrz+KHOrBKNmww6p/ecRipoDFVhbQzYeTOblq7YiNFy0bT2AEqKuBEygZQJLqR6k127qONtcLOyAAqjagoAAAAAAAAXKL/yMR/08GjAjgv/yjiho927VGf0qP/4OJktALjRn+Js2JBhsx/9AlauODXKhQODj3kUPUJAJAteKoyNkYJNwUzZ868c8HjC1UwkciQL9Exh3xA6/7xCR1UcTEOfkIfvLeZdhimDZZWn0MTqofRMceylFLH9g/pY3kgTx08lcr2Rqls4qk0RqYPowEdu+iDPXrJPMrnDDplZOLxXO7YSAcVn1ojjy3aq87LI74mjlT54+XJ0VJVhUS9j6Byox5J8jO9+x1F5QPzac97O8k0OVHaycerUUgRkbf4KDpmYAft2NKLTpg0mgo7+tEpp3K5RdTMx1vOEz9XL5sytGub/Nox2vWLXzftWpSJ69BRJY6ripfDsP1nj+ppipPIEXI8SrSQykQ5sevIoy3Pr6HjVfnHFEXp/cb98hATNsfv6S2uW98oHSiuoVN0/Q12SZyWH8Nsb+y6qtTM2lnya5+0Xeh6G/VVeYsKimjMCTbX0koK22U9VfQUdSiunWj3xvZowtqe9DJ6f5HKKyIU3cL267Yb9Ehml0Bew4FRah54avxaqmvSO1n/MZG8v2pY0w11KK/Jl6jX3p50/MT4tTFdQ8t1KzrwMfUq1m1VeSR2/fIg9RP6UHMHHSP6iZPypcjrmpe8nSThjIkT5K84r698Q8UkwovKFvBwcvGy1dGe+k2Kh57LoeQin+OXM8ER/Q6nf+35VIVSw7qwTvLXJwcvdm70Z7JlQzu/7Ir/p0y9nNauWUfvv79RpZrxq/5+q4MwtiGnNgRdf8ZvNgRdf8atDZxH6u4kr4DzOnXq6Rz4PNUTywyX7eRaxnCpP8+36tGjh+d1oD8L0mFtQzf/8P/Rvz/7N+3cuUvlMBPWfuxn/dmB8Y1LLqa59z+sctjjlQ3ZuP5M0NsQ49SGoOvPeGmDH/Q/65wzWRF65eVXZdivdZDpsyAdYe3HRv3Tjjgs7FsoXr73OVjjjF/ez6GxRRtppZrmu7KOqFK8gA8XL+A6pTVltF2fBly7myJVo1S6evkn6/Hx9QYjVQNo7wotjUc/stPlghqS0zO1acXa9OnTKwspWr9KHL+PKMrlaWuipcrPROs30k7peDqHLhCix8fZRxtXrKJ6URav7/hCbE2/QqoctFfpvZ52skOipg/VK101W/YpW+3KUNeO1sfyv1C733DtOF1cB15rUaavosZBw2PXZee23cI444jIQiodJK6BiE+otx2iDHHdTdNapXNpOO2LTdEWNpSJOLtp6HbHM5HhVLZX2KP0q6fhdLp+vCyf16bTy1fTv5NOc+c6MNorztMo4uR08c60M/v6S9kuog20ku2NjawVetSUyOPX/l+Sa2HEybUtG05939XSbdcM5TLEOXnUr7GMxPZpJl17l4hyBm4zlCvqcYxIt+s/VkqrRX9tjteRrIcafUo/1+F4KtumtwlO76PVq0xnRL85jmhdLH2fqDc9net7OBHXk0xfT1Q1XJVtJVm/FDpW9aV6VT7XVWmN3k608uP1oqVr9Zy8PAAAAAB0Hy648HwqKTlShUAQ2LFzJ9180w9VCACQDfqX9seIw5DjaI3D6N5UI8MUkRIqi+yj+tr4S3a0foN4+S6ksrK4oyJax845xY5G8bmQ+vKLvO3x7DRYH88f3UE7Y2/wmnNsZ60hnR040kkUd6rFcZJfcwBJh4kgwms4KidiuunYJicdO5sszpZo447kzgdpuzi3cQOWHetpbWMhVVaVEA0YTpWm9H3a9GkV0q9j7Dqra9nYaOOEsqF0kDhHozhfzPGlXRdRoM11TMZuqo85vfbRzm3ic1GhdPRw+dG6DYbrofQvG25y9sUYwOc1X4+dq1/WHDidbWcJOGgXsi6EHceNprHswI1upHUONwVydm1303Y7p6PCtgxupyl1cNg/TFPzhR7CzkjfPiqcClG3lvX/ZH/VnWxch5brpNVTCVUaHJc73zXUo+wjfSgi6ilSKXQ0Ha+um0uStwPtGpqcvTIdAAAAAGHg8MMPpyOO+CL984MPVUzwmH7VVPr2d6arUDho+qiJlj7/ogoBALIBj/TdnWRkNggHzjZHceJIiPSlCO2naMw5xGgOJOPx+5qTODtsj7dgGvnYRzoASms0x15M5DRaO5zn1xyW+kgkzfESH6lkj71dPOpKnWdistFSAmm7Ia+SsWrPjUiRuH7RveJqGojuM4SVw2dQiTyHtlaj0cmaCs0BlOAclk4UzYnjCKt+MbTyjU5YKSmuh629Op1tZwk4axc7V4t2ECmhUovTMjUOr23Sa8ckKSMtDtu7o9HEduyjje+yA3S0KtvcP2QdRobT6cZzizw8/TfOPtqb5OS2I53FdXKra/p2oI1g1fQzjoYEAAAAQHdm8FGDaLv4Al1X956KCR5Hlx9NQ4aUqxAAAHhDCdY4DD1pHYf79ooXbzVyzA5eJy3VlEnpAPCCSKF45SfD9E2jGEdZKdzmj8EjkzjdPKItJTxVWTkiCvWplryRjEq2Ip0sagRUgm7GUYgp2Fmnb+CSYpqyG9T16jyaA0tO+Uywz34KbCZk3M6ctovY9Ug2ctEFXXZtU+DUrs7A09ZleTytt5AqpQNOcyDK+pDTnK3nTjdSMlvojnrjdOsuui4AAAAA8D3/eOtt+upXzlahYMJrVPK6VWHjkEN608Qzz1Ch7MI7kh482CL/OoHriPPLdctcsGO7cycNl83ncLzJUQY2gHCDzVFAWsehXPcvMpwq7abqRiqoskyN6pGjgawj1FyMlrI9PgVqxF1hkUMXTNr8miPB3gm6P+nIKDv03ZnZaRJzksiRcvZEm/n6JLddpovjTZpZnU/R3dQYLaS+Ze6mKfOor2gzFx8frSdxMgLUEdq1czb9VcPWXp3OtjMrjtpRIQ2vGS7rdK1pHb50dMW1TVJGOtz2j07BawKy401zILKDXf7gkKwOHWD7g4W8bl2EPh2eHYa6cz4bDl0AAAChYM4r71D9K7NUqOvxuvzOM4vm3KM+As8Iq+Nw0OBB9MBDv6Sq445VMdmDrzk73Bw700Q2zt/uYPMCI/v3faY+pYfLlk5ApyplYAMILzzakDfi2A3HYahxMFV5N9VLZ4l1nT9tc4GIvvaaclzFN0cQ7+GVo6jSqRNLP57X9NORI/eSTRHW9IpvrqLBIyAvkJtoiCJNDqh0+fX08YnrGao1BrU1/Bw6coxOE7lZinGKqKWMHRu1EVuGa2dyZMp0EY5tqKEcWSqkoU3XLeUNJNJNU7Y43+TmKnJTCC0sz836NiZZ882Vkzc+pdV4XeXGHcmmhsqpvOa18OQGIZy/s+0sof7StyOt/N20dkUD7VTr9MXqIs21cH1tbdDKMK8HKfVLurkMk96udKR04HIbnGjRwbC2ZmyjIVO6NhI3oX/ZoP9gwRu1aKjrlpRMHKzGehPlm6bPZ1IeAAAAANhpuHzzJBqlQn6ksNDb5/tHu/aoT+lpa2unlpZWx04c3g2T8/PfWXfMoR/cfJtKsYfL5fx8Hqe41T/bbNq4mV7740q67fYfqBgAgFfwaEMGIw7DjbPNUeSmBxup0LRempqGa9ywY8XLtLY5vq7Z6VVE9SucTkfl41dpu+3q55A78SY/Xtv5lXfU1XVSu+3qGzQoBxQ74NhZkS6/vZ1CjuMdk+PTGHVnUDLHF5cjdwHWj5d2mKc7m8tQtvNOxLHzatdXG7HI6eJ4mZ/TeLdaw6YPCn0DlrTTlHXnm7gOmmNyvcVuoRPvaJxsmrT1+HSonZiN6+2dXrVfTQG3Q5sezjsA6/m13YE5f2fbWWL9pWwXA0aL8o2bjIjzy41d1K7G6a6F22trh7x+vMu2QT/egTtNGWn7Rzos/ceMtU0KkbsU6/WgpvgnpCfZfToBaxsYTcTT8VWqHen6pQlxTc3XRpQvdOedlOVmNAJX5QEAAAAgENz1kx/TT392rwp5w95PHX4pFbADsK21zflosfYOmZ//OkJk4/x8Hqe40T9Xw9Fuv20WDRo0kE4YebyKAQB4gZymvHOX8xGqoFuSt2nT5o7xJ52ugiA4sENnOO01Osx4RFcaZysAoOu5+97Z4kt5K92V43lZg8vL6MOtjSoUTDK1YemyJfToI4/R8mUvq5jcEPQ6CHMb8guog9zTGf15+h+vHcZTiSfTEqo86w4Rq43Ao9rVVFxTTUUyZ5Rq7zqZXj/jTbq5Ro13b15N946+mhbY5idqWDyCzrtF+2wuXzB9Pq25NZ6XGuJp0xeJc1TVUW1TNdVUyCiVTvI8sShD+anK09KqqG5xHVVNtuqn6a6XSVueo5EX3qUCzvGiDZWXH00/nnMnHXrYoXTNd6+nPU3OR9UZ4WmhBw8cVCGQX5BPvXr1VKHsUlhYSPv22c846kwbYgfJgc9Rxzr5+XnUq3cvFXJOmJ8FfqCr9L9iymV01tln0tQp2d/BHXWQW4z6OxpxCHKMnKZrnrJdWj2aSi1TkuXaio0b4TQEIAfwb3ByjZkkov9Kx3/t0s2iRgWIQ+zT7cVZ2ZroAwT4XHbpVnGnP0t2bND1l59TnMuv+jN+qoOg68/ilQ1B15/FbzYEXX+WBBuUjnZU1BTTq0NHUKWQxQ0Rqrn1HbqW5slw5dAl1FBUTdcumqZyc/4qqrtLy1+5eAtVTH6TnrR7b7tnKdWzI0/PO/Q+qi2eZF4DUZRd1XSfln7XamquEOmbR9IGmX8E3VsbFeUvpTmc10l5JPQ/k+jhhOPvoPPYFpGDHYlV59ypZfe4Dpy0oebmKL3x+iqafNEl1PRRk22eRElsQ3o7BAp1OXLRj7lOjeEf3noLTTzzqzRo8ODO9WOOE3i7lugsWr75HVru57VA75kl7wmxJm9TB6nEaR3ksg2lks62oVTizobc6n9kyZFymrIxzp3+LNmxwZvrzxL0NsTi3gZj2fkxDYF/SZhWaZ1yqk0nldN/3UyBBQB0GXJHuwMHk0orT0MS8F+7dKPwWkRMujKtwrdzu3g70Xf343PZpVvFjf4s2bJB158fbG0pbPGr/oyf6iCMbYhxYkPQ9Wfxmw1B15/FakOrOqcdzbVLSF+N7rYNW8S/W+jVKQu1CPG5qVl9VDTXzqMrF6jALRdqzsZLE50Yc0YNMeelhXTlA+wcnGhwNBrOtWAV1YlzGfVZsL1JfXJaHlHDqzw6UmPBa3XUTMU00OLYPO208fT4gkdp/oJ5NGzY0Nh1O+zQw0T8vJhceOHXYmks3//P/4yl/eCH/21Ku+zyS0zHch3o1/+EE47X4p98lF5ZsYy+ecnk2HGN23fQQw/Ok3p1pg21HGyRcUBHdBhBrvtxzx495SYOP/3ZPfTi8iV00UUXmdL/339/P9ZmfnLPbFPa+RecJ+IfVTKPIs4Wcu/e8A8Ik0fKj7qDwqt7qfU+mk6C8CxIJ25syLX+xf2KaceOnaY4v9aBF9efJdd1YCfZsMGoP0YcBgS5/iLvAKuLaZ06tTts0jUDAQAAAABALmnarjsJnWHN39AkvvkVl5HZNzeNBhYTFdXcRPWb34mLcZox09wkRwGmx2F54lto0/vqYwo++qiJ1q5dR2vXrKPmvXHP6MGDB2l17dqYbNu2XaVobNy4MZZW9+57Klbjg60fmI418sknn9LLy1+hRx+eT9OnfYcWPfUblQK6O/v376cZV18nR8CeOeFcWvmnlSpFo67uvVibeeutt1Wsxo7GHbKdrlmtpbeI9gkA0CgpLaHdO3epEAgrcBwCAAAAAAAQSIZQcRGPHlTTkE1ysmHUoFO6trx3362jRx56lB6a+4jJOfjZZ5/R3Psfiknt31arFI1ly5bH0p7532dVrMbrf15lOtbI5k2b6TdP/45WvfEX+mDrP1WsN3g7jdX78jvPLMrx0s5J+fDDbfTpp5+qkMZzzy6NtZlfL3xaxWqwY5vb6dwHHpbp0ajduomztKnFi+bTmphTXVs+gNcRjTnZ189Xzn27/GmmJvMoP0PeNYalC+Q5RNlPcrvQ88j2oZ1HjzOVz+uRGtKM7Ukvb45R982G5QomDxEfhtBkEe/r6dTAc+TmKNhROfTAcQgAAAAAAIDPKB4YdxowFcURoqbG2PRgDW2Kc1Exv+R3BV1dHuiesLNqEo1SoTDh1Vql0pE3mWixKpvLaqq5yeQ87PK1SkV5Z8Z0F+nNQ2gyp99yodSV7wesT2zTJBBK4DgEDByHAAAAAAAA+IyimhlxB8M9S2lyRZRqf6d2No6xkK58VbzgV0wyjQrSRkApB4IruqI8zflodXwC0B3wZq3SaXRaVYQaFl8YK5t4o6HFW8R9YJKh33X1WqVG3RfS63V2yyGAMHPkkcVUUFBAu+E4DD1wHAIAAAAAAOAzGmrrqOpWNYVwcjHV3pVkqrAaHVQxWZ9u+A7dXNNEi4canRAu6HR5mgNCrpP49/k0VcV2b0I0jVWNNqwQn7iN1P1B7ZwdErxZq1RbIsDY56TI6cIGunqtUsflgbDSv7S//IsRhwCOQwAAAAAAALoAfTfW284aQZVn6aMD76DzrNP92DlncsQtpCtHj6BxsdE/gu1X0zg5hZDF7DQ0ly+Q5el5WeJlL5hyMlWOju+AbHsuqz4pyqMFrJfFiWmJk+fk4068mp7SokJBKKaxyvYsbBGfGhaPoKqzw+U49ITpZVQs/vD11K63UZw67I109dqnIKzwNOXdu3dTe3u7igFhBY5DAAAAAAAAuoDp3w7H+DpgD6axAiuO1ipd0EhcO103vR9rlYKuoYTXN9yJ0YYAjkMAAAAAAAA6zaGHHkrHVh2rQiCMYBorsOJsrdI7aHEtT+835BXInbVj09vd0AVrlb7fRM1UTAPhKQ412BgF6MBxCAAAAAAAQCf50ojjqK2tjfLy8lRMIpyWX5CfMk9savMPxBd1kTc/P1XeRPoUHqY+pYfL5nOQw1M40x90KZjGGmicrlXK0/vvrSU5vV135k4uXk33mpYZcAEvN9CZtUrlqFVtur1pSjwIFXKqMhyHQADHIQAAAAAAAJ3knx98SH989TXq6OhQMYmw061Xr56asy4N7JzjvLyjpRsGDCxRn9LDZfM5nDoC3ejPwMGYGkxj9TferlWaWF5sbVBdDE7Drl6rNLE8a5xWPh9nOgcIFSX9+2PEIZDkbd68uePLNaerIAAAALf85N7ZdFjhoTRv3jwVA7LN3Llz6ZlnnqHXX39dxQAAAABdz+f/PkBbNn0op5FOpiXKsaTtNEyLDY4g3oBEbmiiO2um0ZPrb6Kquvto3JQhamfiaHwEmswfH5FmLJ+nmN5cQ6bRajJdjUgjTq+qM4xOM55LOX2M+sjPQ+QoRl1f7RzaiLSGhPJUeiwuXv4Z1y2mQUcPULm6B60trbTxva0qlCk2bSKgHHJobxoybLAKgTDxyCOP0KJFi+gvf/mLigFhJW/Tpk0d40+aoIIAAADccve9s+nAgQM06/bkq8YU9Cignj17UIv4MtrW2qZi7cnLz6PevXvJfJzfKcMqy2lTvbMvuqwL63TgwEHqaE8+OkbHjf5MtmxobWuT+v9hxTJ6aO4j9MLSZSrVjF/191sdhLENObUh6PozfrMh6PozXtqANuTcBv1ZkI6u1L8rHIdUu5qKa/S1BQ1ORIG5fN2xp+3aLWmOT2M1O/WYNI7DWNg46nBLLC2xvMS4mD7Na+jnp1xHj4WoHzuj+zgOGXYeelUHbq9/d2hDbmzIpf7/V7+Bpk25iv6+boOK0fBrHeTiWZAKv7QhJhMbjPpjqjIAAAAAAAAAuMDbaazW8v02jTWuT9WYq+kpFQeM2LQJAAJEcXE/6tGjB3ZVBhI4DgEAAAAAAOgkN//w/9Ev7r9PhQAA3REetcMjffivI0Q2zp+f7+61u+8XDKNL08Bl8zkcb3JksCESKaRvXjqZevbsqVJtwFKloaR///7yL9Y4BAwchwAAAAAAAAAAQBrYScfTA506AnmDIDkF0eGGQjpH9u+nPqWHy+ZzON7kyGDDEf2OoB/PuYMOOaS3Sk0EmxyFk5LSEvrooyZqa0s/DRZ0f+A4BAAAAAAAAIAuok/hYepTMuLTWPPz87Rdqp2OFsvT8vPfo8uPpuNPGKFSkiDK5fx8Hqek1x8A0N3p37+Edu3cpUIg7MBxCAAAAAAAQCf58J8f0uZNm1UIhJkBA0vUp/QUFBRQr149nY8WK8iX+fnvyJHH08Qzv6pS7OFyOT+fxylu9QfB5fN/f05r16yjllbnGz6AcCAdh5imDBTYVRkAADqJ17sqT5l6OZ0gXg7SEYn0oWh0vwqlhkce8MtEe3s7daTfuEsb4SCOaW/vEPnTH8DvPzwFhvPyMU5xawOXz+qcdtp42ry5gRobd6hUM37Sf+uWD+QO0HLqkmgXft09LR1+1J/xyoag68/4zYag6894aQPakHMbsJNmcjKxIYxtyKkNQdef8ZsNQdef8dKGXOl/38/voU8++ZTumn2PDBvxax3gWZCcTGww6o8RhwAAEAAGDx5E//rXJynln//cbhtvJ3v2/Iuamj6mjz+2T7fKxx/r+f9lm24VLpfz83ns0pOJWxt0/Z977gV65513E/Lo4hf9jzr6KJr5vevpuhuuUTULAAAAAACAvyjp3x8jDkEMjDgEAIBOko0Rh1+74Dy6ZPIVKgcIKt/7/o108iknyTWpHnzgYXrs0cd9+8tiOvz4yyjjlQ1B15/xmw1B15/x0ga0Iec2YJRJcjKxIYxtyKkNQdef8ZsNQdef8dKGXOm/4k8v0y9/8QAtf/ElGTbi1zrAsyA5mdhg1B8jDgEAAIAssmfPHrpuxo10/Y3X0nevuVrFAgCCzilfPpnOOvtMFQLAe04cM5q+ftEFKgSAe77whS/QDTOvUyEA4vQvLaHdGHEIFBhxCAAAnYRHHLa0tNCcWXermETkGnsF+dTexmsKpv4ViVN79CjQ1tcT+S+fcimde945GHHYDeARh8OPGUbXzZhJE874Cj007wGa+8DDNO+hR1WO5LhpQ4y1HTmhfOgg2rp5mwqlhnVhnVpb2xxtBpoN/RmvbAi6/ozfbAi6/ozRhv+++ftUUlJCN33/ZpWaiBsbsq1/kOugTZQdhvsQY7Rh+revpJNPqaGrp89QqYlkYkMY25BTG4KuP2O0YfBRg2nZy8/TSePG077oPpXDjNc2dEb/7lAH6WzIhf5HHHEE/fkvf6SzJ55PjdsbtUwG/FoHYX0WeGWDUX+MOAQAgC6Ab8L8sEom7eqGzn/t0o3CG5YwPExdC6d/GIDg8afX/ixHHt4gRx5+J6EdWMVNG2KxtiMnkq4dG0WfRsHnsUu3Sjb0Z/HKhqDrz+I3G4KuP4vRBv7IKtrl08WNDdnW3y7dKn6tg6Drz2Rig6Zfnm0+XTKxIYxtiHFiQ9D1ZzHaoDsQ+K9dXhavbeiM/nbpVvF7HdilGyUX+hcfWSzDO3bsTMjL4tc68OL6s+SiDtJJNmww6g/HIQAAdAF8Y+UbcjLhdCf5WKx59TDofujOwxv/4zq65rrvJrQFo7hpQyxu87PwC6hdvJ14rY/b/Lp4ZYNbfdzm1yVMdeC1Pm7z65JpHUgR/9nl08WNTm7yGiWM/dgrfdzm1yWbdZCXp71oJhO35bOEsQ05PYdbfdzm1yVrddDB5+r6NsTi1Aa35XudXxe/9AO3ZevSGf2PPPJIamraQwcPHEzIy+JWJ7f5dXFrg1f6uM2vi1/aEIvb/CxG/eE4BAAAAHKI7jzEbssABJt77/4p/efMm1QIAO95/LEFNPWKq1QIAPd8sPWfVDl0BEWTTFMG4YTXN9y1a5cKAYCpygAAAEDOgfMQAAAAAAD4gf79S2j3TmyMAuLAcQgAAAD4ADgPAQAAAABArinpzyMO4TgEceA4BAAAAHwCnIcABJfBgwfR0KEVKgSA9/CooKqqY1UIAPccckhvGlc9VoUA0OB7CxyHwAgchwAAAICPgPMQgGBy2ZRL6fqZ16oQAN5z1jln0m13/ECFAHBP/9L+9NTTT1AkUqhiAGDHYX/aDcchMADHIQAAAOAz4DwEAACQDt4dM4+3VQYAgC4EIw6BFTgOAQAAAB9idh7OULEAAACARnt7O+Xn43UOANB1fPGIL1Kv3r3gOAQm8KQBAAAAfErceXgDXXPdd1UsAMCP/HbR7+jB+x9WIQC8Z8Urf6RZt89RIQDcs2vnLpp6xVUUje5TMSDs8GhDBlOVgRE4DgEAoAvgqUL8q38y0acSpcvHYs2rh0E40Z2HN868jr4742pHbYjF2o6cCFGHbbyduC3f6/y6eGWDW33c5tclTHXgtT5u8+uSaR1s395IW7Zstc2nixud3OQ1Shj7sVf6uM2vS7bqoKlpD9XXv2+bTxe35bOEsQ05PYdbfdzm1yVbdXDwYAutW/t323y6uC1fF6c2uC3f6/y6+KUfuC1bl0z1Ly0tpT17PqbW1lbbvCxudXKbXxe3Nnilj9v8uvilDbG4zc9i1D9v06bNHeNPOl0WAgAAwD133zub2sTD9a4596iYruWyyy+hs885iy6ZfIWKAUHle9+/kYYfM4yumzFTxThnwhlfoYfmPUAPzX2EHp03X8V2LYPLy+jDrY0qFEyCbgPqIPdA/9yDOsgtaEO5B3WQe8Kq/zcv/QZ9/esX0OWXfkvF5A60odxi1L9g5swb71zw+EIZAAAA4J4zJk6gtrY2en3lG9TR3mErJP7Py8+j9rZ2uSaRXR5d2oXwLzu86Dnn/9KI42jY8GG0+H+XqDOCoFJzUjUd0e8IWr7sZRXjnK1bP6C6d9+jO2ffLn8FXrtmnW370cXajuzyWOXwLxbRv/Z8aptmFf7FkqW1tc023Spu+gBLJvqzeGVD0PVn8ZsNQdefxUsb0Iac29DmsGz0Y2c2hLENObUBbajrbQi6/ixe2pBt/c8443Tq2asXvSS+q9rlZfFrHeBZkFwyscGof96mTZs6/vd3i9VrCQAAALeUDiilAwcOpFxnqKBHAfXs2YNaWlqpTTwQUsEPgd69e8l8nH/K1MvpaxechxGH3YDOjDjU0Uce3v/LufTQ3HkqNhFrO3LCsMpy2lS/VYVSw+2Z2/WBAwflF4p0uOkDTCb6M17ZEHT9Gb/ZEHT9GaMN/33LTXJtqP+ceZNKTcSNDWhDzm1obdNetNLh9zbk1oZvfPNiKRd//RKVmkgmNoSxDTm1Iej6M0YbBg0aSH9YsYzGjjop6TqHXtvQGf27Qx2ksyHb+t/zP3fRPtEWZs+6W6Um4tc6COuzwCsbjPrnLX3+hZRa6Z5P9kyyOEH3ZDrNzxx62KH078/+rUKp0fVxgl/1Z2HPsBOyYUPQ9We8siHo+jN+syHo+jNWG3bs2AnHIUhLVzgOGSfOw85+QUiHH7/gMF7ZEHT9Gb/ZEHT9GaMNcBwmki0bwvqyOPkbk+iSS79Bky78pkpNJBMbwtiGnNoQdP0Zow1wHCbHL/0g2/o/+dR8+uuqN+nReY+r1ET8WgdwHCYnExuM+uf17zcopVZoFM7oTo0iHX7Un/HKhqDrz/jNhqDrz3hpg1V/OA67D13lOGTSOQ8z6Qd4FiQn6PozfrMh6PozRhvgOEwkWzaE9b3g4skX0aWXf5MmXQDHoRWvbAi6/ozRBjgOk+OXfpBt/f/w6ov04AOP0AtLl6nURPxaB/ARJScTG4z681YpAAAAAAgY+m7LM793A113wwwVCwDIFX9546/0h5deVSEAvOf/3nmXfv/bZ1QIAPd8+slemnv/w0mdhiB8lPTvT7t27VYhADTgOAQAAAACCpyHAPiHv/7lTXrlD3AcguzBG2bBcQg6w6effkpz739IhUDYOfzww+mQQ3rTbjgOgQU4DgEAAIAAA+chAAAAAADoLLzcBoMRh8AKHIcAAABAwIHzEAAAAAAAdIaS/iX08cf/ogMHDqgYADTgOAQAAAC6AXAeApBbLrviErr+xmtUCADvGX/ql+kn985RIQDcwyPMfv2bBXTIoYeoGBBmuD1gmjKwA45DAAAAoJtgdB5eez2chwBkk8FHDaahw4aqEADec0S/I2jECV9SIQDcww7DsePGUM8ePVQMCAv8zOphqXd2HGKaMrADjkMAAACgGxFzHv7H9fTdGVerWAAAAN2Ojg7Ky8tTAQAAcA7fO55/8RkacXz8xweeqrxr1y4VivOFL3xBfQJhJe/oQUM71OecMri8jD7c2qhCwQP65x7UQe5BHXjDZZdfQmefcxZdMvkKFQOCyve+fyMNP2YYXTdjporxjglnfIUemvcAPTT3EXp03nwVmxrch3IP6iD3ZKr/Ny+ZLHeknPfIYyomN6AN5Z5s6V9zUjWdd9459KPb7lQxXQPaUO7Jlv4lJUfS3ffMoeuvnUmff/65iu0aUAe5xYn+v3vmaaqsPIZ+/7tn6P5fPkC/+NXPaHXtGnp8/gIqHVBKF0++iE49bTz958z/osbGHeqo7IE2lFuM+hcURQ6/s6ND/mBlKwx7oztEwJpmL+qXL/G5XXw2pyWXvodH6NN/NdumWSVP/Nfe0W6bZhW/6s//t7f7x4ag68/ilQ1B15/FbzaErQ2xuLPBrP+XRhxHw4YNpcX/u0QrCAQWfsnjqWXLl72sYrxj69YPqO7d9+jO2bdTW1sbrVu73qatmQXPguQSdP1Z/GZDd2tD//d/daKf/d02ny7ubEAbskuzCtsQ1veCbR9ul6PMrXnM4t6GMLYhpzYEXX8Wow3R6H5a+vyL1NLSmpAvLt7aELY2xOLOBu/053LZMXhsZSVd/I1J1LdvX/r0k0/puhuuof/43o00+sRR9MT8hbRq1V9Nx7nTnyU7dQAfUSpxb4NR/7z+/QaJP8kp6FFAPXv2kDeTttY2FZucvPw86t27l8zLxzhlWGU5barfqkKpYX1axUtQR3tK1SV+1Z/1OnDgoG9sCLr+jFc2BF1/xm82BF1/xksbrPpPmXo5fe2C8zDisBvAIw7POvvMrDgOdcqHHE3nnX8OLXrqNzTnxz9RsfbgWZCcoOvP+M2GoOvPeGkD2pBzG/BekJxMbAhjG3JqQ9D1Z/xmQ9D1Z7y0wUv9i4oi9Le1q6igoEDFkPyxmcP8t/699+mbF18mPrerVA2/1gGeBcnJxAaj/ljjEAAAAMgS27c10p49e6i6ZmzW5Mgji2nTxs100cUXKi0AAAAAAEDYaW6O0mt/XCmdhDq6E5FHp93y37cmOA1BOIHjEAAAAMgSi59ZQt+6fHrW5Z67f+ro10gAQOac8uWT5YhiALLFsOFD6VvTMBsBZA5venHDzOtUCISRJYuf06awGmhpaaFHHnpM/vAMAAPHIQAAAAAAAJ3ky6eeQmefC8chyB68/vHUK6eoEADu+cLhfemGmddSJFKoYkDYWPXGX2j//v0qxE7DVtq1azc9/OA8FQMAHIcAAAAAAAAAEDhii90DAECG8FTkJYufl6MMmR49Cuim790cCwPAwHEIAAAAAAAAAAFDOg55G04AAOgEzz37PPXs2VM6C3kzvX/8422VAoAGHIcAAAAAAAB0knvv/in958ybVAgA7/nDy6/SGV85S4UAcM8HW/9JlUNHUDS6T8WAMNLQsIU2b26gTz75lH523y9VLABx4DgEAAAAAAAAAAAACCkvLl1GP7j5Nvr835+rGADiwHEIAAAAAAAAAAAAEFJ+99vf05t//ZsKAWAGjkMAAAAAAAA6yeDBg2jo0AoVAsB7Dj/8cBo56gQVAsA9hxzSm8ZVj1UhEGYOHDioPgGQCByHAAAAAAAAdJLLplxK18+8VoUA8J4Tx4yi+x/8uQoB4J7+pf3pqaefoEikUMUAAEAieRMmTOhQnwEAAPiQc889l8aNq6ZvTrpcxQDgjlO+fDL96oGf0dRpU1UMAKCrufLKK+mII46gn/3sZyoGAG8ZN24czXGpR1oAAED1SURBVJgxg7797W+rGADcMWDAAJo7dy5NmTKFPvvsMxULAABm8vr3G5TScVjQo4B69uxBLS2t1NbapmKTk5efR71795J5+RinDKssp031W1UoNaxPa1sbdbSn93n6VX/Wi4cD+8WGoOvPeGVD0PVn/GZD0PVnvLTBqv+UqZfT1y44jy6ZfIXK0RWUUOmA3bRzhwpmRFeU4ZZCGj5xPFVGVDCB3bR2yXraqUI5Y4C4NjvEtVFBRwwYTRcct5dWrmigwupzqHLvKlpZ3zW7HLLj8Be/+imNO/EUFWNPmJ8FY8eOUbH25BfkUw+Rt1Xo097WrmKTk5cnyu/VU+blY5wycHB/2v7hLhVKDevDerUcbKGO9FXgOxuCrj9jtOGyyy+hw7/4RXrwgYdVaiJubMhVG1qzeq32wQZrP043xTFbNrTxe0E3aENubTjhhOPpqquvpBuv+55KTSQTG7KlfxDrIJn+yfqN9VnmdFpwturgyCOPpP+572665jvX02ef/VvlMON1HXRG/yC2IcaNDUHXn0lmQ6rnDeP2Ox18RMnJxAaj/nAcWkCjSI8f9We8siHo+jN+syHo+jNe2mDVv+sdhyU0dtJootqXaW3GTr+uKCMTNMdh2bauc6p1OewArCGXDky+nsNp74pVtDFqF+4ccBzaY7Rh4a8fxzpPAAgqh45QnxKx9uP6ze+oFADCCzs/pl5xlQqZsT7Lbph5rZDrVCoA4YX7DByHcYzfSf1ig1F/OA4toFGkx4/6M17ZEHT9Gb/ZEHT9GS9tsOoPx6GR7uk4jFSOp9P7bqQXVu9WMfZxmQLHoT1GG9hxyF9g596ffLQYAN0ZdpzzWmduHYdOXv4A6K6wI5D7jhvHYar8AIQBp88Ot9/p4CNKTiY2GPXH5igAANAtYQfbOXTBJF3G0/AIx2sOv1LxqbRGxFeXEEUq6HQRN7xyvJZ3YgXJrOwAix2vyemVvHi2TRkS6zm1PDHkeeLpYys5rOlVWi3i9PMq2HFmjXOKLC9mM6N0M5Sn5dHFmJdJdv3UcTGbNWJx0mnIaXyNhI0DtHSr7ebjS6iyqpB2bjM7CKP1G2ln2fC4XrI+LNcUAAAAAAAAADwEjkMAAOiGlFaPp8rm9fTCkpelrKwjqqxhp1l8DcCdtSItNpqthCp5dBvnX9FAUXZ01fSh+hXa8VoZ+yhSNYqGR+zKYEeZNhIwnr9PzMEo0ycOJ6rT09cTVQ2POfGk0ywygEpjzrtCKh1USFERn8lM3Z2rV1F9tFDZzE7IUVTJerNtyik4luLX54Xa/VQ5UXcOcrq4frSRVsZsEddvogOn3Q5RZi1fD75GajQmO/wmDqDG2LUUuhWJON15OKBMlLubtieM3NxPe4UNZWVqp0Mu29X0ZwAAAAAAAADoHHAcAgBAt6OQIkXqoyJav0pzCKqwHaYRb9EGWrnEvL5etHFH8uPZ+RXdSOsM04ej9RuoPlpClZVCn8rhlvTdtFY62BQ7Gmmn0DvmJIuUUFlkHzU22k9HjlSp0ZEW0UZEMvtoY+1GikaGU2X1aDqdR/TVKqebLFuc3zgFeMd6WttYSJVVJbFz19fGr5e8fhk67UoHlVC0boPhWird1GjCSFEfcYK9ItbKPoo2i/S+Ih0AAAAAAAAAcgAchwAA0O3YRxvf3U1Upk81tk7DtWMf7bX1CmpTbmU5E+MjBK1I51dkuHk6rjivvvtxYd9CouZ9ZsdjdK8hvJu2N4oiBpVoIwTLBlAkuoN22uokDo2NXDSLad3DaAOtq9tHpWUlRI3r42sxRvqKcxjsUjK2zJi+n6JJzu0OzYmb4OhMcS2N7Nsr7CkSZagwAAAAAAAAAGQTOA4BAKA7Iqe1qmmxPGVXrtfnxIGoiK3JN5oKdSfdio1JRxxKx2A0PrXXKE43MdlZxyMEebpy56YpG5F6MQbnm3RyqqnEVl27YiMSM32orzixvaOza3ZMBgAAAAAAAACvgOMQAAC6Nftoo1xbT3MgxqYCp0Eb8ac5AmOOPzkSzx45Mk6kJyvdduSctbzobmoUOvYtSz1N2TEDRstRhHKKcmQ4jVHTmKPN+8W/fSiSzBg5EjJFegLaqEJ7eJ1CNjWz6ca2IzUBAAAAAAAAIEvAcQgAAN0OtSOwcede05qBmjOrsCiNE9HoCJSbpRh3AjaXIXcA5um/pnNqoxZ5Z2GZbnDeySnQpvKYfbRz2z4q5U1TUkxTdoZWPo/0W7tDW09R29hFJO3YaNo4RUObuizXSFQOTLneoY60RRuxKZ2gpt2Oh8emZEtMjsf4tPHYDssCuWO02jhGrh1p63TVHJLRvezoBAAAAAAAAIDskzeotLxDfbYlLy+P8gvyqb2tnTo6UmaVcI4ePQpkXj7GKeVDB9HWzdtUKDWsT5soO0+FU+FX/Vmv1tY239gQdP0Zr2wIuv6M32wIuv6MlzZY9b98yqV07nnn0CWTr9AyOIIdYeZdgHkHZH2dP3Zc8YYhcnpxLdEYueuveepsabVh3T/aR/UrNlLfidrUZR6FaCpDbryS+pzS+WZY24+nJhdWWc6r8vDuy/pIR6kH74AspxGrHY/1QhJgPTcQ1ahdkQ0bwmj28BRl3uQksRx2MsanVVvTudy4nqZrw+sn0mhbHWNl8s7KJkeprgej5e/7ruFaMfJaGK6PLIMMxznnlC+fTL+4/6d0SvVpKsaeMD8LFix8jFbXrqG59z+sUgEIF+Oqx9JTTz9BI44dpWISsfbjd97bQFOvuIrWrF6rcgAQLm6YeS1V14yjq6Z9R8WYsT7Lrr1+Bo0Ze6LsNwCElfrN78g+s3bNOhVjj9vvdPARJScTG4z65x09aGj6s2SBweVl9OHWRhUKHtA/96AOcg/qwBsuu/wSOvucs1w6DgOAdIz1pXqjI8zqLAsJ0gnbd6NpjUW7uNLq0USrM3ccnnrKBBVjT5jvQ/OfmEe1f1udc8fhnFfeockVKiDZQouHXki3qVB3xmp7c+19NG7KQhXqTsyi5ZsnEZvqJxt1x+HIEWNUTHreemedDxyH0+jJ9TdRjXHJiObVdO/oq2mBCnZbps+nNbdWU9z0bna/SLDPTMPiEXTeLSqQI9hxWHNSNV191QwVk5prrv0ujT5xVO4dh/cspfrJQ1RAww/XMytYbe+u9wsf1zE7DrnPrFv7dxVjD94tc4tR//yDB1oolbDHk+G/dukJcrBF5mcvpm16Eulod55fli3OY5dmFb/qz/jJhqDrz+KVDUHXn8VvNgRdfxZPbbDorx8bZIxTczUKaXjNcIo0NpqcYHJtxcaNoXIaMnIqt3H6M5VQZZX4YlUXdxpy3MCivaSPiXRNh2iv1rZmkTA/C9rbc/076ixaLr5Im52GzBCaLOKX36OCAYAdgG71TXSYEhXV3ERrFk1TIYYdRG/Sk9NVsDPwC9Urs1Qgy9wzUjoNmaKq8dQV5nQldn1FF2s/zjnsWNpscRoyRdV08+YuaitZIYO2betU4/vFUpqjQpIua+td2P+6iIrJ/tCHnx/WvhITy7OsrS333+n4fmt1KDEVk0V8ru6LmZBJ27Zxpsn7xfr5pntxJs8xW7ifWsrOBkGo45aDrYn9xSJuv9N1l++kdulWyYYNRv3z20UglejDHuWQRpt0q7jNrwtRnm28nXDZXunjNr8ubvV3cw6v87MEXX8Wr2xwq4/b/LqEqQ681sdtfl38UgfWvHo4yETrV9HaRm0dwQukjKfKZn1qL6PWGKzaT2sNI+zCA6/DuD+27iKPLCys22B2oEYKiTq507S1rVklzM8C8a/8nCvmvKKNQJMjH4aOoEopS6hBpoov+2dm/8XDPexYsHN+pmMWjZLHRKn2Ls32e2u1lh53rM2i5XYOogyYvuhN2xeq7CCu0Zl87i3UwJUrXlgn+8wpbNdXdLH2y9wiruWNynHWsET1GSF3raZmmR6hmkuD4ASZlVHbnn5GlcV2/X4xhEapNtV1bT0zHbsM031Rk8XS2AhVnWH8cSFXJH9OWfuMHs4Z9yxV9+j4/TZ+PQUVEwPhcM+0bc8ZpR3Do72l7fr9oqiKTpN2Z/ocs4GdlClGzHpGQOpY7xOpxO13Oidlsuj90Kv8ugT9e7VRf2yOAgAAICvsXM27OxvE5CDkNf843v003G7DjvX0glqTka9VfL1FRbSB1lrjQDdBd5xtocWm6VJ30HnypcYaP0uOTuSpPpqYR93IFyoRz6P15KgDPZ911AO/1MTKEGIYhaAft3wRj+hSn6UzQnupih+nj27i+LhjQY5qiJ0v2TFW4k6ABVNO1l52pN1sr3KssjPoVlGG0DVu5/zY9dBGKFrPJ0TpwsfcXMPueUHFJJGmX7t0OhrT+Rg9rB0fu15GJ6B+fY2jO6aPpyq+Rg1v0Xm/015YK0YFwbnlQ/RryU6ls+7Q4pgFV9O4xVsS4+XoRL0OWYx1rPcpEWfJZx11ZOpTpvR4GU+qthk/h6XPxvqGfduWWPqnefStgYqR6hzifqEcBDwV0b6tp9DRej8QotmWQsekdukY0/k88fPHrrPpGHO/ckLT9u64nIF36I6zhsUn05WGubm3nXUf1YobkjXe2t5N7dBYh6b2Y6k/a98z1Hny+3g8TRe9ryW/jyc/xkrsRym+X8h+w3Zz+7N5jhnsfFK/HsoG6/Ux9SfdsSlHQJv1Nx5j1dGYztdCD8vrYvdcMfYrEXJbxwA4AY5DAAAAAIBcMr2Mivlvc1NshGEM+VJjWLNMvsDoL/E62su89eWDp/qaRk2Il5dr9Zc+40uNDr+AmV5GRFSNPloiSk3vm1+qNGymRppwcswdtEEZzjrbvUilokjoqJvJToQ5r9iMjDLankA6Ha3pfL1nUJUKMbdt2CL/Gp2AsZe3DXHnlT5KTMYtWEV10nMYjBE+vuOYYq1tNjUmrk12y4XK6azg9m47rdfqoBJxlnwVk+NtlZ0E1pFI7Fwwt9chVKM7NWSfNjreFDZTI03Y9E/r1P0Fr9WpkZVsxzsmZ0x6LDryfcVm9JbR9kTS2WVNF3qun6jd6xi9/cdGeglizuA6et1YqcrxojtTWGQ9NCwJx5p8XcY0GigrgO/nMsLAQrpytHH9O77v2S8hYX1OyPoxtR9xj7xRtQNuW9a+Z9P+rfdxk3NQkdjXzDg5Rr9Xx9qU1ZZUiGNqYko2EonzWa+PbOcpykynozWdr/e1xofNLW9p3xNiPxgI9OUvGt4S3xXc1DEAzoHjEAAAAAAgl+gOEAfMuVS9gBmm7unTehOnM/NGCeYpSkXF/HInXgjldFlRjD5dS5/maHwZYWLnOZmuPGaS5jxLOPcQOnMRiRcSbTQDwwuwS8fNPamOiTtB9JEQOnKkR8ypwyOp9GmYauqVcSSZwU5+IbrtLO2zLrFpz8J2Hsmoh7UpnunsEjrqzgz93JxncRMVyThFwstcfBTphthL2iyaLF8I9TjxEvcqv8T6ZbplsJiuvR07IN7ejVOa9amu1unMCVMYqZgGcjucPp/OlHVqbAeJDmMmVoboA7Roonqpt5y7iKep27XtLTF9ZT+Sx2h5imomxfunPrJSx+IIsW3rBmecUccFsVFX5vNpttv3v+kp7RJ/Y2t5xvvnvXUiWcYxC+n1OtYv3v51x3pz3apEZ7AdFZNMzlSQjiFUbLxvpUK/dxvbu94nbH7siLVVvU0WFcv6jz2zYu1E3euNDmOJ8T6u3ysTz83PObJt26mPiZ3qlgvjxzJyxKI+ypEdazbPMS0oidkp+kBsZLwuuu3FZTSdf7zQw+rZks6u6eJedVqV5jQ0PpubirQ4Df2HtviSBOYfqVzUMQAugOMQAAAAACAQxEcS1D4Qf5lZMGWF9lJvfRGTow80YqMsJPqLxRZ6Nbajrz7N0bwjq/EFPuao0R0UQvSREZpDMhHnx2gjIeLOGoZH9qUa8aQw2GlEn95lHd1hJa2OumO3YUXc8XLLEpOjM+FlzjQCRBFzpKgRYixqlI4fN0npPsTb+2KDw/k2NVXc7CyPUt1rqk/oI+J0bNvBhdrLvcmRbShDUFGs2p9yULDoo5SKB9o5veIv/poDnUUfuaecmDrq/LG1yxhHzjSzjnH0KY/WUc2JpLNL71fNtUtifSB2r1Looya19q87TWx0Mzj1ddGdP+g73hCvv3nx9r7ganpVVqD1xw7DDyT6jygSwzPrd3ofUfd6iyPbdK/UR+HLZ4DqA/qoReWQTMDFMZrDz/xjFY/sSz/S3fhDkAF9+rDNqF0TaXW0fzYvNjo6BeYR7nY/UgHQ9cBxCAAAAACQS/QXrYQRGAKe5pVyKnBympuMzsLMyPr6YfrIp5gD0eIoscFqp77m1OTt2mgQ0+gSDzG+zNlNU9bjbNFHaQHHxKbqWkfJMvwi72rqrk4TbTc6MzKiK8pwhz7K1jyyOBUWHeV9RvSb9WVq1Jc+wtBjjNOV70kyTTkJsfpP5kgCNug/cNiNctamJqd3ntlgt8yGS7rieeUO3YEZdyDaO/INWOzUf5xaM1CNpjSOAPYS4wj3hB+pPKpjEHrgOAQAAAAAyCnxL/qxdaEk4ku+3DWW1wbj+IW0vYnjzfliUwYdvnDzyIQm+aJknC6sjzRKvinBAu3k4jyJo3+0EVe6fnHSHyPQR2sYHT0LGslclK5zGmLTSeOjL2IjoxQxnRRpdXy/STmoDNPzYtP4DMRe5iapkVfGESCGDXCs51Avm9gkxSWxEYHWNcVEW+aRPzyCVMbH27sxX3wKpf2I1QRs24FN27XQ0GScUmmu+3FyVJG1bcfD8anKuuijtDQHAJ/b6ASInUthbevJ0K9FbIRxbGSUTmL/S2eXfm7j9OrYvSpGfLpyzWSLDmmI7SrdBU6rMKH/wFFUM8N0r5++aIa8p1VM1p4B8foz5IvdX5ONWLVieGbFlgSwb7smYvd/w5TemGij4hPatoNj7J9z1udW4nPMnvi0Y/1axEav6+j3DJ20OsbvVcZns3YeI/ER7pPVKEfjj1RO6xgAN8BxCAAAAACQY247S43wMUyXrd8c35Cj4VVtanJseqXNtFo9T3r0tfX4xULbjCQ2NTGV81GfnmvSURPrC6CcYsnOFCfHxEZcGvMk00dN8Uq2+HzsxSw+HThx8XqFnGIpXqDeT6NjzEGlzs1pk4upWcYZ0V/mFAaHVHw9OBsnVczhiE1S3CHa8QP6dOP4dNn4NFt9emS8vSdOqzVOoUyDYZpmvB1oL+2pnF2x6bkmHVmsL+962x4S0zc+VVlJzEGpO9zMeWL3AoMTQaK39STtS3cCxu4H1s0sYsT7X1q79HZt6Is3V4lrJePixDd5YZI4pGz6pm6r4/UQgcYtF8bX99TbseF6xqbix5ZjMOTT24Vxun4a4ksC6O1Ef66lmlqrT8816yjFeu+PtW0nxxh+pDPk0e8F1rYXe46psBndyRcvK3YNraj2u/yedDrG+7Xx2VzcrMUZMS8/YrmWTusYABfAcQgAAAAAkHO0NQZNa5VJtBFqsV0Q5VRe6zRCbfSCq50SjQu36/CIO8tC8GZ4apd5XSiGR0Xp5za9zMgphOmP0WxPzGPWJ/5CJSkuo3HqoxlRlskuvn7qeulTWmMODSZCxcek09Gaztd7HtWpkJHYS7Ig7ryJL3if4NCRpJpaBlIi+0OStmNcQ43bu2n9TIbbhmWdtTTwlGBrH+VNDLSRg8kwbi6iw21IP3di2zZtrKBj6Z9ynTabqZGmvpXQ1tVHCwumzDNdQ7ZJm+Kvt0kbHdPaZU0X13v0CstIYkHMIStwPGpaI/21B3bIqe1J2k58vU6+79m3d/OanmngPmrb98zr6Voxbe6jw6Nb9XPbtO20xwjY9sTlK4zt1u45Zoe4PvoPFxIuQ92L9GVHLOuk8lTodDpa0/l6P2z3sDGus2vzg5SzOgbAOXkDjjyqQ322Jb8gn3r0KKDW1jZqb2tXsSnII+rVq6fMy8c4pWL4YGrY+KEKpUbq0ybKTqm5hl/1Z70OHmzxjQ1B15/xyoag68/4zYag6894aoNF/yu+dRmd/7Vz6ZLJV6gMALjjlC+fTL/41U+pZux4FWNPmJ8FTz71OK1ZvYbm3v+wSgVAMX0+rVEjbWJOmVic+YUzHp/+xdhvjKseS089/QRVDT9BxSRi7cd1G/9BU6+4SvSdtSoHAAqexi1HZBr6SCzO3D94XVIe9RVER+ANM68VfWccXfmtb6sYC5Zn2fU3XkNjx42R/QYAMzyNW43IjDkT43Hm/hGPN/1YEBB4BOS0Kd+mtWvWqRh73H6ng48oBRnYYNQ/7+hBQx2o5T2Dy8vow62NKhQ8oH/uQR3kHtSBN1x2+SV09jlnwXEIMkY6Du//KZ16ygQVY0+Y70Pzn5hHtX9bDcchsMHwMmfFMgpMd4BYR7kEAd1xOHLEGBWTnrfeWQfHIUgCryeXZHdmY/9I5oQPCOw4rDmpmq6+aoaKSc01136XRp84Co5DYAtvuGI/5dnSP5I44YMCOw65z6xb+3cVYw/eLXOLUf/8ttY2SiW695L/2qVbRfdednR02KYnE3GAbbydcNl8Hrs0q/hVf8ZPNgRdfxavbAi6/ix+syHo+rN4aYNV//Z27VgAOou1rVnFL32AJdv9WP8MQCI8Zc86JVNgdBqy80O8CEmnIccHeCqYXV/RxdqPAUjOHXRewhRVgcFpKHdAj43mDZ7TUCfVcwrf6YAbeKpy4pIlRqeh2lwmNpo3eE5DHSffB91+p+su30nt0q2SDRuM+uf17zco5Tflgh4F1LNnD2ppadUOTkNefh717t1L5uVjnDKsspw21W9VodSwPjwMtaM9/Zd8v+rPeh04cNA3NgRdf8YrG4KuP+M3G4KuP+OlDVb9p0y9nL52wXkYcQgyRp+qPO7EU1SMPWF+Fiz8NU9VXosRhyC06CMOeYfPZFj7MY8awYhDEGa0qcpjk44gtD7L0uUHIAw4fXa4/U4HH1FyMrHBqD82RwEAAAAAAAAAAAAAACQAxyEAAAAAAAAAAAAAACABOA4BAAAAAAAAAAAAAAAJwHEIAAAAAAAAAAAAAABIAI5DAAAICH379oVAMhIAAAAAAAAAyATsqmwBO+akx4/6M17ZEHT9Gb/ZEHT9GS9tsOrPuyrfdvsPVCoAmdG8txm7Klsw2oBdlUHYwa7KALgHuyoD4B7sqpyI8TupX2ww6g/HoQU0ivT4UX/GKxuCrj/jNxuCrj/jpQ1W/QcfNVilpOboIQPpgy3bVSg1PYU++UIOHmxxpn9BPvUQ+rey/m3tKjY5bEOvXj2pnW1wUGc6bm1obW8PtP7ZroMP//mh/JuMMD8LXli+hAaUltLHH3+sUu3IE5Le1jhu84sj8vKpoyN9/cbxWievbQi6/oyXOmVP/0hRRN6PTjvlDC3aBms/fuPN10S4J0WboyqHHdmwwQ1e1pdG0Ptx0PVnvLUhnveII46gxh076IJzJ8mwFeuz7Cf3zqZzzz+Hdu/arXLYE746CLr+jJc6BV1/Jp6/qG8RPTR3Hj315CIZTobb73TwESUnExuM+sNxaAGNIj1+1J/xyoag68/4zYag6894aQPakHMb8CxITiY2hLEN6Tb85ndPUdNHTfTKH1aoVDP5BflUUFBAbaLNtTt03Pbo0YPa29sd2avTv+xI2tX4kQqlhnXPz8+n1tZWR3XgNxuCrj/jpQ3Z1n/IkCF03Q0zXI845Je/hs0NKoeZbNnA5aMN2ZOJDUHXn/HKBqv+Z509kfoV96PLL5mqcphh/Y3PMh5xeM65Z8l+k4ow1UHY2hDjxoag689YbfjZL/8HIw4tGL+T+sUGo/5wHFpAo0iPH/VnvLIh6PozfrMh6PozXtqANuTcBjwLkpOJDWFsQ7oN6aYq+13/INZB0PVnvLQh2/qPHTumy6cqZ8sGPAuSk4kNQdef8coGq/5eTVUOUx0EXX/GSxuCrj9jtQFTlRPJdh04wah/3tGDhqbXKgsMLi+jD7c2qlDwgP65B3WQe1AHuQVtKPdA/9yTqQ3zn5hH69b+nR55+FEVkxvQj3NPWPUfM/ZE2Q9GjhijYtLz1jvr6OqrZsi+05WgDeWWoOvPZMuGa679ruw73A+c4DQ/6iD3QH/vcPrsQB3kFqP++e3tHZRKOjo0vyL/tUtPFDVUVRxmn24vzssXBcuy2xPi7cSv+jN+siHo+rN4ZUPQ9Wfxmw1B15/FWxvQhpyIVjbaUHJxb0PQ9WfJ1AbKy5O/xhYU9LAVnmLDa7nxX7v0ROFfgntSzx49bdJSSYFNnL1w2XwOp8f4zYag68/irQ3Z1T8/v0D1B/v+wmLtxwwfZ1e2JtmxwWn+8LUhlkxsCLr+LN7YYNWfnxv8/LD2lbiYn2WyD4n81nITJTx1ELY2xOLOhu53H2IS+0qiuP1O112+k9qlWyUbNhjLxlRlCxiGmh4/6s94ZUPQ9Wf8ZkPQ9We8tAFtyLkNeBYkJxMbwtiGdBt4jcNRo0eqFADCi9upygCEnfV/3+BqjcNvf2c6HXrooSoHAOEEU5XNGL+T+vG9AI5DC2gU6fGj/oxXNgRdf8ZvNgRdf8ZLG9CGnNuAZ0FyMrEhjG1It4Edh++/v5F+/5tnVKqZ/B751EPkbRX6tLeqX21TkU9qV+t2eYxTBpcPoA+37lCh1LA+rBfvhEtOVPKZDUHXn/HUhizrf9xxx9Gcu+907Ti87Yd30rvvvKtyWMiSDa3tomy0IXsysCHo+jNe2WDV/5LLv0HDhw9z5Tj8yumn0Y9Ev0lFmOog6Poz6Wzo0IeTKXgEnm4DbzCSCm5DvXr2FPlYf+ffh9xMk9VGDgr9W1qcfadzoT9jteH5FxfDcWjB+J3Uj+8FcBxaQKNIjx/1Z7yyIej6M36zIej6M17agDbk3AY8C5KTiQ1hbEO6DdgcJRGvbQi6/oyXNmRbf2yOkkhY+3HQ9We8ssGqPzZHSY5TG4KuP+OlDUHXn7HagM1REsl2HTjBqH++/BcAAAAAAAAAAAAAAAAMwHEIAAAAAAAAAAAAAABIAI5DAAAAAAAAAAAAAABAAnAcAgAAAAAAAAAAAAAAEoDjEAAAAAAAAAAAAAAAkAAchwAAAAAAAAAAAAAAgATgOAQAAAAAAAAAAAAAACSQN2HChA71GQAAAAAglPz4xz+md999l37/+9+rGADCxXHHHUezZ8+mSZMmqZj0LFmyhH70ox/JvgNAGLnkkktk37n99ttVTGrc5gegO4JnR/DI699vUErHYUGPAurZswe1tLRSW2ubik1OXn4e9e7dS+blY5wyrLKcNtVvVaHUsD6tbW3U0Z7e5+lX/VmvAwcO+saGoOvPeGVD0PVn/GZD0PVnvLQBbci5DXgWJCcTG8LYhnQbFv76cVqzei3Nvf9hlWrG7/oHsQ6Crj/jpQ3Z1n/s2DH01NNPUOXQESo1Eav+9ZvfoalXXCX7jh3ZsgHPguRkYkPQ9We8ssGq/w0zr6Vx1WNlP7DDqn+6/DphqoOg6894aUPQ9WesNqR7dui4tQHPguRkYoNRf0xVBgAAAAAAAAAAAAAAJADHIQAAAAAAAAAAAAAAIAE4DgEAAAAAAAAAAAAAAAnAcQgAAAAA0Glm0fLN78h1e1je2/g2vfXOOnrnvQ1a3Pr5NF3lzB1T6Y7ZU9Rn50x78g2qf2WW+MQ2vklPemjInFfEtZLnsmfq4yvp3TWP+uBagi7hnqWxPmOUF5e9IP+uWTRNZcwlP6JZd6mPjrkx3lemz6c1m5fSHC2h65Hlp+qXd9Jz4l601LUNwJ9MoyfXm/sLP2f4ecPPnXov25oLpt8ziy5Snx3zk+djz0p+FnjZ/6cvejP1c1n0q98t+62nzzsAggQchwAAAAAAXUTD4hFyc4ljhx9PI0eMoRHHjpLhytFX0wKVJzdMoyfWfJ++OkAFnTL1YZpRvYcWn3WHCNxB5y1uopobvXOC3naWuFbyXCA8bKHF3EcM8rXzL5B/x01ZqPLkCna6XUgjVcgpMx+ZSMW18+hK7vQLrqaHa4tpcgqHeKcQ5Y8berJ2LhAammvvi/UXfs7w84afO5VDL6TbVJ5cwU65m88sUyGn/IiWXVxMtQ9oz8rbzlpCTTUzPHPcLZhysg+eywAEBzgOAQAAAAAcc4ccWbj8HhXs5twxeSzR6ufiL6K3LKFaqqbJIbEfdBF3LfHNSCjPmT6fTh64jV41OD0XTFlBDRUTMXoJuODrcmShP0bdes/UxydQxZYVBgf4HbS4lqjmUo8c7gAAV8BxCAAAAACQFdR0ZuP0KDnN0PhyqL0sxqehWZ0t8SnR2vS0Z1S6Fm92aOpxPLXtJqouIoqM+555qq9lqqjpJVXo9tXyKNWt/LWKYBbSla9uoYozdRu0aXP6cTy97MVHbpSfY1inUqpz6tPr1jwVP6d1qrKcTqZ0e7f+OfqyigfhQW8DxrYt24mxb/AUR9VOWBKcLarNvVv/lmxz776kRrVa2yYTi5tFyzZOonIRNWTSBkO7tE4VNffROZdWU5/t9ZZRXxYniPG80+bRqndW0gKjDgJzX4ifU7PhGfqxSkm0IX6PYFnz1EAVD8KE1keM7UK1IfH8uVLF/Pilt2LtxJyXibc5bemNlTRfdSvrfZrR4+Row5oIUVE1XWWc6ivbqX4u6/F30EXjItSw4U4V1khwuMt+vFRr+7Ofkc8E8/PR/DzSzxlbOmR5fDR7wlRli37Lz1DxAAAJHIcAAAAAAFnhDjrvrtXULF6orpUvNuIl58ZqKmpYoqZkzqKHll1FVXXxKWj38hTHmGOCHQKTqELk16enPbe1nC5el27q8EK6cvR9tLqZKLrml3TcuO/K6VnyxWkyGaaJ8tSwm2IvXdNPP5Yi0XpaZZ0t+n6TsKGKTpMn5bLjU0pv27CFaODJphfQ6WdUUVFzHb0uTqqds5hq71LT6366lqjmvxIdPYx4Sby5hmRe1u+4JUTjxMslCBc8pXBxA1HFZNUPRLuYXBEV7UKbkslrcL53cfJ2LJ0Nk4fIZQSOqxxJI0cspS1DLrJvcybuoPOHL6Gt4tOWJaPUFHrugzel7KOjKoi21T8gQ0YWbG8SRozU8hmnFy/8C70XjVDNJUaniVZOw4b4OWuatH7PNsh+n+A0YdhxEr9HVA69j96tGiednyBc3HbWfVTbLNqVWlpi+qIZVFO0hRaPvpqepKn06Jvr6GJ6LtaOK3kZilt15yG3I9HmaDXdK9J4CvTP1xBV37LEps2Z4f56b22UqHk1PXH+ZVob5z54axXVqXs5t8va4klx5+FdJ4g2upXe+oEWjLOFmoQNVWeovnrLheLYC+l2/vyjt0VqOZ1p7MfTx1NVUZTqXhPPI3nOamoS/V5bOoT7/dcTHJ4aoo+JvBSb/i0eNjXV1EelAgDgOAQAAAAASAOvD6hGKtVfROJ9niomG0YmGEZC6fHWzVFieeR6Z1EqqplEy18RL2b8Iqev6XfPSBq0/2162DTFcZ54+RuivRyJ9ApeD86wBuCsC8bQsWMyWadpGp1WFaGGxcb1sHgNwy1SN345rDgyQrRnB1n9hrSgkZooQsXHqLAR8WL59v4+8Rc9dZ7mulVCR/VZX/uNeepa7XpUjbc4P8WL65lDzHl/eBE9x14cEAx4BI/eDybJcXs0WfUZ8yg9Y7wm2uYo8Ty83lmDyHfmK0tpzWRju5hG47kdP/v1pO14zqghRA1L6LxbtFSi2fS1ypGZrZ/IfbB5dfI+Or2MiilKn3ygEo2ww12kDjQ3dMGv6buviYY9RDkVGdXXN7DOtv1+qXSajLIuGXDPJPM9RfTe6Q+uERqBoKCNFOQ+cJWoSxLt+KZYvzA6u43xxs1R4nkW0pUPaD9UTRb9hkcBxu73V36Zjo1spWfPNTjRbrmQFjdEtFGxygGnrzfIPPXt02nEsZMsI2mdwX3QdC/XdVOjCaeV9SOK7hF93MpCYn97UbHowwnMpmdXm58dxh+p7Pr9hUtEP9Od9wamL5po6dfaPQQAECe/Z88elEoK8jXfIv+1S7dKQUGBzJ9f4Cy/Lnl5ZBtvJ1w2n8cuzSp+1Z/xkw1B15/FKxuCrj+L32wIuv4sXtoQdP1ZsmVD0PVn/GRDGNsQw+fKEwfmJ9XtafpOzWi5+PzxVc+LF3ZtBBKPmGP5+o84Tz6JU8fiv8Sj6UT+E750oiGPJoumP0aro0OoooLzX0yzVPzVg4qJ+hxPN6uXQU3YuUhCv3wtXbxcfaDym+tAO39efvw85jjxmQMCrQ6G0pGiXKMDVMpkfkET10Icr7Lb1MEHtCdKdOSg6ZZ4lqdpXcN+KjruVLqaw1efSseJF9D3/vy0SNPOuWcHf47r/9Sf36No0ZE0jOM0hRPysrDeW5vEiYUhBSoulWS7DdmlW8VNP8i2/j16aOezy6eLVX+Gj7Pmk7LoGjpJ7wfS47uVloiw1m9Uu5cVbozX5IKvXRDPI2U2fV289BdVDKGi6Bp6dLreLoZScUS044t5N1m7djydBh3J3eYDmT/h+hfkaX2kQD+POa5AXR+tTao+WlSdtI/qxzKx8nRZtJP2UISOPNYcL+tAjp4aQqP/R4u7e7TQf8vb0n5rv9dsmE1viRuR7IMGfa15Zf6ndojzcgbn7cgvfYDFb/3Yqj8/N/j5Yc2ni1X/dPlnna/3gSfEc0JU5+qfx/rFKbLda/dyYzw/Z7if8XNHy6PKE33wUVFIheg3tOX52HOo4Jhi0RJ51KpxqvI7NJl/FeN2cuyRVCRazY5FKr/VBtngzPVhjBNNUnwW/4j/e6o+aHR0Srm1WpxDZBHtlrMy+TbX/wP5sBmoPU+U6HXw6z/Xi2dHFX3lao6fTl85LkLR9/5Ki6z9Xtf/9n+IflZMg0R+XUd+lgyTP5LtFMfFz9Fz8x7az1mM94YU4mU/sF5/p8LX1S7eTrzUn8VqA5P02WEQtzZkS3+n4uc6cCJG/fMLRIWlEt0AWRE26VbRv3TwDdEuPZmwVnbxdsJl83ns0qziV/0ZP9kQdP1ZvLIh6Pqz+M2GoOvP4qUNQdefJVs2BF1/xk82BF1/lkxt4M/8QmeXjyWuv3pJz7fmMcen1r+C+D2FKR44LRYvR/jtf5t+Ll4A+SXQKOOv/o32YibOkq/ym+vATi9jnKY/I+vgKh4ZRbT1+cRzjRzxDfqxLF/Ln2iD5pDkl0RzvCbPr22gaORYOvWqApo+4ViKbP0TzXia08w6xvSv5JdYES/j+AOfL9EevQ4Y/Rqkkmy3Ibt0q7jpB9nWX9fNLp8uVv2Nn+0kboP8I+vYlEdVqTXezobpA/tpmSPFVKHHp23H5rZq1b9Aeg9Esnih0s9jjOsh2qH8rPSRfTS6Nmkf1Y+1rwO7PqrXwWz6Bw86HHWniLuTRg2J0ppn58h0a7/XbJhCA9lwtsugrzUvi9UGJ2Kvv70Y25BdulUS6iCNZLsf2KUbxaq/7gi05tPFqn+6/Lqw/lp1Wq9T4v03lf6yzTLFZTRdxV3JI/xoKz1n045HXijanaVfWm2Qp7PYYIzT26EW1p53vExGwrlGnC6fDZr24poaytPFrk3H6mDRX+U0/6oJ4jl61XiqimylP3I/tFyjmP7TtPuFta/Y2WN7b0ghqerATtz0A+v1dyoJNqUQL/VnsdrAODnWrQ3Z0t+puNWf8ZMNRv3zDx5ooVTS2tomT8B/7dIT5GCLzN/e1m6fnkQ62p3nl2WL89ilWcWv+jN+siHo+rN4ZUPQ9Wfxmw1B15/FUxuCrj9LlmwIuv6Mn2wIYxti+Fzt7R3U1pZct7j+HdQh/na0WfO0m+NT6P+jpRdSOW2hZ5/dQpFx36Z5l2vxm3dHifocTkdZ8usyf1sTUeSIWLq5DiznZ7m8lPj1UItrk+mMrIPHtpMojfr1vyye3yLikkgSbTiK+kWImrYtsMRr0vHcOqprjtCx4x+ir4+L0Jb1t6u0zfRRc/ycuv5XlAotm5toM8dJI/h85rwsrHc5Dy8TlrSpuJSS5TZkl24VV/0gy/q3HGzVPtvk08WqP8PHWfPFRLdBtqUOaremt8kKT4hPsOHyh+g7oi1Fa5+j1c3ldNHSW7V4vR2XJmvHC0h2m35HyXDC9Rf9meloNRwz5AjpyJZxB7Xr0yHbpOqjhj6YIKo8rQ1b0mR/jNJH75nj9Tq4df0WovIRNO+xCVTe/B69/piWbu33mg3l8T5osMGaV4p+H7DTKYmE+Vlgl24Uq/783ODnhzVfTCz6p82vpEPk6eCqbbdeJ3Evt8Qn1f/O/6WLyom2PPscbYmMpe88pvWTJ7bzGNR+NOCKJHXwXpNoqSJdPZusNsTv0/oxl9GAI+JxUh1WUtaBdi/X+6CdSHsEbTbX/yjZ0LfTfENcvA4W0uvvRilSeTLNu3gsRba8RbfKPOZ+H9N/aD/Rt5tom+hbuo78LJH9+ohSukKVL0XcB3iNQ9O9IYW4aUMsrvqB5fo7FT/3Yybls0OJWxuypb9TCfq91Kh/frsIpJIO1ZP5r126Vdzm14UozzbeTrhsr/Rxm18Xt/q7OYfX+VmCrj+LVza41cdtfl3CVAde6+M2vy5+qQO3ZesSxn7slT5u8+sS9DoIYxvSzyH+TXmueN476dyhI+jcm615lENRvDiZ81vKvPs5uniItrHDrTdra0pVX/8oTRNpj09ZQdtoEF388h3x/NMepdqN/6AX7xafb35LrvM28alvyTR5jtnPUN37z9GP2xvky9mQiVpZnP7jb47THCBSpyflWlGR4nKl0+30TK144ar5Lj0xTZ2Lj3n5H1S3TitDbnTSbwBNtdowbYDmAKk3xBmE6Hma9uoWUfY4oe0WWh+7Vk/Sn+vi55T6T32YrqnmNRDfoMdFHo7ifzivVkZcv467lsiXYL7QxvMlk6R1kEb80g/clq1Lpvrrn+3y6WLVyfjZTmL5fzhJbmpwqzWPlixfTozxZhu+RU9cL9pywxIaO+V2msZrow25SOsToh0vWS3aVHXydiwdckO+Gm9zglnLN1Ad97PHt9NHopdUf1Pvc+JcE3mas6ZTR8cW4tnxxQOmyHTuo9wHk/bRx9+gd5sjdPjRNnUwTDktHjfHx67RD56TayVW18T7g8yj+r1+Ts5/xwsXipitqm+pe4/Mu0SWEddPXTt5AuftKMzPArt0o1jzauHkx7nNr4u8j44eIdr8k5Y0Vd+GMqzn0OQOevFiXlvwPvG8up3OXRy/n3b88DlaExXt/rp5seeFzC/acS0/X1Q71vuFLF/cq/9a97o8fvNHolOoPiWPvfsiuWu/yCjDj8uFCfuJpxnXgXYvp1if1WTaU3+huo387GqnJ1e+R9FIPxpi0p/lW8SDI5s/ajDFG+2VfbJoHFWLbtuw/vZYHq3fa+fU8v+InucHSMNb2n1IK0Hm1cuYoZ6t+rWTOVR56cSok126Vdzkd1u2Ln7ux8bPqcStDZnqk07c5tcl6PdSo/7a+EYAAAAAANBpkm2OIjd64M0iTBs7qE0feM00udPjHXTd+eIFpmKSaR0o3hVSW+D9DjpP7RjLaXJB/K8TPTucN4bg3Y1VWerYURt4Q4k4t7+1laj8QnpX7caq7X5JVHOrOpeQycWr6d7RakH8H7xFWyOVND6+Hr/EuAC93MRkvXnRfskt7OwQiJc042L6fE5t906l//8bS1T7M/uNKngHTZWXdXt3EtGaNeKFFXQzkm2OIj6LfjHHuomQ2mCoYrK2A+zCK0+l/0nVjg3t6N16bZMjuZusLE/tdB7rczOIXhVhPk6ykP7yHjsmv0/163l3Wq0PJu+jC+n1uigNqrxRHm1E26xB9Qe+F2zWd7DV0Y4lUrvCxuBzql1oxfnYhovKt9KzlRfZbFSh7aCu5+X1F4+rW0O8wiToXiTbHKVetiu1u7Zxww9985Nbl9KP6Sn67sm/pNU0zrBe5yQqrr1P3YvN7Ug+z/5fJdXdc6p8dmk7nXNZ6thRb8mdz2PI+/8Qmij6sdwYTPbBLaY1dW+uaaLFQ9VmLXJn8XIa+RMOGDDukszwTsniWfpjLaS4gzbIc6vNhHT4nKJvF4tzas/jC2nIludVv7difrbytaDa1XKNQwCARl7/foM012MSeD4zL4bY0tJKbWo4ZCry8vOod+9eMi8f45RhleW0qd7ZY431aW1rIx7CnQ6/6s96HThw0Dc2BF1/xisbgq4/4zcbgq4/46UNaEPObcCzIDmZ2BDGNqTbsPDXj9Oa1Wtp7v0Pq1Qzftffqzq4+5W36asf/ZzGXqE8ndJReBMVv6o7ShJxakM29A9yHWRb/7Fjx9BTTz9BlUNHqNRErPrzS/bUK66SfceObNngq2fB9Pn091sH0MtDzzU49mbR8s0Tqemukw07y2oY68AvNvjtPuSnfmzV/4aZ19K46rGyH9hh1T9dfp0w1QHrMn3hG/T9fiuo8sy4Y2/6ojfp5mIRZ3H2Bb0NMW5sCLr+jNWGdM8OHbc24L0gOZnYYNQfIw4BAAAAAIAtsxaLL/XVF8kRipJ7JlENrabFSZyGAISeBVfTm9sH0ZmGUbjTF02kioYVCU5DAIDGU9/+EzUMmWgYhTuLJtcQ1f7OboQgACDbwHEIAAAAAADseepamre6H02WU6ln0fLJxVT7gJoCCgCw5f5rVlBTzQzNCTJ9Pl3L0zJtp0gCADRm0/nPNlHNjbwkANGcV3jqdHxZDwBAboHjEAAAAAAAJIXXkIutBzc0caolAMDKA/G+suBqGqev5QYASM4Pvk6Vam3S284aYb/2LQAgJ8BxCAAAAAAAAAAAAAAASACOQwAAAAAAAAAAAAAAQAJwHAIAAAAAAAAAAAAAABLIF/A/SSUvL09m5L926VZxm18Xog7beDvhsr3Sx21+Xdzq7+YcXudnCbr+LF7Z4FYft/l1CVMdeK2P2/y6+KUO3JatSxj7sVf6uM2vS9DrIIxtSD+H+Dfludzq4za/LmGqA6/1cZtfF7/UgduydclUf/2zXT5drDoZP9uJNb9TcWuD0/Ld6uM2vy5B78dB15/FKxusebVw8uPc5tclTHXgtT5u8+vilzpwW7Yufm5Dxs+pxK0NmeqTTtzm1yXo/diof97Rg4Z2yBJyzODyMvpwa6MKBQ/on3tQB7kHdZBb0IZyD/TPPZnaMP+JebRu7d/pkYcfVTG5Af0494RV/zFjT5T9YOSIMSomPW+9s46uvmqG7DtdCdpQbgm6/ky2bLjm2u/KvsP9wAlO86MOcg/09w6nzw7UQW4x6p83qLQ8peNQeiQL8qm9rZ06OtL7GDlHjx4FMi8f45TyoYNo6+ZtKpQa1qdNlK35TFPjV/1Zr9bWNt/YEHT9Ga9sCLr+jN9sCLr+jJc2BF1/Jls24FmQnExsCGMb0m1YsPAxWrtmHT384DyVasbv+gexDoKuP+OlDdnWf9y4MfSE6Acjjh2lUhOx6v/OexvoqmnfkX3HjmzZgGdBcjKxIej6M17ZYNX/2utn0FjRd7gf2GHVP11+nTDVQdD1Z7y0Iej6M1Yb0j07dNzagGdBcjKxwah/Xv9+g1KepUAU3rNnD2ppaaU2YUQ68vLzqHfvXjIvH+OUYZXltKl+qwqlhvVpbWujjvb0F8iv+rNeBw4c9I0NQdef8cqGoOvP+M2GoOvPeGkD2pBzG/AsSE4mNoSxDek2LPz14yrWHv6CxsJfuJx8QWN4aoeb/Myhhx1C//7scxVKja5Te7uzL4B+syHo+jNe25Bt/cdVj6XKoSPkZzus/bh+8zu0ZvValWpPNmxwWrbb68+EsR8HXX/GKxuS6T/1iqvUJzPWZ9kNM6+V/SwdYaqDoOvPeG1Dd7sPcR/gPpPu+YH3guRkwwaj/nAcWkCjSI8f9We8siHo+jN+syHo+jNe2oA25NwGPAuSk4kNYWxDug3X33CNirUnT3zhLRDSJr5Udzj5Yi2+UPcoKJBfwp1+EWe+2O9w+teeT1QoNfwlnIX7gfgmrmKT4zcbgq4/46kNOdJ/7v0Py792WPsxO0FSkiUb2ll3tCF7MrAh6PozXtmQTP9k/cb6LEvbZxRhqoOg6894akM3vQ+tWb0OjkMDxu+kfnwvgOPQAhpFevyoP+OVDUHXn/GbDUHXn/HSBrQh5zbgWZCcTGwIYxtyakPQ9Wf8ZkPQ9We8tAFtyLkNeBYkJxMbwtiGnNoQdP0Zv9kQdP0ZL21AG3JuA54FycnEBqP+2pY2AAAAAAAAAAAAAAAAYACOQwAAAAAAAAAAAAAAQAJwHAIAAAAAAAAAAAAAABKA4xAAAAAAAAAAAAAAAJAAHIcAAAAAAAAAAAAAAIAE4DgEAAAAAAAAAAAAAAAkAMchAAAAAAAAAAAAAAAggbyjBw3tUJ9zyuDyMvpwa6MKBQ/on3tQB7kHdZBb0IZyD/TPPaiD3IM6yC1oQ7kH+uce1EHuQR3kFrSh3NOd9C8oihx+Z0cHUTJh8vLyxOeOhDR76ZD5SXxuF5/Nacml7+ER+vRfzbZpVskT/7V3tNumWcWv+vP/7e3+sSHo+rN4ZUPQ9Wfxmw1ha0Ms7mxAG7JLswrbgGdBKnFvQxjbkFMbgq4/i99sCFsbYnFnA9qQXZpV2AY8C1KJexvC2Iac2hB0/Vn8ZkPY2hCLOxvQhuzSrMI24FmQStzbYNQ/r3+/QeJPcgp6FFDPnj2opaWV2lrbVGxy8vLzqHfvXjIvH+OUYZXltKl+qwqlhvVpbWujjvaUqkv8qj/rdeDAQd/YEHT9Ga9sCLr+jN9sCLr+jJc2oA05twHPguRkYkMY25BTG4KuP+M3G4KuP+OlDWhDzm3AsyA5mdgQxjbk1Iag68/4zYag6894aQPakHMb8CxITiY2GPXHGocAAAAAAAAAAAAAAIAE4DgEAAAAAAAAAAAAAAAkAMchAAAAAAAAAAAAAAAgATgOAQAAAAAAAAAAAAAACcBxCAAAAAAAAAAAAAAASACOQwAAAAAAAAAAAAAAQAJwHAIAAAAAAAAAAAAAABKA4xAAAAAAAAAAAAAAAJAAHIcAAAAAAAAAAAAAAIAE4DgEAAAAAAAAAAAAAAAkkDdhwoQO9RkAAAAAAAAAAAAAAAAkef37DUrpOCzoUUA9e/aglpZWamttU7HJycvPo969e8m8fIxThlWW06b6rSqUGtanta2NOtrT+zz9qj/rdeDAQd/YEHT9Ga9sCLr+jN9sCLr+jJc2oA05twHPguRkYkMY25BTG4KuP+M3G4KuP+OlDWhDzm3AsyA5mdgQxjbk1Iag68/4zYag6894aQPakHMb8CxITiY2GPXHVGUAAAAAAAAAAAAAAEACcBwCAAAAAAAAAAAAAAASgOMQAAAAAAAAAAAAAACQAByHAAAAAAAAAAAAAACABOA4BAAAAAAAAAAAAAAAJADHIQAAAAAAAAAAAAAAIAE4DgEAAAAAAAAAAAAAAAnAcQgAAAAAAAAAAAAAAEgAjkMAAAAAAAAAAAAAAEACeYNKyzvUZ1vy8vIovyCf2tvaqaMjZVYJ5+jRo0Dm5WOcUj50EG3dvE2FUsP6tImy81Q4FX7Vn/VqbW3zjQ1B15/xyoag68/4zYag6894aUPQ9WeyZQOeBcnJxIYwtiGnNgRdf8ZvNgRdf8ZLG4KuP5MtG/AsSE4mNoSxDTm1Iej6M36zIej6M17aEHT9mWzZgGdBcjKxwah/3tGDhqY/SxYYXF5GH25tVKHgAf1zD+og96AOcgvaUO6B/rkHdZB7UAe5BW0o90D/3IM6yD2og9yCNpR7upP+eQOOPCql45C9mOyZZM+nI89kHlGvXj1lXj7GKRXDB1PDxg9VKDVSnzZRtgOXp1/1Z70OHmzxjQ1B15/xyoag68/4zYag6894agPakAqlRuqDZ0FyMrAhjG3IqQ1B15/xmw1B15/x1Aa0IRVKjdQHz4LkZGBDGNuQUxuCrj/jNxuCrj/jqQ1oQyqUGqkPngXJycAGo/757e3tlEr0YY9ySKNNulXc5teFLbGLtxMu2yt93ObXxa3+bs7hdX6WoOvP4pUNbvVxm1+XMNWB1/q4za+LX+rAbdm6hLEfe6WP2/y6BL0OwtiGnJ7DrT5u8+sSpjrwWh+3+XXxSx24LVuXMPZjr/Rxm1+XoNdBGNuQ03O41cdtfl3CVAde6+M2vy5+qQO3ZesSxn7slT5u8+sS9Dow6o/NUQAAAAAAAAAAAAAAAAnAcQgAAAAAAAAAAAAAAEgAjkMAAAAAAAAAAAAAAIAFov8PMJWBHGL7dWMAAAAASUVORK5CYII=;" parent="1" vertex="1">
                    <mxGeometry x="-1140" y="990" width="1095.45" height="480" as="geometry"/>
                </mxCell>
                <mxCell id="384" value="" style="group;movable=1;resizable=1;rotatable=1;deletable=1;editable=1;connectable=1;" vertex="1" connectable="0" parent="1">
                    <mxGeometry x="-1040" y="40" width="1050" height="380" as="geometry"/>
                </mxCell>
                <mxCell id="154" value="State Design Pattern" style="text;html=1;align=center;verticalAlign=middle;resizable=0;points=[];autosize=1;strokeColor=#C73500;fillColor=#fa6800;fontColor=#000000;fontSize=25;movable=0;rotatable=0;deletable=0;editable=0;connectable=0;" parent="384" vertex="1">
                    <mxGeometry width="250" height="40" as="geometry"/>
                </mxCell>
                <mxCell id="201" value="&lt;span style=&quot;font-size: 14px;&quot;&gt;Allow an object to alter its behavior when its internal state changes.&lt;br&gt;The object will aprear to change its class&lt;br&gt;&lt;/span&gt;" style="shape=note2;boundedLbl=1;whiteSpace=wrap;html=1;size=25;verticalAlign=top;align=left;movable=0;resizable=0;rotatable=0;deletable=0;editable=0;connectable=0;" parent="384" vertex="1">
                    <mxGeometry x="530" width="430" height="70" as="geometry"/>
                </mxCell>
                <mxCell id="362" value="Context" style="swimlane;fontStyle=1;align=center;verticalAlign=top;childLayout=stackLayout;horizontal=1;startSize=26;horizontalStack=0;resizeParent=1;resizeParentMax=0;resizeLast=0;collapsible=1;marginBottom=0;movable=0;resizable=0;rotatable=0;deletable=0;editable=0;connectable=0;" parent="384" vertex="1">
                    <mxGeometry x="240" y="160" width="160" height="120" as="geometry"/>
                </mxCell>
                <mxCell id="363" value="-state:State" style="text;strokeColor=none;fillColor=none;align=left;verticalAlign=top;spacingLeft=4;spacingRight=4;overflow=hidden;rotatable=0;points=[[0,0.5],[1,0.5]];portConstraint=eastwest;movable=0;resizable=0;deletable=0;editable=0;connectable=0;" parent="362" vertex="1">
                    <mxGeometry y="26" width="160" height="26" as="geometry"/>
                </mxCell>
                <mxCell id="364" value="" style="line;strokeWidth=1;fillColor=none;align=left;verticalAlign=middle;spacingTop=-1;spacingLeft=3;spacingRight=3;rotatable=0;labelPosition=right;points=[];portConstraint=eastwest;strokeColor=inherit;movable=0;resizable=0;deletable=0;editable=0;connectable=0;" parent="362" vertex="1">
                    <mxGeometry y="52" width="160" height="8" as="geometry"/>
                </mxCell>
                <mxCell id="365" value="+SetState(state:State):void&#10;+Request():void" style="text;strokeColor=none;fillColor=none;align=left;verticalAlign=top;spacingLeft=4;spacingRight=4;overflow=hidden;rotatable=0;points=[[0,0.5],[1,0.5]];portConstraint=eastwest;movable=0;resizable=0;deletable=0;editable=0;connectable=0;" parent="362" vertex="1">
                    <mxGeometry y="60" width="160" height="60" as="geometry"/>
                </mxCell>
                <mxCell id="366" value="&lt;&lt;interface&gt;&gt;&#10;State" style="swimlane;fontStyle=1;align=center;verticalAlign=top;childLayout=stackLayout;horizontal=1;startSize=40;horizontalStack=0;resizeParent=1;resizeParentMax=0;resizeLast=0;collapsible=1;marginBottom=0;movable=0;resizable=0;rotatable=0;deletable=0;editable=0;connectable=0;" parent="384" vertex="1">
                    <mxGeometry x="570" y="160" width="180" height="74" as="geometry"/>
                </mxCell>
                <mxCell id="368" value="" style="line;strokeWidth=1;fillColor=none;align=left;verticalAlign=middle;spacingTop=-1;spacingLeft=3;spacingRight=3;rotatable=0;labelPosition=right;points=[];portConstraint=eastwest;strokeColor=inherit;movable=0;resizable=0;deletable=0;editable=0;connectable=0;" parent="366" vertex="1">
                    <mxGeometry y="40" width="180" height="8" as="geometry"/>
                </mxCell>
                <mxCell id="369" value="+Handle(context:Context):void" style="text;strokeColor=none;fillColor=none;align=left;verticalAlign=top;spacingLeft=4;spacingRight=4;overflow=hidden;rotatable=0;points=[[0,0.5],[1,0.5]];portConstraint=eastwest;movable=0;resizable=0;deletable=0;editable=0;connectable=0;" parent="366" vertex="1">
                    <mxGeometry y="48" width="180" height="26" as="geometry"/>
                </mxCell>
                <mxCell id="370" value="ConcreteStateA" style="swimlane;fontStyle=1;align=center;verticalAlign=top;childLayout=stackLayout;horizontal=1;startSize=26;horizontalStack=0;resizeParent=1;resizeParentMax=0;resizeLast=0;collapsible=1;marginBottom=0;movable=0;resizable=0;rotatable=0;deletable=0;editable=0;connectable=0;" parent="384" vertex="1">
                    <mxGeometry x="440" y="320" width="200" height="60" as="geometry"/>
                </mxCell>
                <mxCell id="372" value="" style="line;strokeWidth=1;fillColor=none;align=left;verticalAlign=middle;spacingTop=-1;spacingLeft=3;spacingRight=3;rotatable=0;labelPosition=right;points=[];portConstraint=eastwest;strokeColor=inherit;movable=0;resizable=0;deletable=0;editable=0;connectable=0;" parent="370" vertex="1">
                    <mxGeometry y="26" width="200" height="8" as="geometry"/>
                </mxCell>
                <mxCell id="373" value="+Handle(context:Context):void" style="text;strokeColor=none;fillColor=none;align=left;verticalAlign=top;spacingLeft=4;spacingRight=4;overflow=hidden;rotatable=0;points=[[0,0.5],[1,0.5]];portConstraint=eastwest;movable=0;resizable=0;deletable=0;editable=0;connectable=0;" parent="370" vertex="1">
                    <mxGeometry y="34" width="200" height="26" as="geometry"/>
                </mxCell>
                <mxCell id="374" value="ConcreteStateB" style="swimlane;fontStyle=1;align=center;verticalAlign=top;childLayout=stackLayout;horizontal=1;startSize=26;horizontalStack=0;resizeParent=1;resizeParentMax=0;resizeLast=0;collapsible=1;marginBottom=0;movable=0;resizable=0;rotatable=0;deletable=0;editable=0;connectable=0;" parent="384" vertex="1">
                    <mxGeometry x="660" y="320" width="180" height="60" as="geometry"/>
                </mxCell>
                <mxCell id="375" value="" style="line;strokeWidth=1;fillColor=none;align=left;verticalAlign=middle;spacingTop=-1;spacingLeft=3;spacingRight=3;rotatable=0;labelPosition=right;points=[];portConstraint=eastwest;strokeColor=inherit;movable=0;resizable=0;deletable=0;editable=0;connectable=0;" parent="374" vertex="1">
                    <mxGeometry y="26" width="180" height="8" as="geometry"/>
                </mxCell>
                <mxCell id="376" value="+Handle(context:Context):void" style="text;strokeColor=none;fillColor=none;align=left;verticalAlign=top;spacingLeft=4;spacingRight=4;overflow=hidden;rotatable=0;points=[[0,0.5],[1,0.5]];portConstraint=eastwest;movable=0;resizable=0;deletable=0;editable=0;connectable=0;" parent="374" vertex="1">
                    <mxGeometry y="34" width="180" height="26" as="geometry"/>
                </mxCell>
                <mxCell id="377" value="Client" style="html=1;movable=0;resizable=0;rotatable=0;deletable=0;editable=0;connectable=0;" parent="384" vertex="1">
                    <mxGeometry x="10" y="200" width="110" height="50" as="geometry"/>
                </mxCell>
                <mxCell id="378" value="Use" style="endArrow=open;endSize=12;dashed=1;html=1;movable=0;resizable=0;rotatable=0;deletable=0;editable=0;connectable=0;" parent="384" edge="1">
                    <mxGeometry width="160" relative="1" as="geometry">
                        <mxPoint x="120" y="220" as="sourcePoint"/>
                        <mxPoint x="240" y="220" as="targetPoint"/>
                    </mxGeometry>
                </mxCell>
                <mxCell id="379" value="" style="endArrow=diamondThin;endFill=0;endSize=24;html=1;entryX=1;entryY=0.5;entryDx=0;entryDy=0;exitX=0;exitY=0.5;exitDx=0;exitDy=0;movable=0;resizable=0;rotatable=0;deletable=0;editable=0;connectable=0;" parent="384" source="366" target="363" edge="1">
                    <mxGeometry width="160" relative="1" as="geometry">
                        <mxPoint x="410" y="120" as="sourcePoint"/>
                        <mxPoint x="570" y="120" as="targetPoint"/>
                    </mxGeometry>
                </mxCell>
                <mxCell id="380" value="" style="endArrow=block;dashed=1;endFill=0;endSize=12;html=1;exitX=0.5;exitY=0;exitDx=0;exitDy=0;entryX=0.489;entryY=1.006;entryDx=0;entryDy=0;entryPerimeter=0;movable=1;resizable=1;rotatable=1;deletable=1;editable=1;connectable=1;" parent="384" source="370" target="369" edge="1">
                    <mxGeometry width="160" relative="1" as="geometry">
                        <mxPoint x="440" y="230" as="sourcePoint"/>
                        <mxPoint x="600" y="230" as="targetPoint"/>
                    </mxGeometry>
                </mxCell>
                <mxCell id="381" value="" style="endArrow=block;dashed=1;endFill=0;endSize=12;html=1;entryX=0.572;entryY=0.962;entryDx=0;entryDy=0;entryPerimeter=0;exitX=0.5;exitY=0;exitDx=0;exitDy=0;movable=0;resizable=0;rotatable=0;deletable=0;editable=0;connectable=0;" parent="384" source="374" target="369" edge="1">
                    <mxGeometry width="160" relative="1" as="geometry">
                        <mxPoint x="740" y="310" as="sourcePoint"/>
                        <mxPoint x="900" y="310" as="targetPoint"/>
                    </mxGeometry>
                </mxCell>
                <mxCell id="385" value="&lt;div style=&quot;text-align: left;&quot;&gt;&lt;span style=&quot;background-color: initial;&quot;&gt;Use-cases:&lt;/span&gt;&lt;/div&gt;&lt;div style=&quot;text-align: left;&quot;&gt;&lt;span style=&quot;background-color: initial;&quot;&gt;Objects with dynamic behavior&lt;/span&gt;&lt;/div&gt;&lt;div style=&quot;text-align: left;&quot;&gt;&lt;span style=&quot;background-color: initial;&quot;&gt;UI component state management&lt;/span&gt;&lt;/div&gt;&lt;div style=&quot;text-align: left;&quot;&gt;&lt;span style=&quot;background-color: initial;&quot;&gt;State Persistence&lt;/span&gt;&lt;/div&gt;" style="text;html=1;align=center;verticalAlign=middle;resizable=0;points=[];autosize=1;strokeColor=none;fillColor=none;" vertex="1" parent="384">
                    <mxGeometry x="810" y="140" width="200" height="70" as="geometry"/>
                </mxCell>
            </root>
        </mxGraphModel>
    </diagram>
</mxfile>